<svg width="24" height="25" fill="none" xmlns="http://www.w3.org/2000/svg"><g clip-path="url(#a)"><path d="M24 12.942c0-6.628-5.373-12-12-12s-12 5.372-12 12c0 5.99 4.388 10.954 10.125 11.854V16.41H7.078v-3.468h3.047v-2.644c0-3.008 1.791-4.669 4.533-4.669 1.313 0 2.686.235 2.686.235v2.953H15.83c-1.491 0-1.956.925-1.956 1.874v2.25h3.328l-.532 3.47h-2.796v8.385C19.612 23.896 24 18.93 24 12.942Z" fill="#000"/><path d="m16.671 16.41.532-3.469h-3.328v-2.25c0-.95.465-1.875 1.956-1.875h1.513V5.863s-1.374-.234-2.686-.234c-2.742 0-4.533 1.661-4.533 4.669v2.643H7.078v3.47h3.047v8.385a12.084 12.084 0 0 0 3.75 0V16.41h2.796Z" fill="#fff"/></g><defs><clipPath id="a"><path fill="#fff" transform="translate(0 .941)" d="M0 0h24v24H0z"/></clipPath></defs></svg>