<svg width="30" height="31" fill="none" xmlns="http://www.w3.org/2000/svg"><path d="M23.813 6.579a12.27 12.27 0 0 0-8.763-3.638c-6.825 0-12.388 5.563-12.388 12.388 0 2.188.575 4.313 1.65 6.188l-1.75 6.425 6.563-1.726a12.39 12.39 0 0 0 5.925 1.513c6.825 0 12.387-5.563 12.387-12.387a12.31 12.31 0 0 0-3.625-8.763Zm-8.763 19.05c-1.85 0-3.663-.5-5.25-1.438l-.375-.224-3.9 1.024 1.037-3.8-.25-.387a10.33 10.33 0 0 1-1.575-5.475c0-5.675 4.626-10.3 10.3-10.3 2.75 0 5.338 1.075 7.275 3.025a10.227 10.227 0 0 1 3.013 7.287c.025 5.676-4.6 10.288-10.275 10.288Zm5.65-7.7c-.313-.15-1.837-.9-2.113-1.012-.287-.1-.487-.15-.7.15-.212.312-.8 1.012-.974 1.212-.175.212-.363.238-.675.075-.313-.15-1.313-.488-2.488-1.537-.925-.825-1.537-1.838-1.725-2.15-.175-.313-.025-.476.137-.638.138-.137.313-.363.463-.537.15-.176.213-.313.313-.513.1-.212.05-.387-.026-.537-.075-.15-.7-1.675-.95-2.3-.25-.6-.512-.526-.7-.538h-.6c-.212 0-.537.075-.825.387-.274.313-1.075 1.063-1.075 2.588 0 1.525 1.113 3 1.263 3.2.15.213 2.188 3.337 5.287 4.675.738.325 1.313.512 1.763.65.738.238 1.413.2 1.95.125.6-.087 1.838-.75 2.088-1.475.262-.725.262-1.338.175-1.475-.088-.137-.276-.2-.588-.35Z" fill="#000"/></svg>