<svg width="40" height="40" fill="none" xmlns="http://www.w3.org/2000/svg"><g clip-path="url(#a)"><path d="M40 20c0 11.047-8.953 20-20 20S0 31.047 0 20 8.953 0 20 0s20 8.953 20 20Z" fill="#fff"/><path d="M35.431 20c0 8.526-6.915 15.43-15.43 15.43-8.526 0-15.43-6.915-15.43-15.43 0-8.526 6.914-15.43 15.43-15.43 8.526 0 15.43 6.904 15.43 15.43Z" fill="#132249"/><path d="M35.431 20h-.054c0 4.252-1.72 8.098-4.504 10.882a15.338 15.338 0 0 1-10.882 4.504c-4.252 0-8.099-1.72-10.882-4.504A15.338 15.338 0 0 1 4.604 20c0-4.252 1.72-8.099 4.504-10.882A15.338 15.338 0 0 1 19.99 4.614c4.251 0 8.098 1.72 10.882 4.504A15.337 15.337 0 0 1 35.376 20h.11c0-8.548-6.937-15.485-15.485-15.485-8.549 0-15.485 6.937-15.485 15.485 0 8.547 6.937 15.485 15.485 15.485 8.547 0 15.485-6.938 15.485-15.485h-.055Z" fill="#132249"/><path d="m6.629 33.282 1.666-1.698.383.383-1.666 1.688-.383-.373ZM7.802 31.113l-1.841 1.49-.395-.494.362-.93c.11-.264.252-.56.384-.812v-.01c-.22.219-.471.427-.746.657l-.536.438-.307-.383 1.841-1.49.35.437-.394.975c-.11.275-.252.58-.394.844l.01.011c.242-.209.494-.427.79-.669l.558-.449.318.384ZM5.566 28.767c-.011-.044-.055-.11-.088-.164-.241-.427-.636-.57-1.129-.285-.438.252-.514.625-.285 1.03.055.099.11.164.142.197l1.36-.778Zm-1.414 1.424a4.067 4.067 0 0 1-.406-.603c-.23-.394-.307-.69-.274-.964.033-.307.22-.591.58-.8.395-.23.746-.241 1.031-.142.307.11.58.395.811.8.142.241.22.427.274.548L4.152 30.19ZM2.543 27.113l2.181-.932.208.493-2.18.932-.209-.493ZM3.169 24.735l-.439.285c-.12.076-.285.164-.405.241v.011c.142-.01.329-.022.471-.033h.526l-.153-.504Zm.558.46.636-.011.153.537-2.487-.022-.197-.67 2.071-1.38.164.559-.537.35.197.637ZM3.792 23.124l-2.356.307-.077-.625.8-.604c.23-.175.504-.35.757-.492v-.011c-.307.076-.625.12-.975.175l-.68.087-.066-.493 2.357-.307.076.559-.844.625a7.369 7.369 0 0 1-.778.515v.01c.307-.054.647-.109 1.03-.153l.713-.087.043.494ZM1.182 18.936l2.367.1-.022.537-2.367-.099.022-.538ZM3.584 18.356l-2.346-.372.099-.615.931-.35c.274-.099.58-.186.866-.253v-.01a11.282 11.282 0 0 1-.986-.11l-.68-.11.077-.481 2.345.372-.088.559-.986.362a8.407 8.407 0 0 1-.887.274v.01c.318.034.647.077 1.03.143l.702.11-.077.471ZM3.552 15.573c.11-.11.252-.307.318-.526.076-.23.01-.395-.131-.438-.143-.044-.253.032-.439.285-.252.329-.536.515-.865.416-.384-.12-.58-.537-.406-1.074.077-.263.186-.427.296-.537l.373.242c-.066.076-.186.22-.252.438-.066.22 0 .362.12.394.142.044.252-.054.45-.317.273-.351.536-.472.865-.373.383.12.614.504.416 1.129-.076.263-.23.493-.34.603l-.405-.242ZM3.188 12.526l-.275.581-.405-.187.767-1.654.405.186-.273.592 1.742.81-.22.483-1.742-.811ZM3.923 10.159l2.038 1.216-.274.461-2.039-1.216.275-.461ZM5.054 9.282l-.384.515-.361-.274 1.084-1.468.362.274-.384.515 1.545 1.15-.318.428-1.544-1.14ZM6.314 7.047l.964.964c.296.285.548.329.745.131.197-.197.165-.449-.13-.745l-.966-.964.373-.384.942.942c.515.515.504 1.02.077 1.47-.417.427-.91.438-1.436-.1l-.942-.93.373-.384ZM8.712 5.469l-.504.383-.274-.35L9.39 4.395l.274.361-.526.395 1.162 1.534-.428.318L8.712 5.47ZM11.966 4.46l-.756.427.285.493.844-.482.219.384-1.315.745-1.173-2.06 1.271-.723.209.383-.8.46.24.428.768-.439.208.384ZM14.784 3.967c.34-.11.438-.504.296-.942-.131-.406-.438-.69-.79-.58-.35.11-.437.514-.295.942.131.427.449.69.789.58Zm.11.405c-.67.22-1.228-.164-1.437-.8-.22-.68.055-1.325.713-1.534.69-.23 1.238.175 1.447.79.241.744-.055 1.336-.724 1.544ZM16.164 1.534l1.425-.241.066.438-.899.154.099.526.832-.142.077.438-.844.142.165.942-.526.089-.395-2.346ZM20.01 1.6l-.635-.011v-.45l1.83.033-.01.45-.647-.011-.033 1.929-.537-.011.033-1.93ZM23.198 2.805l-.865-.12-.077.548.964.142-.065.439-1.49-.22.339-2.345 1.447.209-.067.438-.92-.132-.066.483.866.12-.066.438ZM25.412 4.35c-.098.023-.34.012-.614-.065-.789-.22-1.052-.833-.866-1.49.22-.779.899-1.053 1.59-.855.263.076.46.186.536.263l-.22.373a1.08 1.08 0 0 0-.405-.209c-.405-.12-.8.044-.942.548-.131.46.055.822.515.953.164.044.34.065.46.044l-.054.439ZM27.41 2.663l-.372.833.8.373.383-.833.482.219-.987 2.16-.482-.22.406-.899-.8-.372-.417.898-.482-.219.986-2.16.483.22ZM28.316 5.742l1.315-1.972.526.35-.076.997a7.86 7.86 0 0 1-.132.888h.011c.142-.275.318-.548.515-.855l.384-.57.405.275-1.315 1.972-.47-.318.087-1.04c.021-.296.065-.636.12-.92l-.011-.012c-.164.275-.34.56-.559.877l-.394.591-.406-.263ZM31.507 7.682c.263.252.647.142.964-.197.296-.307.394-.713.12-.964-.274-.252-.669-.131-.975.197-.296.307-.383.712-.11.964Zm-.318.285c-.515-.482-.45-1.15.01-1.644.483-.515 1.184-.591 1.688-.12.537.493.45 1.173 0 1.644-.526.58-1.183.602-1.698.12ZM34.29 7.693l.329.416-1.502 1.206.592.734-.351.285-.92-1.15 1.852-1.491ZM34.464 11.332c.186.306.592.317.986.076.362-.22.58-.58.384-.898-.186-.318-.603-.307-.986-.077-.384.23-.57.592-.384.899Zm-.383.208c-.362-.603-.12-1.227.46-1.578.614-.362 1.304-.252 1.666.35.372.626.109 1.25-.45 1.59-.668.394-1.314.23-1.676-.362ZM35.792 14.828a2.824 2.824 0 0 1-.416-.691c-.164-.406-.175-.735-.066-1.02.11-.274.362-.504.68-.636.734-.285 1.37.077 1.654.8.11.285.143.526.143.658l-.45.055c.011-.142-.01-.307-.109-.548-.164-.416-.526-.636-1.009-.449-.46.186-.614.57-.449.986.044.11.099.197.12.23l.46-.185-.13-.34.394-.154.329.822-1.15.472ZM35.988 16.01l.943-.219 1.194-1.041.142.603-.504.362c-.153.11-.263.186-.405.285v.01c.153.023.307.045.482.077l.614.11.131.591-1.523-.449-.964.22-.11-.548ZM37.391 20.68c.286-.011.625-.033.975-.033v-.011a14.975 14.975 0 0 1-.92-.252l-.931-.275-.011-.416.91-.263c.284-.077.613-.164.93-.23v-.012c-.317-.01-.69-.01-.985-.022l-.899-.032-.01-.493 2.377.109.011.712-.789.242c-.274.076-.57.153-.843.22v.01c.274.055.59.132.854.209l.79.241.01.702-2.367.164-.011-.526.91-.044ZM37.194 23.178l.525-.065c.143-.011.33-.022.472-.033v-.011c-.132-.055-.307-.12-.439-.175l-.47-.23-.088.514Zm-.296-.658-.57-.263.099-.548 2.214 1.118-.12.68-2.466.329.098-.57.636-.076.109-.67ZM36.13 24.986c-.021.043-.054.11-.065.175-.164.46-.01.854.526 1.03.482.164.81-.033.953-.47a.988.988 0 0 0 .055-.242l-1.468-.493Zm2.006.12c-.033.198-.098.45-.186.702-.142.428-.307.691-.547.844-.253.175-.58.23-.986.088-.428-.142-.669-.406-.79-.68-.12-.307-.087-.702.066-1.14.088-.263.175-.45.23-.57l2.213.757ZM35.936 27.934l-.099.186c-.12.242-.076.438.11.537.186.098.362.022.471-.197.055-.12.087-.186.098-.22l-.58-.306Zm1.14 0a4.721 4.721 0 0 1-.285.658c-.164.318-.318.504-.526.591-.164.077-.35.066-.548-.032a.625.625 0 0 1-.318-.636h-.01c-.132.12-.319.12-.537.076-.275-.054-.58-.142-.68-.142l.252-.482c.077 0 .274.033.57.11.295.076.416.021.515-.176l.076-.142-.833-.427.242-.471 2.082 1.073ZM34.038 30.433l.493.175c.13.054.306.12.438.175l.01-.011c-.098-.11-.219-.242-.306-.351l-.33-.416-.306.428Zm.021-.724-.394-.493.329-.449 1.501 1.984-.416.57-2.356-.79.34-.47.603.208.393-.56ZM32.747 31.298a1.35 1.35 0 0 0-.515.33c-.175.174-.186.34-.076.449.098.098.24.076.514-.055.373-.186.713-.22.964.022.297.285.275.734-.109 1.14a1.36 1.36 0 0 1-.504.35l-.23-.383c.098-.033.263-.11.427-.274.164-.165.164-.33.077-.406-.11-.11-.253-.055-.548.088-.405.197-.69.186-.942-.055-.285-.274-.318-.723.131-1.195.186-.197.427-.34.57-.383l.241.372ZM31.178 34.137c0 .197-.153.35-.35.35a.346.346 0 0 1-.351-.35c0-.197.153-.35.35-.35.187 0 .351.153.351.35ZM9.522 34.137c0 .197-.153.35-.35.35a.346.346 0 0 1-.352-.35c0-.197.153-.35.351-.35.197 0 .35.153.35.35ZM11.605 29.447l5.611 1.008-.602.701 5.5.471-.547.45 5.436.24-7.189.713.898-.8-5.698-.58.953-.702-4.362-1.501ZM10.96 34.324l.493.285c0-.099.011-.186.033-.275a.945.945 0 0 1 .098-.241c.066-.12.175-.186.318-.22a.539.539 0 0 1 .406.077c.164.098.296.263.405.515.11.252.175.548.197.887l-.098.011a1.832 1.832 0 0 0-.186-.668 1.054 1.054 0 0 0-.406-.439c-.087-.054-.197-.054-.307-.01a.524.524 0 0 0-.274.24.645.645 0 0 0-.087.187l.196.11.033.306-.263-.153-.91 1.556-.174-.34.81-1.38-.252-.142-.032-.306Z" fill="#132249"/><path d="M12.24 35.616c-.022.099-.066.197-.11.307a.607.607 0 0 0 .12.186.49.49 0 0 0 .143.12c.054.023.11.044.175.034a.36.36 0 0 0 .186-.044l.252-.515-.734-.362c0 .089 0 .176-.032.274Zm.065 1.524.286-.592c-.022 0-.055 0-.088-.01-.033-.011-.076-.033-.131-.055a.552.552 0 0 1-.209-.186 1.203 1.203 0 0 1-.131-.296.716.716 0 0 1-.22.153.424.424 0 0 1-.23.033 2.9 2.9 0 0 0 .329.865l-.197.088c-.296-.833-.395-1.337-.318-1.513a.215.215 0 0 1 .098-.098c.044-.022.077-.022.11 0 .044.022.065.055.087.098a.365.365 0 0 1 .033.164.446.446 0 0 0 .197-.054.363.363 0 0 0 .131-.153.957.957 0 0 0 .055-.165.36.36 0 0 0 0-.153l-.548-.263-.054-.296 1.994.964.055.296-.274-.131-.79 1.622-.185-.318Z" fill="#132249"/><path d="m13.306 35.573.536.208a1.15 1.15 0 0 1-.01-.274c.01-.087.032-.175.054-.252a.435.435 0 0 1 .274-.264.608.608 0 0 1 .417.011c.175.066.34.22.482.439.142.23.252.504.34.843l-.099.033a1.807 1.807 0 0 0-.285-.625 1.03 1.03 0 0 0-.46-.361c-.099-.044-.197-.033-.307.032a.503.503 0 0 0-.23.286.68.68 0 0 0-.056.196l.21.077.076.296-.285-.11-.658 1.677-.23-.307.58-1.49-.274-.11-.075-.305Z" fill="#132249"/><path d="M14.369 37.983a.175.175 0 0 0 .098.077.511.511 0 0 0 .286-.011.62.62 0 0 0 .263-.186c-.175-.055-.296-.11-.35-.175a.375.375 0 0 0-.198.044c-.054.033-.098.076-.11.131-.01.044-.01.088.011.12Zm1.698-1.468.11.285-.351-.11-.164.548-.767-.23a.201.201 0 0 0-.175.021.28.28 0 0 0-.11.143.242.242 0 0 0 .033.208c.044.066.11.11.197.142l.242.055c0-.022 0-.033-.012-.054v-.044c.011-.055.055-.088.11-.11a.272.272 0 0 1 .186 0c.066.022.12.066.153.132a.256.256 0 0 1 .01.22c-.01.054-.043.087-.098.12a.303.303 0 0 1-.174.054l.306.603-.185.066-.165-.45a.778.778 0 0 1-.317.154.672.672 0 0 1-.33-.011.698.698 0 0 1-.34-.242c-.098-.12-.141-.22-.12-.307.011-.032.022-.054.033-.076a.29.29 0 0 1 .055-.066.617.617 0 0 1-.296-.22c-.066-.098-.088-.196-.055-.284a.308.308 0 0 1 .077-.12c.043-.044.098-.088.164-.132l.208.318c-.043.022-.087.044-.12.066-.033.021-.044.054-.055.076-.01.033 0 .077.033.11a.28.28 0 0 0 .131.087l.197-.066a.59.59 0 0 1-.077-.472.348.348 0 0 1 .198-.196.485.485 0 0 1 .35 0l.45.13.076-.273-1.48-.439-.109-.285 2.181.649Z" fill="#132249"/><path d="M16.23 36.931c.043.055.109.099.196.12l.066-.34a.147.147 0 0 0-.011-.098c-.011-.033-.022-.044-.044-.054a.206.206 0 0 0-.164.032c-.055.033-.076.088-.087.142-.023.078-.001.133.043.198Zm.645-.273.986.175.132.274-.296-.055-.319 1.775-.285-.263.099-.526-.58-.11-.034.198c-.01.044-.032.076-.054.11a.174.174 0 0 1-.088.032c-.098-.022-.197-.099-.285-.252-.098-.154-.131-.275-.12-.384 0-.022.022-.044.055-.066.032-.01.065-.022.098-.01l.164.032.066-.383c-.153-.077-.274-.164-.351-.297a.515.515 0 0 1-.088-.372.251.251 0 0 1 .132-.186c.076-.044.153-.055.241-.044.12.022.23.11.329.264.098.153.131.296.11.416l-.121.647.58.11.143-.768-.384-.066-.13-.251Z" fill="#132249"/><path d="M17.38 35.836a.38.38 0 0 1 .285-.076c.11.01.209.054.285.12a.488.488 0 0 1 .175.263l-.066.055a.389.389 0 0 0-.109-.12.336.336 0 0 0-.131-.055.307.307 0 0 0-.253.076.311.311 0 0 0-.13.23c-.012.056 0 .11.021.176.022.066.066.131.11.197l-.088.054a.852.852 0 0 1-.197-.328c-.044-.12-.055-.231-.044-.351 0-.099.054-.186.142-.24ZM18.146 38.18c.044.044.11.077.186.077a.74.74 0 0 0 .329-.055c.12-.043.23-.098.35-.186a.754.754 0 0 0-.208-.208.499.499 0 0 0-.56-.011c-.087.055-.141.131-.141.22-.021.065-.01.12.044.163Zm1.381-1.216.164.263-.307-.021-.13 1.796-.308-.23.033-.406c-.088.055-.164.11-.252.132a.505.505 0 0 1-.253.033c-.153-.011-.296-.099-.449-.242-.142-.153-.209-.296-.197-.438a.389.389 0 0 1 .175-.296.55.55 0 0 1 .373-.099.852.852 0 0 1 .647.438l.054-.712-1.304-.098-.164-.264 1.918.144Z" fill="#132249"/><path d="m19.332 36.942.57.01a1.079 1.079 0 0 1-.131-.516c0-.13.054-.251.163-.339a.557.557 0 0 1 .395-.13c.186 0 .394.087.603.252.22.164.416.383.614.668l-.087.055a1.577 1.577 0 0 0-.493-.482 1.131 1.131 0 0 0-.559-.186.33.33 0 0 0-.274.142.537.537 0 0 0-.12.34c0 .099 0 .164.021.209h.22l.175.252-.307-.01-.033 1.796-.318-.209.022-1.589h-.285l-.176-.263Z" fill="#132249"/><path d="m21.93 36.855.197.23-.307.022.12 1.797-.34-.186-.055-.899-.636.044c-.054 0-.098.033-.142.088a.278.278 0 0 0-.044.185c.011.11.055.231.132.34.076.12.186.23.329.33l-.12.109a3.223 3.223 0 0 1-.472-.504c-.11-.164-.175-.296-.186-.417a.427.427 0 0 1 .088-.307c.065-.087.153-.142.252-.142l.778-.055-.022-.372-1.282.087-.197-.23 1.907-.12ZM23.2 37.896c.044.033.098.044.153.033a.563.563 0 0 0 .241-.12.666.666 0 0 0 .186-.242.358.358 0 0 0-.164-.12c-.065-.022-.12-.033-.175-.022a.47.47 0 0 0-.252.131c-.066.066-.087.131-.076.209.01.065.043.109.087.13Zm1.48-1.545.23.208-.964.197.11.537a.438.438 0 0 1 .109-.132.37.37 0 0 1 .164-.065c.11-.022.241.033.383.175.143.142.231.285.264.45.01.076.01.152 0 .24a.898.898 0 0 1-.088.275l-.307-.186a.88.88 0 0 0 .131-.274.622.622 0 0 0 .022-.242.213.213 0 0 0-.098-.153c-.055-.033-.11-.055-.175-.033a.413.413 0 0 0-.175.099c-.055.054-.11.13-.164.22l.175.865-.362-.131-.087-.439a.379.379 0 0 1-.132.132c-.054.032-.109.065-.175.076-.12.022-.252-.022-.405-.131-.153-.11-.241-.242-.263-.373a.29.29 0 0 1 .065-.263.406.406 0 0 1 .264-.153.41.41 0 0 1 .274.033.841.841 0 0 1 .274.175l-.12-.603-1.009.208-.23-.209 2.289-.503Z" fill="#132249"/><path d="m25.566 37.096.58-.197-.252-.734-.58.197.252.734Zm.68-1.316.252.175-.286.099.581 1.698-.373-.087-.153-.46-.58.196.065.197a.223.223 0 0 1 0 .12c-.01.033-.032.066-.065.077-.099.033-.23.011-.395-.076-.164-.088-.263-.186-.296-.286a.107.107 0 0 1 .011-.098.136.136 0 0 1 .087-.066l.175-.054-.252-.735-.405.143-.253-.175 1.886-.668ZM25.336 35.145a.354.354 0 0 1 .22-.197.525.525 0 0 1 .318-.032.59.59 0 0 1 .285.142l-.033.077c-.055-.033-.11-.044-.153-.055a.208.208 0 0 0-.142.022.312.312 0 0 0-.186.186c-.033.087-.044.175 0 .263a.416.416 0 0 0 .11.142c.054.044.12.088.196.12l-.055.088a1.132 1.132 0 0 1-.34-.186.743.743 0 0 1-.208-.285c-.066-.099-.055-.197-.012-.285Z" fill="#132249"/><path d="m28.076 34.937.274.142-.274.131.767 1.622-.384-.044-.372-.778-.515.241c.11.033.22.077.296.143a.498.498 0 0 1 .186.22.366.366 0 0 1 .01.284.484.484 0 0 1-.196.22c-.164.076-.362.054-.603-.055-.242-.11-.471-.296-.69-.559l.087-.087c.153.186.318.307.493.395.175.076.318.087.438.032a.157.157 0 0 0 .098-.12c.022-.055.011-.11-.01-.175a.55.55 0 0 0-.242-.23 1.532 1.532 0 0 0-.45-.143l.965-.46-.175-.372-1.513.712-.274-.142 2.084-.977Z" fill="#132249"/><path d="m28.648 34.575.284.121-.262.153.898 1.557-.384-.011-.8-1.38-.252.141-.284-.12.8-.46Z" fill="#132249"/><path d="M9.043 22.41c0 .516 1.205.78 1.523.867 1.348.35 2.751.514 4.143.603 1.282.087 2.849-.12 4.076-.439-.723-.964-1.425-1.928-1.929-3.035-4.58.306-7.813 1.227-7.813 2.005Zm14.104-2.015c-.504 1.096-1.206 2.07-1.929 3.035 1.238.318 2.794.526 4.076.439 1.392-.099 2.795-.264 4.143-.603.318-.077 1.523-.34 1.523-.866 0-.778-3.233-1.698-7.813-2.005Z" fill="#fff"/><path d="M9.043 22.41h-.055c0 .154.088.275.209.384.186.154.46.275.723.362.264.088.504.142.625.175 1.359.351 2.762.515 4.153.614.209.011.417.022.625.022 1.151 0 2.422-.197 3.475-.46l.076-.022-.043-.055c-.724-.964-1.425-1.928-1.918-3.024l-.011-.033h-.033c-2.29.153-4.253.46-5.633.822-.69.186-1.25.383-1.622.58-.186.098-.34.209-.438.307-.099.11-.164.22-.164.329h.086c0-.077.043-.164.13-.263.165-.164.472-.34.91-.515 1.304-.515 3.726-.975 6.73-1.173v-.055l-.045.022c.504 1.107 1.206 2.071 1.93 3.036l.043-.033-.01-.043c-1.031.274-2.302.46-3.442.46-.209 0-.417-.011-.625-.022-1.38-.098-2.784-.263-4.131-.603-.154-.044-.537-.131-.877-.263a1.807 1.807 0 0 1-.438-.242c-.11-.098-.175-.197-.175-.307h-.055Zm14.104-2.015-.044-.022c-.504 1.096-1.194 2.06-1.918 3.025l-.044.054.077.022c1.041.274 2.323.46 3.474.46.22 0 .427-.01.625-.021 1.392-.099 2.795-.264 4.153-.615.153-.043.537-.13.888-.274.175-.076.34-.153.46-.263.12-.098.209-.23.209-.384 0-.12-.055-.23-.165-.329-.174-.185-.503-.361-.942-.536-1.326-.515-3.747-.986-6.761-1.184h-.033l-.011.033.032.034v.054c2.29.153 4.241.46 5.61.822.691.186 1.24.384 1.6.58.187.099.33.197.417.297.088.098.131.186.131.263 0 .11-.065.208-.175.307-.164.142-.438.252-.69.34-.252.087-.493.142-.614.175-1.348.34-2.751.515-4.131.603a11.05 11.05 0 0 1-.626.022c-1.14 0-2.41-.186-3.44-.46l-.012.043.044.033c.723-.964 1.425-1.94 1.929-3.036l-.043-.043Z" fill="#132249"/><path d="M18.785 23.441c-.723-.964-1.414-1.94-1.918-3.036-.033-.087-.076-.164-.11-.252a9.703 9.703 0 0 1-.569-1.797c-.525-2.663.318-5.359 1.786-7.573.855-1.293 1.775-2.608 2.006-4.175h.055c.23 1.568 1.15 2.882 2.005 4.175 1.469 2.215 2.312 4.91 1.786 7.573a9.483 9.483 0 0 1-.57 1.797c-.032.087-.076.164-.109.252-.504 1.096-1.205 2.071-1.929 3.036a8.985 8.985 0 0 1-1.195-.394 8.988 8.988 0 0 1-1.194.394h-.044Z" fill="#fff"/><path d="m18.784 23.442.044-.033c-.723-.953-1.414-1.94-1.907-3.025a2.425 2.425 0 0 1-.11-.253 9.433 9.433 0 0 1-.569-1.796 8.143 8.143 0 0 1-.153-1.622c0-2.104.767-4.164 1.94-5.918.855-1.293 1.786-2.609 2.016-4.197l-.054-.011v.055h.054v-.055l-.054.01c.241 1.59 1.161 2.905 2.016 4.198 1.173 1.753 1.94 3.814 1.94 5.918 0 .536-.055 1.074-.153 1.622a9.737 9.737 0 0 1-.57 1.796c-.033.088-.076.165-.11.253-.503 1.096-1.194 2.06-1.917 3.025l.044.033.01-.044c-.449-.12-.854-.253-1.183-.384l-.022-.01-.022.01a7.342 7.342 0 0 1-1.194.384l.01.044-.01-.055h-.077v.044h.033l.044-.033-.046.044.011.054h.033c.46-.12.866-.252 1.206-.394l-.022-.044-.022.044c.34.142.745.274 1.205.394l.033.011.022-.022c.723-.964 1.425-1.94 1.929-3.036.033-.087.077-.164.11-.252.252-.603.46-1.216.569-1.808a8.35 8.35 0 0 0 .164-1.633c0-2.126-.778-4.209-1.95-5.973-.866-1.293-1.776-2.609-2.006-4.164l-.011-.044H19.913l-.011.044c-.23 1.556-1.14 2.871-2.006 4.164-1.173 1.764-1.95 3.847-1.95 5.973 0 .547.054 1.096.163 1.643.12.592.318 1.217.57 1.809.033.088.077.175.11.252.503 1.096 1.205 2.082 1.917 3.047l.088.12v-.153h-.011v-.032h.001Z" fill="#132249"/><path d="M14.7 23.98c1.296.088 2.863-.122 4.108-.442l.044-.01h.001c.434-.117.84-.245 1.169-.383.329.138.735.266 1.169.382 1.235.32 2.813.53 4.108.442 1.395-.089 2.805-.254 4.161-.607h.001l.094-.024c.165-.042.433-.11.694-.207a2.492 2.492 0 0 0 .479-.233c-1.206 3.603-5.53 6.284-10.717 6.284-5.175 0-9.492-2.68-10.72-6.262.135.087.296.16.456.22.261.098.531.167.697.209l.095.024h.001c1.356.342 2.766.508 4.16.607Z" fill="#fff" stroke="#132249" stroke-width=".2"/><path d="M18.773 23.397c-1.03.274-2.302.46-3.442.46-.208 0-.416-.01-.625-.022-1.38-.098-2.783-.263-4.131-.603a5.638 5.638 0 0 1-.778-.23 2.177 2.177 0 0 1-.427-.209.635.635 0 0 1-.253-.263l-.01-.033h-.099l.022.066c1.052 3.868 5.578 6.761 10.98 6.761s9.918-2.893 10.98-6.761l.023-.066h-.11l-.01.033a.733.733 0 0 1-.264.252c-.186.12-.427.209-.658.285a8.88 8.88 0 0 1-.537.143c-1.347.34-2.75.514-4.13.603-.198.01-.406.022-.626.022-1.14 0-2.41-.186-3.441-.46-.45-.12-.855-.253-1.184-.384l-.022-.011-.022.01a7.33 7.33 0 0 1-1.194.384l.01.044-.01-.055-.042.034.021.088h.033c.46-.12.866-.253 1.206-.395l-.022-.044-.022.044c.34.142.745.274 1.206.395 1.04.274 2.323.46 3.474.46.22 0 .427-.011.625-.022 1.391-.099 2.794-.263 4.153-.614.142-.033.46-.11.778-.23.153-.055.318-.132.45-.21.13-.087.24-.174.295-.295l-.043-.022v.054h.01v-.054l-.043-.011c-1.042 3.814-5.513 6.685-10.882 6.685-5.37 0-9.853-2.882-10.882-6.685l-.044.01-.044.023c.055.12.164.22.296.307.197.13.45.22.68.296.23.076.438.12.548.153 1.358.35 2.761.515 4.153.614.208.01.416.022.625.022 1.15 0 2.422-.197 3.474-.46l-.045-.109Z" fill="#132249"/><path d="M20.198 20.22c-.088.087-.164.185-.164.263h-.011c0-.088-.088-.186-.175-.274v2.86h.098c.022-.011.055-.022.077-.033a.528.528 0 0 0 .076.033h.11v-2.85" fill="#132249"/><path d="m20.198 20.22-.032-.034c-.044.044-.088.088-.12.143a.262.262 0 0 0-.055.153h.054v-.055h-.01v.055h.054c0-.055-.033-.11-.066-.164a.816.816 0 0 0-.13-.153l-.088-.088v3.036H19.98a.52.52 0 0 1 .076-.033l-.022-.043-.021.043c.021.011.054.022.076.033h.186v-3.025l-.087.088.01.043h-.054v2.806h-.055v.055l.022-.044c-.022-.011-.055-.022-.077-.033l-.021-.011-.022.01a.518.518 0 0 1-.077.034l.022.043v-.054h-.044v-2.817h-.055l-.032.033c.043.044.087.088.12.131a.203.203 0 0 1 .044.11v.044h.098v-.044c0-.022.011-.066.044-.099.033-.043.066-.087.11-.13l-.023-.034Z" fill="#fff"/><path d="M20.067 18.17h-.076c-.395 0-.724.285-.811.68-.11.514.12.843.47 1.172.088.087.373.307.373.46h.012c.01-.153.285-.373.372-.46.35-.33.58-.658.471-1.173-.087-.405-.416-.68-.81-.68Z" fill="#132249"/><path d="M20.065 18.115h-.077c-.416 0-.767.307-.865.723a1.08 1.08 0 0 0-.033.264c0 .196.055.372.153.525.088.153.22.296.373.439.043.043.142.12.22.208a.805.805 0 0 1 .098.12c.021.044.043.077.043.099 0 .022.022.044.055.044h.011c.022 0 .044-.022.055-.044 0-.022.01-.055.043-.099.033-.054.099-.12.165-.185.065-.055.12-.11.153-.143.142-.142.274-.274.372-.438.088-.153.153-.329.153-.526 0-.087-.01-.175-.032-.263-.12-.417-.46-.724-.887-.724h-.077v.098h.077c.372 0 .68.264.767.647a.975.975 0 0 1 .033.242.98.98 0 0 1-.131.47 2.368 2.368 0 0 1-.351.417c-.044.044-.142.12-.22.209a.7.7 0 0 0-.11.142.262.262 0 0 0-.054.153h.055v-.055h-.011v.055h.055a.29.29 0 0 0-.055-.153.986.986 0 0 0-.175-.197c-.066-.066-.12-.11-.153-.142a2.032 2.032 0 0 1-.35-.417.874.874 0 0 1-.132-.47c0-.077.01-.154.033-.242.087-.373.394-.647.767-.647h.076v-.11h-.044Z" fill="#fff"/><path d="M19.178 18.849a.863.863 0 0 1 .45-.591l.032-.044s-.975-.8-2.203.164c.055-.022.537.384.591.427.33.23.67.33 1.075.253l.032-.055a.69.69 0 0 1 .023-.154Z" fill="#132249"/><path d="m19.177 18.85.044.01a.83.83 0 0 1 .428-.558l.021-.022.033-.044c.011-.022.011-.055-.01-.066 0 0-.395-.318-.998-.318-.361 0-.8.12-1.27.483-.023.01-.023.043-.012.065a.053.053 0 0 0 .066.022l-.01-.033v.033h.01l-.01-.033v.033s.021.011.032.022c.066.044.186.131.296.22.055.043.098.087.142.12.044.033.066.055.088.065.263.186.536.286.843.286.088 0 .175-.011.275-.022.01 0 .022-.011.032-.022l.033-.055.011-.022c0-.043.011-.098.022-.142l-.066-.023-.032.033c.01.011.032.022.054.011.022 0 .033-.022.033-.033l-.055-.01.033-.033c-.01-.011-.033-.022-.043-.011-.022 0-.033.021-.033.032-.011.055-.022.11-.022.154h.055l-.044-.022-.033.054.044.022-.011-.043a2.121 2.121 0 0 1-.253.021c-.285 0-.536-.087-.778-.274-.01-.01-.054-.044-.098-.087a6.148 6.148 0 0 0-.274-.22c-.044-.033-.088-.066-.132-.087-.021-.011-.032-.022-.054-.033-.022-.011-.033-.011-.055-.011l-.033.01.022.045.033.043c.45-.35.866-.46 1.205-.46.286 0 .515.077.68.153.077.033.142.077.186.099a.15.15 0 0 1 .044.033l.01.01.034-.043-.044-.022-.033.044.044.021-.022-.043a.934.934 0 0 0-.482.625l.054.022Z" fill="#fff"/><path d="m20.34 18.191.01.022c.264.099.46.33.527.636.01.077.021.142.021.209.384.054.713-.033 1.03-.264.066-.043.538-.46.592-.427-1.216-.953-2.18-.176-2.18-.176Z" fill="#132249"/><path d="m20.341 18.191-.044.022.011.022.022.022a.818.818 0 0 1 .504.591c.01.066.022.132.022.197 0 .022.022.044.044.044.076.011.153.022.23.022.307 0 .58-.099.844-.285.022-.011.055-.044.11-.088a6.22 6.22 0 0 1 .273-.22l.12-.087c.023-.01.034-.022.044-.022h.011v-.032l-.01.032h.01v-.032l-.01.032c.021.011.054 0 .065-.021.011-.022.011-.055-.01-.066-.472-.362-.91-.482-1.272-.482-.591 0-.986.307-.986.318l.022.033v-.054c-.022 0-.033.01-.044.022-.01.01-.01.032 0 .054l.044-.022v.055l.033-.01c.044-.034.394-.297.92-.297.34 0 .756.11 1.206.46l.032-.044.022-.043-.032-.011c-.033 0-.044.01-.066.022a2.004 2.004 0 0 0-.307.23c-.055.044-.11.088-.153.12-.044.033-.077.066-.088.066a1.285 1.285 0 0 1-.778.263c-.066 0-.142-.01-.208-.021l-.012.054h.055a.694.694 0 0 0-.033-.208.919.919 0 0 0-.558-.67l-.022.045.044-.022-.011-.022-.044.033Z" fill="#fff"/><path d="M19.979 12.57s-2.52 3.846-.307 5.556h.614c2.213-1.699-.307-5.557-.307-5.557Z" fill="#132249"/><path d="M19.935 12.548s-.307.47-.614 1.15c-.307.68-.614 1.579-.614 2.444 0 .756.241 1.502.931 2.028l.033.01h.614l.033-.01c.69-.526.931-1.272.931-2.028 0-.865-.307-1.764-.614-2.444-.307-.68-.614-1.15-.614-1.15-.01-.022-.044-.033-.066-.011-.021.01-.032.044-.01.065 0 0 .021.033.054.077.23.373 1.162 1.984 1.162 3.452 0 .735-.23 1.436-.888 1.951l.033.044v-.055h-.636v.055l.033-.044c-.658-.504-.887-1.205-.887-1.95 0-.844.307-1.732.603-2.4.153-.34.307-.626.416-.822.055-.099.099-.175.142-.231.033-.055.055-.077.055-.077.011-.021.011-.054-.01-.065-.043-.022-.065-.011-.087.01Z" fill="#fff"/><path d="m19.43 13.578-1.063-.931c.098.088.055.625.055.745 0 .296-.011.592-.044.888-.044.394-.12.767-.186 1.15-.098.604-.022 1.25.318 1.776.252.383.713.723 1.129.898-1.459-1.15-.79-3.266-.209-4.526Z" fill="#132249"/><path d="m19.431 13.578.033-.033-1.063-.931c-.022-.022-.055-.011-.066 0-.022.022-.01.055 0 .066 0 0 .011.01.022.032.022.066.033.209.033.34 0 .131-.011.263-.011.33v.108c0 .264-.011.526-.044.79-.033.383-.12.767-.186 1.15a3.746 3.746 0 0 0-.044.493c0 .46.11.92.362 1.315.253.395.724.735 1.151.92.022.011.055 0 .066-.021.01-.022.01-.044-.011-.066-.647-.504-.866-1.206-.866-1.929 0-.898.34-1.841.669-2.531.01-.022 0-.044-.011-.055l-.034.022-.044-.022c-.328.69-.668 1.655-.668 2.575 0 .745.23 1.48.91 2.006l.032-.044.022-.044c-.417-.175-.866-.504-1.107-.877-.242-.383-.34-.81-.34-1.26 0-.164.01-.318.033-.482.065-.383.142-.767.186-1.15a9.53 9.53 0 0 0 .043-.8v-.109c0-.056.011-.198.011-.33 0-.087 0-.186-.01-.263 0-.044-.011-.077-.022-.11a.177.177 0 0 0-.044-.076c-.011-.01-.022-.01-.033-.01-.01 0-.022.01-.033.02-.01.012-.01.023-.01.034 0 .01.01.022.021.033l1.063.93-.01-.021Z" fill="#fff"/><path d="M21.766 15.441c-.066-.383-.143-.767-.186-1.15a8.04 8.04 0 0 1-.044-.888c0-.12-.033-.669.055-.745l-1.064.942c.592 1.26 1.25 3.375-.23 4.526.427-.175.91-.515 1.15-.91.34-.536.418-1.172.319-1.775Z" fill="#132249"/><path d="m21.766 15.441.055-.01c-.066-.384-.143-.768-.187-1.151-.021-.264-.043-.515-.043-.779v-.109c0-.066-.011-.197-.011-.329 0-.087 0-.175.01-.252 0-.033.012-.066.023-.088.01-.022.01-.033.021-.033.022-.021.022-.054 0-.065-.021-.022-.054-.022-.065 0l-1.063.942c-.022.01-.022.044-.011.055.318.69.657 1.633.657 2.52 0 .734-.23 1.436-.876 1.94-.022.01-.022.044-.011.066.01.021.044.032.066.021.438-.175.92-.525 1.183-.93.253-.395.362-.856.362-1.316 0-.164-.011-.329-.044-.493l-.066.011-.055.011c.022.153.033.318.033.482 0 .45-.099.877-.34 1.26-.241.384-.712.724-1.129.888l.022.044.033.043c.68-.525.92-1.26.92-2.016 0-.92-.35-1.874-.669-2.564l-.043.022.032.033 1.064-.943c.01-.01.01-.021.022-.032 0-.011 0-.022-.011-.033-.011-.011-.022-.011-.033-.022-.011 0-.022 0-.033.01-.022.023-.033.056-.044.077-.032.088-.032.23-.032.362 0 .142.01.274.01.329v.12c0 .264.011.526.044.79.044.394.12.767.186 1.15l.023-.01Z" fill="#fff"/><path d="m20.45 18.05.054.043a1.697 1.697 0 0 1 1.391-.087l.044-.011s.22-.603.591-.603c0 0-.492-.264-1.15-.088-.23.307-.58.581-.93.745Z" fill="#132249"/><path d="m20.449 18.05-.033.043.054.044c.011.01.033.01.055 0 .153-.088.428-.197.767-.197.175 0 .373.033.592.11h.032l.044-.012c.011 0 .022-.01.033-.032 0 0 0-.012.011-.022a1.67 1.67 0 0 1 .175-.318.586.586 0 0 1 .164-.164.327.327 0 0 1 .197-.066c.022 0 .044-.011.044-.033.01-.022 0-.044-.022-.055 0 0-.285-.153-.713-.153-.142 0-.307.022-.47.066l-.023.022c-.22.296-.57.558-.909.723l.002.043-.033.033c.01.011.033.022.054.011.351-.175.713-.438.954-.756l-.044-.033.01.044c.165-.044.308-.055.45-.055.197 0 .373.033.493.076.055.022.11.033.131.044.011.011.033.011.033.011h.01l.023-.043v-.055a.528.528 0 0 0-.285.098c-.242.186-.362.526-.362.526l.044.022-.011-.044-.044.011.01.044.023-.044a1.713 1.713 0 0 0-.625-.11 1.6 1.6 0 0 0-.811.21l.022.043.033-.044-.055-.044c-.022-.01-.055-.01-.066.012-.022.021-.01.054 0 .065l.046-.022Z" fill="#fff"/><path d="m19.464 18.082.033-.011-.011-.044a2.514 2.514 0 0 1-.899-.723 1.733 1.733 0 0 0-1.161.087c.372 0 .591.603.591.603l.044.022a1.706 1.706 0 0 1 1.403.066Z" fill="#132249"/><path d="m19.462 18.082.022.044.033-.011c.022-.011.033-.033.022-.066l-.011-.043-.022-.033c-.33-.164-.669-.417-.877-.713-.01-.01-.022-.022-.033-.022v.055l.011-.044a1.959 1.959 0 0 0-.482-.065c-.427 0-.712.153-.712.153-.022.01-.033.032-.022.054.01.022.022.033.044.033.076 0 .153.033.22.088.098.076.185.197.24.296a.715.715 0 0 1 .066.131c.011.022.011.033.011.044v.01c0 .012.011.023.022.034l.044.021c.01.011.022.011.044 0 .22-.087.427-.109.614-.109.329 0 .591.099.745.186l.021-.043v.055c.022 0 .044-.022.044-.044a.084.084 0 0 0-.022-.055 1.773 1.773 0 0 0-.8-.197c-.197 0-.416.033-.647.12l.022.045.022-.044-.044-.022-.022.044.044-.022s-.055-.153-.164-.307a1.258 1.258 0 0 0-.197-.22.428.428 0 0 0-.285-.098v.054l.022.044c.033-.01.285-.142.669-.142.13 0 .285.022.449.066h.01v-.055l-.043.033c.252.307.602.57.942.745l.022-.055-.044.022.011.044.044-.022-.022-.044-.033.011a.06.06 0 0 0-.033.055c0 .022.022.044.055.044v-.055Z" fill="#fff"/><path d="M19.42 13.6c.11-.242.22-.438.307-.603l-.438-.603-.34.745v.033l.471.416v.012Z" fill="#132249"/><path d="m19.42 13.6.044.022c.11-.23.22-.439.307-.603l.011-.033-.504-.702-.383.833v.066l.492.427.033-.033-.043-.022-.011.011-.022.077h.109l.011-.033-.044-.01.044.022.011-.011.01-.033-.481-.427v-.011h-.055l.044.021.307-.668.384.537.043-.033-.043-.022a10.87 10.87 0 0 0-.307.614l.043.01Z" fill="#fff"/><path d="m20.526 13.59.526-.46-.34-.746-.439.614v.076c.088.153.175.34.275.537l-.022-.022Z" fill="#132249"/><path d="m20.526 13.59.033.032.547-.482-.394-.855-.493.702V13.085l.01.011c.077.153.176.329.275.537l.087-.044-.01-.022-.055.022h-.055v.011l.011.033.088-.044a7.442 7.442 0 0 0-.275-.537l-.043.022h.054v-.054l.384-.526.285.636-.515.449v.022h.066v-.012Z" fill="#fff"/></g><defs><clipPath id="a"><path fill="#fff" d="M0 0h40v40H0z"/></clipPath></defs></svg>