<svg xmlns="http://www.w3.org/2000/svg" width="40" height="40" fill="none"><g clip-path="url(#a)"><rect width="40" height="40" rx="20" fill="#132249"/><g style="mix-blend-mode:luminosity"><path d="M40 20c0 11.045-8.955 20-20 20C8.954 40 0 31.045 0 20 0 8.954 8.954 0 20 0c11.045 0 20 8.954 20 20Z" fill="#781F19"/><path d="M35.439 20c0 8.525-6.91 15.435-15.435 15.435-8.524 0-15.434-6.91-15.434-15.434S11.48 4.567 20.004 4.567c8.525 0 15.435 6.91 15.435 15.434Z" fill="#C6C6C6"/><path d="M35.439 20c0 8.525-6.91 15.435-15.435 15.435-8.524 0-15.434-6.91-15.434-15.434S11.48 4.567 20.004 4.567c8.525 0 15.435 6.91 15.435 15.434Z" stroke="#fff" stroke-miterlimit="10"/><path d="m6.629 33.286 1.66-1.698.382.375-1.66 1.697-.382-.374ZM7.808 31.116 5.963 32.61l-.394-.488.366-.93c.105-.267.249-.56.388-.813l-.004-.006a9.71 9.71 0 0 1-.746.658l-.536.434-.31-.383 1.845-1.493.354.438-.393.97a8.392 8.392 0 0 1-.392.848l.009.01c.235-.212.49-.428.792-.672l.556-.45.31.383ZM5.573 28.764a1.031 1.031 0 0 0-.084-.167c-.24-.427-.631-.572-1.123-.29-.444.253-.511.625-.28 1.028.057.1.106.166.138.2l1.349-.77ZM4.16 30.19a4.309 4.309 0 0 1-.404-.6c-.226-.395-.309-.688-.27-.97.036-.305.216-.586.583-.796.394-.225.748-.237 1.029-.138.304.114.58.398.81.802.14.242.224.424.273.547l-2.02 1.155ZM2.54 27.107l2.184-.927.21.493-2.186.927-.209-.493ZM3.172 24.734l-.441.285c-.124.077-.285.168-.406.24l.003.01c.144-.009.327-.022.47-.027l.523-.004-.149-.504Zm.556.464.63-.013.158.533-2.482-.024-.198-.672 2.068-1.381.163.554-.532.348.193.655ZM3.8 23.123l-2.355.307-.08-.621.798-.602a7.46 7.46 0 0 1 .757-.49v-.006a9.881 9.881 0 0 1-.98.17l-.685.09-.064-.49 2.354-.306.073.558-.842.622c-.237.173-.517.369-.778.517l.002.014c.312-.059.643-.109 1.027-.16l.709-.091.063.488ZM1.175 18.935l2.372.099-.023.535-2.372-.099.023-.535ZM3.575 18.353l-2.345-.374.1-.62.936-.349c.269-.1.583-.189.864-.254l.002-.007a9.77 9.77 0 0 1-.987-.115l-.682-.109.078-.487 2.344.374-.09.557-.983.356c-.276.099-.6.208-.893.275l-.002.014c.316.033.647.078 1.03.14l.705.112-.077.487ZM3.547 15.577c.113-.112.25-.305.32-.524.073-.235.014-.39-.137-.437-.138-.043-.255.038-.435.28-.252.335-.538.519-.87.414-.388-.12-.578-.538-.411-1.07.08-.258.189-.427.295-.542l.374.243a1.11 1.11 0 0 0-.255.437c-.07.222.001.362.115.398.145.045.248-.06.455-.32.273-.353.54-.473.862-.371.38.118.612.508.417 1.13a1.549 1.549 0 0 1-.342.598l-.388-.236ZM3.19 12.53l-.27.582-.408-.19.766-1.655.409.189-.272.588 1.745.808-.225.485-1.745-.807ZM3.926 10.16l2.04 1.211-.272.46-2.042-1.211.274-.46ZM5.06 9.279l-.382.515-.362-.269L5.402 8.06l.362.269-.385.52 1.545 1.145-.319.43L5.06 9.28ZM6.303 7.044l.968.96c.292.29.552.323.743.13.198-.2.167-.448-.133-.746l-.968-.96.377-.38.945.938c.52.515.508 1.023.071 1.464-.421.425-.904.437-1.44-.094l-.94-.932.377-.38ZM8.713 5.471l-.512.386-.271-.36L9.386 4.4l.271.36-.517.39 1.158 1.535-.427.322-1.158-1.535ZM11.97 4.461l-.76.433.28.49.847-.484.218.383-1.313.748-1.176-2.062 1.27-.724.218.382-.805.459.245.428.758-.432.217.38ZM14.789 3.965c.345-.113.437-.502.293-.944-.132-.405-.436-.691-.788-.577-.352.114-.438.52-.3.942.138.426.45.69.792.58l.003-.001Zm.108.413c-.667.216-1.226-.161-1.435-.804-.22-.677.05-1.324.714-1.54.693-.225 1.24.171 1.443.794.242.744-.059 1.334-.719 1.548l-.003.002ZM16.152 1.535l1.428-.241.073.434-.9.152.09.535.841-.143.073.431-.84.142.158.941-.527.09-.396-2.341ZM20.016 1.605l-.641-.01.007-.451 1.824.03-.007.45-.648-.01-.031 1.923-.535-.009.03-1.923ZM23.205 2.805l-.864-.124-.08.558.965.138-.062.436-1.496-.215.337-2.35 1.447.208-.063.436-.916-.131-.07.488.864.124-.062.432ZM25.416 4.346c-.104.018-.336.01-.61-.067-.79-.225-1.056-.835-.87-1.489.221-.779.899-1.051 1.59-.855.267.076.456.188.533.261l-.224.376a1.132 1.132 0 0 0-.41-.208c-.405-.115-.794.042-.94.553-.13.458.06.823.517.952.16.046.338.063.455.05l-.041.427ZM27.41 2.666l-.38.833.804.367.38-.833.488.222-.986 2.16-.487-.223.41-.9-.804-.367-.41.9-.488-.222.986-2.16.487.223ZM28.32 5.747l1.318-1.975.521.348-.072.997a7.506 7.506 0 0 1-.13.892l.006.004a9.85 9.85 0 0 1 .516-.85l.384-.574.41.274-1.318 1.974-.469-.312.087-1.043c.026-.292.062-.632.122-.926l-.011-.008c-.162.273-.341.555-.557.878l-.396.594-.41-.273ZM31.503 7.678c.265.247.65.14.967-.2.29-.312.394-.717.123-.97-.27-.251-.667-.13-.97.194-.305.327-.386.728-.123.973l.003.003Zm-.31.294c-.512-.478-.453-1.15.009-1.645.486-.52 1.183-.596 1.693-.12.533.498.451 1.168.004 1.647-.534.572-1.195.594-1.703.12l-.003-.002ZM34.293 7.692l.335.418-1.5 1.204.591.736-.351.282-.927-1.153 1.852-1.487ZM34.466 11.337c.187.31.586.313.985.074.365-.22.576-.58.386-.897-.19-.317-.606-.31-.986-.082-.383.23-.572.594-.387.902l.002.003Zm-.378.198c-.36-.601-.119-1.231.46-1.58.61-.365 1.302-.247 1.661.351.376.625.112 1.248-.449 1.585-.67.402-1.313.242-1.67-.353l-.002-.003ZM35.798 14.829a2.664 2.664 0 0 1-.417-.688c-.16-.402-.174-.734-.061-1.013.114-.277.357-.502.681-.631.735-.288 1.366.08 1.653.803.113.285.145.526.138.653l-.444.056a1.248 1.248 0 0 0-.108-.549c-.165-.415-.526-.64-1.005-.45-.457.182-.609.575-.446.985a.822.822 0 0 0 .125.23l.466-.184-.136-.34.39-.155.326.821-1.162.462ZM35.989 16.014l.947-.218 1.197-1.046.139.6-.502.362c-.152.11-.264.19-.402.28l.001.007c.156.018.303.042.483.073l.61.105.135.587-1.524-.45-.964.221-.12-.521ZM37.387 20.675c.285-.015.627-.031.975-.037v-.007a14.891 14.891 0 0 1-.924-.252l-.93-.274-.007-.42.911-.268c.281-.082.614-.165.927-.23v-.007c-.321-.005-.688-.013-.984-.022l-.902-.032-.008-.496 2.376.113.012.715-.793.245a9.85 9.85 0 0 1-.841.215v.013c.275.06.587.136.856.212l.792.238.012.704-2.372.165-.008-.521.908-.054ZM37.193 23.178l.521-.061c.145-.015.33-.027.47-.039l.002-.01c-.133-.055-.303-.123-.433-.18l-.472-.228-.088.518Zm-.295-.661-.573-.266.093-.548 2.219 1.113-.118.691-2.464.33.097-.568.631-.079.115-.673ZM36.131 24.992a.986.986 0 0 0-.07.173c-.16.463-.01.852.527 1.034.484.164.807-.031.956-.472.037-.11.054-.19.058-.236l-1.47-.5Zm2.003.114c-.03.198-.096.447-.182.7-.146.43-.31.687-.547.845-.252.175-.582.226-.983.09-.43-.145-.673-.403-.785-.678-.116-.304-.086-.7.063-1.14.09-.263.17-.448.23-.565l2.204.748ZM35.933 27.935l-.098.188c-.123.237-.077.44.107.535.19.099.36.02.473-.2.06-.115.087-.184.096-.223l-.578-.3Zm1.148-.003c-.051.167-.15.402-.282.659-.163.313-.323.507-.523.594-.167.076-.35.069-.543-.032a.628.628 0 0 1-.323-.64l-.009-.005c-.136.116-.316.126-.537.079-.275-.06-.582-.14-.684-.141l.252-.488c.076 0 .276.036.566.111.297.079.412.023.517-.172l.074-.14-.829-.43.245-.473 2.076 1.078ZM34.027 30.429l.495.175c.136.052.307.123.439.175l.006-.009c-.096-.108-.218-.245-.309-.354l-.323-.412-.308.425Zm.028-.724-.396-.49.326-.451 1.497 1.98-.41.567-2.357-.793.339-.468.6.209.401-.554ZM32.749 31.303c-.151.05-.361.162-.52.326-.17.178-.188.343-.073.453.103.1.245.08.514-.057.375-.187.713-.223.964.02.292.28.276.739-.11 1.14-.188.194-.361.297-.507.353l-.226-.384c.096-.035.264-.113.423-.278.161-.167.16-.324.075-.407-.11-.105-.248-.058-.55.082-.402.195-.694.183-.937-.052-.287-.276-.32-.729.132-1.198a1.55 1.55 0 0 1 .573-.382l.242.384ZM31.17 34.137a.351.351 0 1 1-.701 0 .351.351 0 0 1 .702 0ZM9.53 34.137a.351.351 0 1 1-.702 0 .351.351 0 0 1 .702 0ZM11.602 29.45l5.606 1-.601.701 5.506.48-.551.45 5.433.24-7.185.712.901-.8-5.706-.581.951-.7-4.354-1.502ZM10.956 34.324l.493.29c.001-.095.014-.185.036-.272a.967.967 0 0 1 .1-.243.446.446 0 0 1 .316-.218.57.57 0 0 1 .41.074c.163.095.297.267.404.515.106.247.173.542.2.885l-.101.011a1.73 1.73 0 0 0-.187-.667 1.067 1.067 0 0 0-.402-.438.344.344 0 0 0-.31-.015.54.54 0 0 0-.275.242.708.708 0 0 0-.086.187l.194.114.036.304-.266-.156-.91 1.553-.178-.341.808-1.377-.25-.145-.032-.303Z" fill="#fff"/><path d="M12.236 35.613a1.569 1.569 0 0 1-.113.304.856.856 0 0 0 .116.19.385.385 0 0 0 .319.154.482.482 0 0 0 .188-.042l.25-.517-.734-.356a.861.861 0 0 1-.027.267Zm.064 1.525.285-.588a.176.176 0 0 1-.087-.008.824.824 0 0 1-.132-.053.534.534 0 0 1-.204-.183.927.927 0 0 1-.13-.296.732.732 0 0 1-.224.15.454.454 0 0 1-.232.037c.05.284.16.572.331.864l-.2.085c-.291-.838-.395-1.342-.312-1.514a.198.198 0 0 1 .096-.099c.04-.019.079-.02.113-.003.04.019.07.05.09.098a.383.383 0 0 1 .032.165.357.357 0 0 0 .328-.206.682.682 0 0 0 .056-.164.4.4 0 0 0 .004-.149l-.546-.264-.06-.3 2 .967.058.301-.276-.134-.785 1.62-.205-.326Z" fill="#fff"/><path d="m13.303 35.57.537.209a1.153 1.153 0 0 1-.009-.273.939.939 0 0 1 .06-.254.447.447 0 0 1 .276-.264.571.571 0 0 1 .416.01c.176.068.335.216.48.442.144.227.257.506.338.839l-.099.027a1.728 1.728 0 0 0-.288-.627 1.068 1.068 0 0 0-.465-.367.341.341 0 0 0-.307.034.533.533 0 0 0-.232.28.723.723 0 0 0-.056.198l.208.08.082.298-.286-.112-.655 1.677-.229-.309.58-1.486-.27-.106-.081-.297Z" fill="#fff"/><path d="M14.37 37.983a.166.166 0 0 0 .098.075.45.45 0 0 0 .283-.014.633.633 0 0 0 .267-.183c-.18-.054-.299-.11-.355-.17a.356.356 0 0 0-.199.046.239.239 0 0 0-.11.136.13.13 0 0 0 .016.11Zm1.693-1.474.105.29-.352-.106-.164.546-.763-.229a.208.208 0 0 0-.173.023.248.248 0 0 0-.112.147.236.236 0 0 0 .037.208.354.354 0 0 0 .199.141l.24.05a.352.352 0 0 1-.005-.052c0-.017 0-.032.005-.045.015-.05.051-.086.109-.108a.282.282 0 0 1 .189-.004c.07.022.122.066.156.135.033.068.039.14.016.216a.226.226 0 0 1-.095.123.326.326 0 0 1-.172.054l.308.603-.19.07-.163-.453a.768.768 0 0 1-.319.156.64.64 0 0 1-.325-.008.712.712 0 0 1-.338-.238c-.102-.122-.14-.222-.116-.303a.356.356 0 0 1 .085-.145.621.621 0 0 1-.297-.224c-.068-.099-.089-.196-.06-.29a.295.295 0 0 1 .08-.115c.042-.043.097-.087.165-.132l.204.318a.508.508 0 0 0-.115.068.163.163 0 0 0-.056.073c-.011.036-.002.074.028.112.03.04.072.067.127.084l.193-.07a.568.568 0 0 1-.074-.471c.028-.092.095-.157.202-.196a.542.542 0 0 1 .349-.003l.45.136.082-.272-1.477-.443-.105-.29 2.142.644Z" fill="#fff"/><path d="M16.233 36.93c.048.06.114.102.198.125l.062-.342a.202.202 0 0 0-.006-.103c-.01-.031-.027-.048-.048-.052a.214.214 0 0 0-.168.036.218.218 0 0 0-.093.145.229.229 0 0 0 .055.19Zm.645-.273.985.179.136.275-.301-.055-.321 1.77-.286-.26.095-.523-.582-.106-.036.202a.185.185 0 0 1-.057.107c-.03.027-.06.037-.093.032-.096-.018-.193-.102-.288-.252-.096-.151-.135-.278-.116-.383.005-.026.023-.047.055-.062a.17.17 0 0 1 .104-.013l.16.03.069-.382a.838.838 0 0 1-.35-.292.493.493 0 0 1-.088-.37.26.26 0 0 1 .13-.182.339.339 0 0 1 .242-.041c.121.021.23.109.326.26.097.152.134.293.11.422l-.117.643.582.106.138-.764-.38-.07-.117-.271Z" fill="#fff"/><path d="M17.377 35.832a.383.383 0 0 1 .285-.074.555.555 0 0 1 .466.387l-.068.053a.434.434 0 0 0-.113-.121.292.292 0 0 0-.133-.054.333.333 0 0 0-.255.072.337.337 0 0 0-.106.404.76.76 0 0 0 .113.195l-.089.055a.952.952 0 0 1-.202-.326.736.736 0 0 1-.043-.348c.012-.1.06-.18.145-.243ZM18.151 38.185c.049.047.11.073.183.079.1.008.21-.009.326-.05.116-.04.232-.102.347-.187a.852.852 0 0 0-.213-.212.489.489 0 0 0-.236-.087.527.527 0 0 0-.324.072c-.092.057-.141.13-.148.22a.202.202 0 0 0 .066.165Zm1.387-1.226.165.26-.306-.023-.134 1.796-.31-.229.03-.41a.989.989 0 0 1-.256.134.625.625 0 0 1-.248.035c-.152-.011-.3-.093-.445-.246-.144-.154-.211-.299-.2-.438a.385.385 0 0 1 .17-.29.54.54 0 0 1 .37-.1c.126.009.245.052.36.13a.93.93 0 0 1 .284.307l.053-.713-1.308-.098-.165-.259 1.94.144Z" fill="#fff"/><path d="m19.336 36.94.575.01a1.14 1.14 0 0 1-.103-.253.94.94 0 0 1-.032-.26.446.446 0 0 1 .167-.344.572.572 0 0 1 .393-.136c.189.003.39.085.604.248.214.163.417.386.61.67l-.083.06a1.736 1.736 0 0 0-.49-.488 1.071 1.071 0 0 0-.564-.183.345.345 0 0 0-.276.139.538.538 0 0 0-.12.345.674.674 0 0 0 .017.204l.224.004.18.249-.307-.006-.03 1.8-.322-.21.026-1.595-.29-.004-.18-.25Z" fill="#fff"/><path d="m21.938 36.86.2.233-.306.021.12 1.796-.34-.183-.06-.898-.633.042a.178.178 0 0 0-.14.087.3.3 0 0 0-.046.192.69.69 0 0 0 .13.342c.078.116.187.225.324.325l-.116.11a3.068 3.068 0 0 1-.474-.505c-.113-.16-.174-.297-.182-.414a.453.453 0 0 1 .089-.31.33.33 0 0 1 .25-.143l.777-.052-.025-.367-1.287.085-.2-.233 1.919-.128ZM23.204 37.902c.046.03.098.04.154.029a.528.528 0 0 0 .236-.12.813.813 0 0 0 .191-.239.418.418 0 0 0-.164-.118.301.301 0 0 0-.177-.02.47.47 0 0 0-.252.13c-.065.066-.09.135-.075.207.011.056.04.1.087.13Zm1.478-1.555.229.203-.961.196.11.541a.391.391 0 0 1 .273-.203c.11-.023.237.035.383.174a.851.851 0 0 1 .267.445.67.67 0 0 1 0 .242c-.014.09-.041.182-.084.277l-.31-.188a.981.981 0 0 0 .13-.272.497.497 0 0 0 .018-.238.25.25 0 0 0-.1-.157.211.211 0 0 0-.171-.038.367.367 0 0 0-.173.1.84.84 0 0 0-.16.219l.175.861-.36-.136-.09-.44a.485.485 0 0 1-.312.209c-.12.025-.255-.02-.404-.135-.148-.115-.236-.24-.264-.376a.314.314 0 0 1 .07-.265.434.434 0 0 1 .262-.157.478.478 0 0 1 .27.028.842.842 0 0 1 .272.176l-.122-.602-1.006.205-.23-.204 2.288-.465ZM24.57 38.442h.004l.001.003h-.004v-.003Z" fill="#fff"/><path d="m25.558 37.093.582-.199-.252-.735-.582.2.252.734Zm.675-1.312.254.174-.29.098.584 1.703-.377-.087-.158-.465-.582.2.066.193a.18.18 0 0 1 .003.122c-.013.038-.035.062-.066.072-.098.034-.229.006-.391-.082-.163-.088-.262-.184-.298-.287a.11.11 0 0 1 .013-.095.148.148 0 0 1 .083-.068l.174-.06-.251-.734-.407.139-.254-.174 1.898-.65ZM25.328 35.14a.386.386 0 0 1 .215-.202.557.557 0 0 1 .596.112l-.034.08a.413.413 0 0 0-.157-.051.29.29 0 0 0-.144.017.335.335 0 0 0-.19.187.337.337 0 0 0 .103.405.744.744 0 0 0 .194.116l-.052.091a.97.97 0 0 1-.334-.187.75.75 0 0 1-.206-.283.35.35 0 0 1 .01-.284Z" fill="#fff"/><path d="m28.064 34.935.27.142-.275.13.768 1.627-.384-.044-.367-.778-.519.245a.898.898 0 0 1 .3.14.588.588 0 0 1 .188.22.347.347 0 0 1 .007.284.39.39 0 0 1-.202.214c-.16.076-.36.057-.6-.058s-.47-.3-.687-.557l.093-.09c.154.182.318.312.49.391.172.08.317.09.436.035a.19.19 0 0 0 .103-.122.23.23 0 0 0-.014-.17.541.541 0 0 0-.247-.23 1.522 1.522 0 0 0-.451-.145l.962-.454-.173-.368-1.515.716-.27-.142 2.087-.986Z" fill="#fff"/><path d="m28.654 34.57.283.123-.265.153.899 1.559-.387-.014-.797-1.381-.252.145-.283-.122.802-.462ZM9.043 22.412c0 .518 1.207.782 1.522.862 1.35.346 2.755.512 4.141.608 1.285.09 2.848-.12 4.082-.442-.725-.965-1.426-1.934-1.929-3.03-4.577.3-7.816 1.22-7.816 2.002Zm14.104-2.013c-.503 1.097-1.204 2.066-1.929 3.03 1.234.323 2.797.532 4.082.443 1.386-.096 2.792-.262 4.14-.608.316-.08 1.523-.344 1.523-.862 0-.781-3.239-1.701-7.816-2.003Z" fill="#fff"/><path d="M9 21.873c0 .739 1.211 1.115 1.528 1.23 1.354.493 2.764.73 4.156.867 1.29.128 2.858-.17 4.096-.63-.727-1.378-1.43-2.76-1.935-4.325C12.25 19.445 9 20.758 9 21.873ZM23.155 19c-.504 1.565-1.208 2.948-1.935 4.325 1.238.46 2.807.758 4.096.63 1.392-.136 2.802-.373 4.156-.866.317-.115 1.528-.492 1.528-1.231 0-1.114-3.25-2.427-7.845-2.858Z" stroke="#1F1917" stroke-width="3.124" stroke-miterlimit="10"/><path d="M18.793 23.434c-.72-.96-1.415-1.941-1.915-3.034-.038-.084-.079-.167-.114-.253a9.42 9.42 0 0 1-.57-1.801c-.528-2.662.312-5.363 1.785-7.575.86-1.292 1.776-2.608 2.01-4.18h.05c.234 1.572 1.15 2.888 2.01 4.18 1.473 2.212 2.313 4.913 1.786 7.575a9.465 9.465 0 0 1-.57 1.801c-.036.085-.076.168-.114.251-.503 1.097-1.204 2.066-1.929 3.031a9.11 9.11 0 0 1-1.195-.39c-.334.14-.744.272-1.197.39 0 0-.033.009-.037.006Z" fill="#fff"/><path d="M18.793 23.434c-.72-.96-1.415-1.941-1.915-3.034-.038-.084-.079-.167-.114-.253a9.42 9.42 0 0 1-.57-1.801c-.528-2.662.312-5.363 1.785-7.575.86-1.292 1.776-2.608 2.01-4.18h.05c.234 1.572 1.15 2.888 2.01 4.18 1.473 2.212 2.313 4.913 1.786 7.575a9.465 9.465 0 0 1-.57 1.801c-.036.085-.076.168-.114.251-.503 1.097-1.204 2.066-1.929 3.031a9.11 9.11 0 0 1-1.195-.39c-.334.14-.744.272-1.197.39 0 0-.033.009-.037.006Z" stroke="#1F1917" stroke-width="3.124" stroke-miterlimit="10"/><path d="M18.788 23.441c-1.234.322-2.797.532-4.082.442-1.386-.096-2.791-.262-4.14-.608-.286-.073-1.301-.296-1.492-.721 1.047 3.838 5.543 6.725 10.932 6.725 5.388 0 9.884-2.886 10.93-6.725h-.01c-.202.419-1.202.639-1.485.711-1.349.346-2.755.512-4.14.608-1.286.09-2.849-.12-4.083-.442a9.12 9.12 0 0 1-1.195-.39c-.334.139-.744.272-1.197.39 0 0-.033.008-.037.005l-.001.005Z" fill="#781F19"/><path d="M18.553 23.791c-1.213.288-2.75.475-4.014.395-1.364-.086-2.746-.234-4.072-.542-.281-.065-1.28-.264-1.467-.644 1.03 3.425 5.45 6 10.75 6s9.721-2.575 10.75-6h-.01c-.199.374-1.182.57-1.46.635-1.327.308-2.71.456-4.073.542-1.264.08-2.8-.107-4.014-.395a9.624 9.624 0 0 1-1.176-.348 9.69 9.69 0 0 1-1.177.349s-.032.007-.036.004" stroke="#1F1917" stroke-width="3.124" stroke-miterlimit="10"/><path d="M20.2 20.218c-.085.088-.162.185-.165.264h-.011c-.003-.083-.089-.187-.18-.278v2.866h.103l.073-.03.073.03h.108v-2.852Z" fill="#BDA345"/><path d="M20.2 20.218c-.085.088-.162.185-.165.264h-.011c-.003-.083-.089-.187-.18-.278v2.866h.103l.073-.03.073.03h.108v-2.852Z" stroke="#1F1917" stroke-width="3.124" stroke-miterlimit="10"/><path d="M20.071 18.165h-.078c-.394 0-.723.284-.811.682-.115.516.12.845.471 1.177.092.087.37.307.375.458h.01c.006-.151.283-.37.375-.457.35-.333.586-.662.472-1.178-.088-.398-.418-.682-.812-.682h-.078.076Z" fill="#D9261C"/><path d="M20.071 18.165h-.078c-.394 0-.723.284-.811.682-.115.516.12.845.471 1.177.092.087.37.307.375.458h.01c.006-.151.283-.37.375-.457.35-.333.586-.662.472-1.178-.088-.398-.418-.682-.812-.682h-.078" stroke="#1F1917" stroke-width="3.124" stroke-miterlimit="10" stroke-linejoin="round"/><path d="M19.185 18.846a.868.868 0 0 1 .453-.594l.03-.047s-.98-.795-2.207.159c.059-.027.533.383.596.428.325.233.669.327 1.074.253l.032-.05c.005-.049.01-.097.022-.149Z" fill="#D9261C"/><path d="M19.185 18.846a.868.868 0 0 1 .453-.594l.03-.047s-.98-.795-2.207.159c.059-.027.533.383.596.428.325.233.669.327 1.074.253l.032-.05c.005-.049.01-.097.022-.149Z" stroke="#1F1917" stroke-width="3.124" stroke-miterlimit="10" stroke-linejoin="round"/><path d="m20.34 18.196.012.02a.864.864 0 0 1 .53.63c.016.073.024.14.027.206a1.34 1.34 0 0 0 1.03-.26c.063-.045.538-.455.596-.428-1.226-.954-2.195-.168-2.195-.168Z" fill="#D9261C"/><path d="m20.34 18.196.012.02a.864.864 0 0 1 .53.63c.016.073.024.14.027.206a1.34 1.34 0 0 0 1.03-.26c.063-.045.538-.455.596-.428-1.226-.954-2.195-.168-2.195-.168Z" stroke="#1F1917" stroke-width="3.124" stroke-miterlimit="10" stroke-linejoin="round"/><path d="M19.987 12.573s-2.521 3.85-.307 5.553h.613c2.215-1.703-.306-5.553-.306-5.553Z" fill="#D9261C"/><path d="M19.987 12.573s-2.521 3.85-.307 5.553h.613c2.215-1.703-.306-5.553-.306-5.553Z" stroke="#1F1917" stroke-width="3.124" stroke-miterlimit="10" stroke-linecap="round" stroke-linejoin="round"/><path d="m19.43 13.582-1.06-.933c.094.082.055.626.057.75.004.295-.012.59-.042.885-.038.389-.121.766-.182 1.152-.096.608-.023 1.244.313 1.771.247.388.709.722 1.132.898-1.465-1.155-.803-3.269-.217-4.523Z" fill="#D9261C"/><path d="m19.43 13.582-1.06-.933c.094.082.055.626.057.75.004.295-.012.59-.042.885-.038.389-.121.766-.182 1.152-.096.608-.023 1.244.313 1.771.247.388.709.722 1.132.898-1.465-1.155-.803-3.269-.217-4.523Z" stroke="#1F1917" stroke-width="3.124" stroke-miterlimit="10" stroke-linejoin="round"/><path d="M21.762 15.437c-.06-.385-.144-.763-.183-1.152a7.595 7.595 0 0 1-.041-.886c.002-.123-.038-.666.056-.749l-1.068.941c.587 1.259 1.246 3.375-.233 4.527.43-.174.904-.514 1.156-.91.336-.526.41-1.163.313-1.771Z" fill="#D9261C"/><path d="M21.762 15.437c-.06-.385-.144-.763-.183-1.152a7.595 7.595 0 0 1-.041-.886c.002-.123-.038-.666.056-.749l-1.068.941c.587 1.259 1.246 3.375-.233 4.527.43-.174.904-.514 1.156-.91.336-.526.41-1.163.313-1.771Z" stroke="#1F1917" stroke-width="3.124" stroke-miterlimit="10" stroke-linejoin="round"/><path d="m20.45 18.049.056.042a1.678 1.678 0 0 1 1.396-.086l.04-.013s.22-.599.594-.599c0 0-.497-.263-1.154-.086a2.63 2.63 0 0 1-.933.742Z" fill="#D9261C"/><path d="m20.45 18.049.056.042a1.678 1.678 0 0 1 1.396-.086l.04-.013s.22-.599.594-.599c0 0-.497-.263-1.154-.086a2.63 2.63 0 0 1-.933.742Z" stroke="#1F1917" stroke-width="3.124" stroke-miterlimit="10" stroke-linejoin="round"/><path d="m19.473 18.084.034-.015-.015-.038a2.616 2.616 0 0 1-.897-.723h-.003c-.66-.18-1.158.085-1.158.085.374 0 .593.598.593.598l.047.023a1.694 1.694 0 0 1 1.4.07Z" fill="#D9261C"/><path d="m19.473 18.084.034-.015-.015-.038a2.616 2.616 0 0 1-.897-.723h-.003c-.66-.18-1.158.085-1.158.085.374 0 .593.598.593.598l.047.023a1.694 1.694 0 0 1 1.4.07Z" stroke="#1F1917" stroke-width="3.124" stroke-miterlimit="10" stroke-linejoin="round"/><path d="M19.425 13.596c.11-.236.218-.442.308-.606l-.435-.604-.341.75v.03l.474.418-.006.012Z" fill="#D9261C"/><path d="M19.425 13.596c.11-.236.218-.442.308-.606l-.435-.604-.341.75v.03l.474.418-.006.012Z" stroke="#1F1917" stroke-width="3.124" stroke-miterlimit="10"/><path d="m20.534 13.59.521-.46-.339-.745-.443.613v.072c.083.153.176.336.27.54-.002-.007-.006-.014-.009-.02Z" fill="#D9261C"/><path d="m20.534 13.59.521-.46-.339-.745-.443.613v.072c.083.153.176.336.27.54-.002-.007-.006-.014-.009-.02Z" stroke="#1F1917" stroke-width="3.124" stroke-miterlimit="10"/></g></g><defs><clipPath id="a"><rect width="40" height="40" rx="20" fill="#fff"/></clipPath></defs></svg>