<svg xmlns="http://www.w3.org/2000/svg" width="40" height="40" fill="none"><path d="M18.927.025a23.903 23.903 0 0 0-.943.067 4.531 4.531 0 0 0-.321.033l-.297.039c-.198.022-.825.122-1.028.163-.07.014-.2.038-.29.052-.088.016-.327.07-.532.12l-.636.156c-.146.035-.345.09-.444.123a20.78 20.78 0 0 0-.996.323c-.557.19-1.153.42-1.34.516-.04.02-.139.063-.218.095-.369.147-1.673.815-1.95.997a8.44 8.44 0 0 1-.226.138 9.19 9.19 0 0 0-.249.15c-.052.033-.167.103-.253.154a5.252 5.252 0 0 0-.285.19c-.07.052-.204.144-.298.204A19.987 19.987 0 0 0 6.348 5.38a20.442 20.442 0 0 0-2.159 2.366 33.905 33.905 0 0 0-.878 1.22c-.1.156-.257.402-.458.725a8.277 8.277 0 0 0-.206.355c-.059.107-.134.242-.167.295a7.12 7.12 0 0 0-.167.31l-.168.321c-.103.19-.468.97-.564 1.21-.05.127-.117.288-.148.36-.063.145-.156.39-.25.664a8.152 8.152 0 0 1-.107.29c-.044.108-.06.162-.209.656l-.128.428c-.03.1-.075.26-.096.354-.022.094-.066.268-.097.388-.077.29-.174.765-.237 1.146-.029.172-.06.35-.07.394a2.33 2.33 0 0 0-.033.22 18.964 18.964 0 0 0-.102.867 20.335 20.335 0 0 0 .07 4.719c.01.062.024.173.032.25.007.076.023.176.033.223.01.047.039.209.063.361.055.348.168.887.25 1.203.035.134.08.307.097.387.018.08.057.218.084.31l.12.4c.152.511.179.595.223.703.024.062.073.192.106.29.095.273.188.518.25.663.032.072.097.231.147.355.102.255.336.763.48 1.044.052.105.156.31.23.454.074.144.158.298.185.341.027.044.11.188.183.322.133.24.254.435.588.953.182.284.803 1.157.944 1.327.048.058.16.201.252.317.154.198.357.438.667.786.18.202.777.836.789.836.006 0 .102.09.216.2.111.11.25.241.307.292l.242.223c.147.135.403.352.757.645.292.24 1.013.779 1.23.92.1.064.218.145.26.178.093.071.241.167.445.288.081.047.192.114.245.147.442.275.5.308 1.04.596.345.182 1.063.534 1.34.654.428.188 1.002.407 1.526.585a20.535 20.535 0 0 0 .886.285c.148.053.527.158.734.204.101.022.315.072.474.111a8.695 8.695 0 0 0 .739.151 19.836 19.836 0 0 0 1.24.191c.118.02.321.04.514.053A22.979 22.979 0 0 0 20 40a22.979 22.979 0 0 0 1.908-.085c.193-.012.396-.033.514-.053a20.327 20.327 0 0 0 1.24-.19c.07-.014.212-.04.315-.058a5.48 5.48 0 0 0 .366-.08c.099-.027.298-.074.445-.107.273-.06.652-.163.82-.222a20.535 20.535 0 0 0 .887-.285 20.318 20.318 0 0 0 1.527-.585c.276-.12.994-.472 1.339-.654.54-.288.598-.321 1.04-.596.053-.033.164-.1.245-.147.204-.12.352-.217.444-.288.043-.032.16-.114.261-.178a20 20 0 0 0 1.986-1.565l.2-.182c.114-.101.561-.53.72-.691.19-.196.598-.633.728-.782l.235-.27c.08-.09.225-.267.325-.394.099-.126.218-.277.266-.335.141-.172.762-1.043.944-1.327.334-.518.455-.713.588-.953.073-.134.156-.278.183-.322.027-.043.11-.197.184-.341.075-.145.179-.349.231-.454.166-.326.385-.807.518-1.143.293-.735.345-.865.372-.953.015-.051.053-.154.083-.23.054-.132.08-.215.233-.729l.12-.4c.027-.091.066-.23.084-.31.018-.08.062-.253.096-.387.083-.316.196-.855.25-1.203.025-.152.054-.314.064-.361.01-.047.025-.147.033-.224a21.576 21.576 0 0 0 .103-.867 20.34 20.34 0 0 0-.001-4.1 18.982 18.982 0 0 0-.102-.867 2.35 2.35 0 0 0-.033-.22 16.432 16.432 0 0 1-.07-.395c-.063-.381-.16-.856-.237-1.146a22.16 22.16 0 0 1-.097-.388 6.544 6.544 0 0 0-.096-.354l-.129-.428c-.147-.495-.164-.548-.218-.683a25.724 25.724 0 0 0-.472-1.229 21.23 21.23 0 0 0-.587-1.268c-.033-.062-.109-.206-.168-.322a7.011 7.011 0 0 0-.167-.309 9.129 9.129 0 0 1-.167-.295 8.224 8.224 0 0 0-.206-.355 55.672 55.672 0 0 0-.458-.724 33.93 33.93 0 0 0-.878-1.22 21.85 21.85 0 0 1-.252-.319 14.832 14.832 0 0 0-.673-.788 19.69 19.69 0 0 0-.769-.815 11.494 11.494 0 0 1-.265-.254 8.851 8.851 0 0 0-.277-.263c-.06-.052-.178-.16-.263-.237-.474-.434-1.49-1.236-1.933-1.525a6.6 6.6 0 0 1-.298-.205c-.07-.051-.199-.137-.285-.19-.086-.05-.2-.12-.253-.153a9.242 9.242 0 0 0-.25-.15 8.402 8.402 0 0 1-.224-.138c-.278-.182-1.582-.85-1.95-.997a3.732 3.732 0 0 1-.22-.095c-.186-.096-.782-.326-1.34-.516a20.78 20.78 0 0 0-1.445-.448l-.456-.11a22.446 22.446 0 0 1-.34-.085 6.718 6.718 0 0 0-.408-.085 21.67 21.67 0 0 0-1.571-.248 6.654 6.654 0 0 0-.418-.041 17.272 17.272 0 0 0-.876-.06 22.758 22.758 0 0 0-2.118 0ZM21.14.53a23.371 23.371 0 0 1 1.706.177c.171.018.575.084.726.118a15.44 15.44 0 0 1 1.279.284c.117.033.281.076.366.097.085.021.189.05.231.066.043.015.2.062.347.105a14.406 14.406 0 0 1 1.304.459c.897.335 2.123.945 3.116 1.55.127.075.688.446.887.584.306.21.435.306.713.52.58.45.872.692 1.215 1.007.071.064.2.183.29.263.19.172.85.837 1.025 1.031l.31.355.301.347c.301.343.84 1.05 1.075 1.409a5.3 5.3 0 0 0 .198.288c.099.131.192.274.257.394.027.05.086.148.13.217.138.216.387.638.443.751.03.06.104.201.165.313.16.29.52 1.029.63 1.295l.148.354a15.74 15.74 0 0 1 .655 1.82c.12.383.311 1.12.423 1.638.141.648.297 1.724.348 2.403l.032.394a21.6 21.6 0 0 1 0 2.458l-.026.328c-.05.688-.209 1.8-.348 2.445a22.088 22.088 0 0 1-.538 2.015c-.131.432-.276.817-.646 1.71a14.44 14.44 0 0 1-.598 1.262c-.046.082-.131.243-.189.355-.098.19-.383.678-.52.887a3.02 3.02 0 0 0-.11.183 3.172 3.172 0 0 1-.256.395 6.169 6.169 0 0 0-.2.289c-.124.192-.31.447-.628.86-.198.26-.262.34-.445.547l-.301.347c-.103.118-.242.279-.31.355-.175.194-.835.86-1.026 1.032l-.289.262a20.828 20.828 0 0 1-1.69 1.362l-.219.152c-.117.082-.73.488-.842.559-.511.32-1.553.886-1.978 1.075l-.302.138c-.223.103-.622.27-.868.364-.113.042-.249.094-.302.117-.182.077-.764.276-1.034.353a9.1 9.1 0 0 0-.366.112c-.221.079-1.284.338-1.62.394a4.52 4.52 0 0 0-.237.046c-.151.034-.555.1-.726.118a22.995 22.995 0 0 1-1.722.179c-.524.032-1.72.032-2.248 0a23.38 23.38 0 0 1-1.722-.179 9.646 9.646 0 0 1-.726-.118 4.276 4.276 0 0 0-.238-.046c-.335-.056-1.398-.315-1.619-.394a8.516 8.516 0 0 0-.366-.112c-.27-.077-.852-.276-1.034-.353a9.995 9.995 0 0 0-.302-.117 15.84 15.84 0 0 1-.868-.364 75.08 75.08 0 0 0-.302-.138c-.425-.19-1.467-.755-1.978-1.075a57.518 57.518 0 0 1-.842-.559l-.218-.152A19.977 19.977 0 0 1 5.205 32.7a4.552 4.552 0 0 0-.174-.21 7.914 7.914 0 0 1-.432-.532 14.667 14.667 0 0 1-.628-.861 6.133 6.133 0 0 0-.2-.29 3.165 3.165 0 0 1-.257-.393 3.006 3.006 0 0 0-.109-.184 14.068 14.068 0 0 1-.52-.887 15.936 15.936 0 0 0-.19-.355c-.164-.295-.43-.86-.597-1.262-.5-1.206-.656-1.663-.972-2.825-.25-.923-.485-2.32-.56-3.345l-.026-.328a21.569 21.569 0 0 1 0-2.457l.032-.395c.036-.473.083-.863.18-1.469.167-1.043.31-1.653.68-2.86.14-.46.32-.947.566-1.532l.148-.354c.11-.266.47-1.006.63-1.295.061-.112.136-.252.165-.313.056-.113.305-.535.444-.751.043-.069.102-.167.13-.217.064-.12.157-.263.256-.394.044-.058.134-.187.198-.288.232-.352.78-1.075 1.063-1.394.056-.066.128-.152.158-.191.185-.244 1.133-1.234 1.49-1.557.09-.08.219-.199.29-.263a19.431 19.431 0 0 1 1.69-1.362c.265-.185.301-.21.65-.441.398-.267.49-.323 1.034-.635a19.312 19.312 0 0 1 2.846-1.336c.155-.067.754-.27 1.015-.346.149-.043.304-.09.347-.105.042-.016.146-.045.231-.066.085-.02.25-.064.366-.097a15.44 15.44 0 0 1 1.279-.284c.151-.034.555-.1.726-.118.074-.008.184-.022.244-.033.383-.066 1.467-.155 2.043-.17a34.72 34.72 0 0 1 1.699.026Z" fill="#fff"/><path d="M19.605 1.335a.618.618 0 0 0-.126.082.377.377 0 0 0-.12.157c-.044.092-.047.107-.048.224 0 .105.005.134.03.18.023.046.025.056.008.056l-.78.053c-.418.029-.777.05-.795.046-.027-.007-.834.125-.965.156-.02.006-.02.003-.001-.026.03-.047.026-.154-.008-.188a.11.11 0 0 1-.027-.038c0-.017-.316-.167-.405-.192a1.449 1.449 0 0 0-.559-.1c-.303 0-.485.073-.609.24a.396.396 0 0 0-.09.28c0 .124.03.22.093.295l.042.051-.078.017c-.055.01-.077.023-.077.037 0 .016-.034.03-.132.054l-.133.033-.032-.046a1.447 1.447 0 0 0-.303-.296c-.031-.013-.055-.03-.055-.035 0-.032-.24-.122-.405-.153-.206-.036-.246-.036-.302.002-.037.025-.053.046-.06.08-.01.056.021.147.065.189.033.032.139.053.271.054a.61.61 0 0 1 .2.045c.1.034.144.059.236.132.078.062.108.092.095.099a.445.445 0 0 1-.163.034c-.007-.004-.394.138-.859.315-.465.178-.86.325-.877.328-.018.002-.09.031-.16.064l-.13.06-.038-.046a2.067 2.067 0 0 0-.405-.308.817.817 0 0 0-.41-.096l-.154-.003-.045.045c-.051.051-.059.098-.026.157.031.054.058.066.196.087.255.038.459.115.58.217l.033.028-.052-.021a1.696 1.696 0 0 0-.507-.14 1.3 1.3 0 0 0-.47.032c-.097.023-.121.035-.162.077-.081.083-.062.166.056.242l.052.033.13-.037c.121-.034.147-.037.362-.037.235 0 .353.012.353.035 0 .013-1.338.7-1.39.713l-.035.008.06.116c.031.063.062.12.067.125.007.006.063-.012.127-.041l.117-.054.131.259c.115.224.142.27.216.344.11.113.218.162.361.163.084.001.098.004.088.021a7.03 7.03 0 0 1-.15.217l-.14.197.18.01c.165.011.18.01.201-.013a3.87 3.87 0 0 0 .167-.266l.162-.268c.015-.023.022-.015.07.086l.055.112.149-.068c.108-.049.149-.074.147-.09 0-.013-.14-.29-.312-.619-.17-.328-.31-.6-.31-.605 0-.004.06-.039.134-.074.084-.04.133-.072.129-.082-.007-.02.11-.068.124-.052.005.006.12.259.256.561.26.582.305.678.316.678.004 0 .067-.026.139-.059.073-.033.14-.06.148-.06.009 0 .003-.022-.013-.056a28 28 0 0 1-.53-1.218c.022-.02.194-.088.51-.204l.33-.122.017.042c.01.023.016.045.013.049a.19.19 0 0 1-.06.024.755.755 0 0 0-.237.144.433.433 0 0 0-.105.21c-.009.056-.005.08.02.142a.28.28 0 0 0 .156.167c.051.024.054.028.046.066a.294.294 0 0 0 .02.186.475.475 0 0 0 .17.184l.067.033a.458.458 0 0 0 .161.019.576.576 0 0 0 .243-.044c.067-.023.144-.055.173-.07.074-.037.234-.162.264-.204l.024-.034.03.081c.025.07.032.08.055.072l.158-.056.131-.048-.017-.032c-.018-.036-.467-1.2-.478-1.237-.004-.016.018-.03.095-.058a.867.867 0 0 1 .133-.04c.018 0 .08-.015.14-.03a.442.442 0 0 1 .113-.023c.002.003.078.27.166.595.088.323.168.62.18.657.021.083.019.083.204.036.133-.034.135-.036.126-.07l-.179-.671a18.64 18.64 0 0 1-.166-.642c.003-.002.067-.02.143-.038.103-.025.139-.04.143-.056.004-.016.023-.027.058-.032.028-.005.055-.006.057-.002.004.003.075.302.157.663.084.362.154.662.16.668a.362.362 0 0 0 .115-.013c.173-.037.202-.048.202-.074 0-.013-.07-.315-.154-.672l-.155-.65c0-.008.179-.045.444-.09.149-.027.282-.05.298-.055.037-.009.142.098.2.205a.872.872 0 0 1 .095.387c.007.131.007.131-.032.177-.036.044-.042.046-.12.046-.094 0-.143-.027-.165-.093-.028-.083.028-.137.145-.137.028 0 .035-.005.03-.023a.677.677 0 0 1-.014-.088c-.016-.121-.034-.204-.047-.204-.007 0-.072.025-.142.055-.161.068-.25.149-.286.258-.061.19.052.423.256.521.067.033.093.038.193.038a.4.4 0 0 0 .225-.048c.1-.046.14-.076.217-.174.076-.094.095-.361.041-.571a1.124 1.124 0 0 0-.17-.36c-.03-.035-.037-.053-.025-.06.016-.011.32-.059.329-.05.002.002.054.296.115.654.06.357.113.66.117.674.005.014.016.02.028.017.012-.004.075-.013.138-.021.158-.02.176-.025.167-.051a94.058 94.058 0 0 1-.238-1.325c0-.017.237-.06.242-.043.002.006.02.009.038.005.047-.008.92-.057.927-.051.006.007.028.336.023.352-.003.008-.026-.044-.053-.113l-.049-.128h-.078a.736.736 0 0 0-.428.128.355.355 0 0 0-.123.146c-.138.26-.06.544.182.682a.647.647 0 0 0 .351.07c.105 0 .135-.006.188-.032l.061-.033.01.06c.003.033.007.091.007.128 0 .104 0 .104.179.093.146-.01.155-.012.155-.038 0-.014-.014-.205-.032-.422l-.032-.394.03-.024c.119-.096.316-.114.393-.034.069.071.073.247.005.31-.06.06-.107.074-.212.073-.117-.003-.11-.018-.086.186l.015.122.076.01a.735.735 0 0 0 .33-.071.875.875 0 0 0 .204-.205.544.544 0 0 0 .057-.27.382.382 0 0 0-.044-.21.517.517 0 0 0-.344-.3 1.212 1.212 0 0 0-.197-.014.42.42 0 0 0-.187.026.312.312 0 0 1-.06.024.604.604 0 0 1-.008-.079l-.007-.076.04-.005c.022-.004.179-.016.348-.028.17-.012.34-.024.377-.028.056-.006.066-.005.066.013 0 .019.02.021.13.021h.13l-.008.299-.015.69-.008.391h.05c.029 0 .104.004.167.008l.117.01.008-.407.015-.69.008-.286.15-.004.15-.004.003-.142.004-.14h-.333l-.019-.077c-.08-.303-.241-.524-.452-.617-.102-.045-.305-.056-.387-.019Zm.271.3c.085.033.255.26.282.378l.009.038-.06-.009a1.12 1.12 0 0 0-.104-.008c-.032 0-.043-.005-.043-.02 0-.02-.014-.022-.129-.012-.126.007-.128.007-.128-.02a.162.162 0 0 0-.035-.074.297.297 0 0 1-.038-.205c.01-.04.092-.088.15-.09a.31.31 0 0 1 .096.022Zm-3.835.436c.018.008.08.03.141.049.12.037.386.161.386.18 0 .005.012.01.03.012.026.001.026.001-.005.011-.018.007-.196.04-.398.074a5.537 5.537 0 0 0-.373.071.447.447 0 0 1-.109.029c-.1.021-.123.018-.166-.017a1.727 1.727 0 0 0-.051-.04.21.21 0 0 1-.072-.17c0-.095.058-.171.155-.204.066-.021.408-.018.462.005Zm2.725.75a.997.997 0 0 1 .017.148l.008.139-.056.04a.374.374 0 0 1-.244.061c-.08-.01-.16-.056-.178-.104-.035-.084-.013-.195.046-.243.077-.06.099-.065.252-.059.08.004.15.012.155.017Zm-4.7.995.12.305-.034.057a.541.541 0 0 1-.079.097c-.145.133-.21.17-.36.209-.072.018-.09.018-.134.004-.039-.015-.052-.026-.054-.053-.005-.04.03-.113.059-.123a.151.151 0 0 0 .041-.025c.023-.019.207-.076.312-.097.054-.011.072-.02.063-.03a8.202 8.202 0 0 0-.191-.258c-.013-.019-.212.048-.314.105-.13.072-.191.083-.191.034 0-.02.017-.04.055-.063.06-.037.271-.117.378-.143l.068-.016-.018-.034a4.117 4.117 0 0 1-.136-.351c0-.008.05-.032.113-.054l.112-.04.034.086.156.39Zm-2.42.86c.077.159.142.298.142.309 0 .034-.07.122-.122.153-.124.074-.198.082-.268.027-.048-.039-.052-.044-.213-.36l-.105-.207.203-.105c.112-.058.207-.105.212-.105.006-.001.073.129.151.288ZM24.182 1.862c-.186.068-.225.29-.07.402.11.08.228.07.326-.03a.245.245 0 0 0 .042-.226.262.262 0 0 0-.16-.15c-.074-.024-.062-.024-.138.004ZM22.353 2.268l-.025.135c-.007.033-.01.06-.007.063.003.003.13.032.283.063.274.057.28.06.34.11.072.062.129.167.129.236-.001.072-.05.161-.103.188-.099.05-.285.02-.456-.074l-.11-.06v.042c0 .023-.01.094-.022.157l-.023.115.084.03.084.03-.004.134c-.01.285.096.446.35.531.125.042.295.066.4.055l.078-.006.021-.134c.03-.174.03-.21 0-.199a.536.536 0 0 1-.22.05.838.838 0 0 1-.148-.047c-.133-.054-.164-.093-.173-.22l-.006-.09.045.006c.05.01.214-.033.293-.073a.476.476 0 0 0 .095-.074l.044-.046-.012.05c-.027.118-.033.112.171.146.1.016.184.031.188.034.005.007-.094.605-.108.654-.005.019.001.024.03.024.018 0 .079.012.132.026.123.033.167.035.167.004 0-.027.232-1.322.239-1.33a.467.467 0 0 1 .09.011c.159.028.16.028.152.054-.008.029-.028.02.277.105l.25.071.063.066c.137.142.15.297.04.402-.032.03-.044.033-.16.031-.138 0-.188-.02-.333-.125a.438.438 0 0 0-.079-.05c-.014 0-.049.089-.07.18-.01.044-.023.09-.027.1-.006.015.016.032.077.064.083.042.085.043.076.082a1.177 1.177 0 0 0-.01.171c.003.262.102.4.349.485a.946.946 0 0 0 .146.04c.031.005.07.014.089.02a.552.552 0 0 0 .112.016c.065.006.082.002.087-.014.012-.04.057-.309.053-.314a.178.178 0 0 0-.058.01.412.412 0 0 1-.364-.07c-.077-.052-.113-.112-.113-.19 0-.101 0-.101.139-.102.11 0 .134-.006.195-.037a.704.704 0 0 0 .095-.06c.024-.02.025-.02.016.019-.005.021-.012.049-.016.06-.005.018.022.03.14.062.079.023.16.045.178.049.033.008.033.01.04.162.007.141.01.16.048.23.071.13.234.25.435.32.086.029.122.033.28.036h.18l-.077.17c-.05.113-.071.173-.06.177.007.002.073.034.144.07.121.06.133.064.148.043.008-.012.138-.299.288-.636l.272-.615.098.046c.054.026.12.052.15.06a.79.79 0 0 1 .093.03l.042.019-.077.148c-.398.766-.554 1.068-.55 1.078a.906.906 0 0 0 .145.086l.144.077.029-.06c.032-.07.592-1.163.6-1.172.009-.01.254.122.74.402l.496.288a.607.607 0 0 1-.093.164c-.006 0-.124-.065-.264-.144a3.53 3.53 0 0 0-.318-.166 1.767 1.767 0 0 1-.106-.04c-.066-.03-.223-.018-.306.026a.527.527 0 0 0-.259.406c-.01.172.065.3.236.406.138.085.208.109.307.1a.388.388 0 0 0 .36-.309.21.21 0 0 0 .01-.084 5.51 5.51 0 0 0-.33-.181.464.464 0 0 0 .002.092c.007.084.005.095-.022.124-.037.041-.056.041-.136 0-.103-.052-.123-.131-.055-.218.032-.042.047-.051.086-.051.024 0 .067.008.091.016.035.013.52.276.539.293 0 .001-.093.17-.21.374-.117.205-.212.376-.212.38 0 .015.264.171.272.162.004-.005.16-.267.345-.581.186-.314.344-.578.352-.587.01-.012.041-.002.13.05.064.036.124.068.135.07.023.004.15-.226.133-.243a55.399 55.399 0 0 0-.801-.462c-.854-.486-1.51-.83-1.528-.8-.01.013-.088-.019-.345-.136a11.163 11.163 0 0 0-.341-.152.46.46 0 0 0-.058.1l-.05.102-.01-.053a.418.418 0 0 0-.13-.208.57.57 0 0 0-.507-.125c-.064.017-.176.097-.187.134-.004.013-.013.023-.02.023-.016 0-.078.142-.069.158.004.007.07.036.145.066l.138.055.019-.032c.04-.063.1-.115.134-.115.037 0 .11.034.126.058.005.007.01.04.01.072 0 .047-.008.064-.044.101-.038.04-.051.045-.113.045a1.1 1.1 0 0 1-.376-.124c-.071-.04-.081-.04-.117-.016-.023.018-.044.015-.184-.02-.131-.035-.156-.044-.148-.062a.75.75 0 0 0 .044-.192.572.572 0 0 0-.018-.112.292.292 0 0 1-.014-.076c.001-.003.083.017.18.042a.762.762 0 0 0 .19.035.97.97 0 0 0 .059-.278c-.008-.004-.3-.083-.652-.175l-.66-.173c-.014-.004-.023-.02-.023-.039 0-.015-.01-.034-.02-.038-.012-.005-.471-.085-1.02-.178a47.83 47.83 0 0 1-1.02-.18c-.015-.004-.023.01-.035.07Zm1.218.432.206.038c.005.005-.062.378-.068.386a1.271 1.271 0 0 1-.165-.023 4.668 4.668 0 0 0-.166-.028c-.004 0 0-.025.006-.056a.56.56 0 0 0-.028-.305c-.035-.057-.047-.057.215-.012Zm3.263 1.033.066.026-.057.128c-.032.07-.085.186-.117.26l-.06.132-.103.05c-.1.05-.11.05-.24.05a.443.443 0 0 1-.218-.035c-.12-.051-.212-.12-.242-.179-.017-.03-.02-.129-.003-.138.005-.004.041.005.08.019.084.032.289.057.371.046a.47.47 0 0 0 .244-.141.489.489 0 0 0 .11-.238l.008-.047.048.02.113.047ZM19.416 5.092a15.858 15.858 0 0 0-1.023.077 14.972 14.972 0 0 0-1.11.164 14.77 14.77 0 0 0-2.463.682c-.815.313-.745.283-1.529.665-.374.183-1.061.573-1.237.703a2.538 2.538 0 0 1-.148.099c-.122.072-.58.385-.72.494-.08.06-.236.181-.348.267-.112.087-.253.198-.313.25-.3.253-.756.66-.893.794-.29.283-.955 1-1.058 1.137a17.94 17.94 0 0 0-1.158 1.589l-.173.279a8.43 8.43 0 0 0-.2.339l-.198.361a19.561 19.561 0 0 0-.554 1.152c-.013.036-.035.09-.049.119a8.26 8.26 0 0 0-.129.315c-.326.846-.64 1.952-.773 2.727a23.732 23.732 0 0 0-.174 1.268c-.007.05-.024.26-.038.466-.048.688-.028 1.897.037 2.386a16.226 16.226 0 0 0 .29 1.84c.092.402.277 1.059.425 1.51a15.268 15.268 0 0 0 .424 1.111c.02.072.402.874.506 1.06.06.111.152.275.2.367.05.09.15.263.225.381l.205.333a20.92 20.92 0 0 0 1.137 1.55c.106.141.767.852 1.053 1.13.085.085.315.292.51.462.472.412.464.407.698.586l.347.267c.148.114.56.397.726.496.053.032.117.075.141.095.062.05.541.336.696.415a9.531 9.531 0 0 0 .617.322l.5.243c.11.054.24.113.29.132l.584.224c.509.196.937.334 1.471.475a16.383 16.383 0 0 0 1.26.273c.198.046 1.01.147 1.497.187.395.031 1.683.031 2.088 0 .48-.038 1.301-.14 1.502-.187a16.397 16.397 0 0 0 1.26-.273c.392-.103.948-.273 1.163-.355l.585-.225c.22-.084.488-.197.597-.25l.501-.244a9.531 9.531 0 0 0 .617-.322c.154-.079.633-.365.695-.415.025-.02.089-.063.141-.095a11.702 11.702 0 0 0 1.073-.763c.234-.179.227-.174.7-.586.194-.17.424-.377.508-.461a20.25 20.25 0 0 0 1.03-1.107l.168-.204c.279-.339.867-1.159 1.032-1.435.036-.061.116-.192.178-.289.11-.176.2-.332.39-.69.14-.26.477-.959.529-1.094.023-.063.066-.165.094-.226.056-.127.258-.667.33-.887.148-.452.333-1.11.425-1.512a16.247 16.247 0 0 0 .29-1.84c.065-.488.084-1.697.037-2.384a10.57 10.57 0 0 0-.06-.664c-.009-.12-.106-.806-.152-1.071-.133-.774-.448-1.88-.774-2.727a7.693 7.693 0 0 0-.177-.432c-.041-.112-.34-.75-.424-.902-.038-.068-.11-.205-.16-.302a9.446 9.446 0 0 0-.38-.67c-.058-.09-.13-.208-.162-.259a18.03 18.03 0 0 0-1.245-1.693 8.619 8.619 0 0 1-.257-.282c-.375-.422-.76-.806-1.144-1.142-.474-.417-.538-.47-.776-.653l-.346-.267a13.09 13.09 0 0 0-.721-.494 3.073 3.073 0 0 1-.148-.099c-.176-.13-.864-.52-1.238-.703-.093-.044-.296-.144-.452-.22a8.783 8.783 0 0 0-.565-.246l-.598-.23a14.77 14.77 0 0 0-2.564-.683c-.086-.022-.77-.119-.918-.132-.052-.004-.142-.014-.199-.021-.292-.035-.668-.053-1.266-.056-.35-.003-.69-.003-.758 0Zm1.622.537c.25.018.495.038.543.045.05.008.134.017.187.02.108.01.706.098.72.106a18.356 18.356 0 0 1 1.574.367c.148.045.378.118.512.158.134.041.312.104.398.138.085.036.22.086.297.112.079.026.185.07.238.095.052.025.16.072.238.105.32.134.839.386 1.143.557l.359.199c.143.078.334.195.646.399.136.088.34.23.46.32.064.048.173.127.244.174.07.047.221.163.334.256.113.094.252.205.308.25.057.043.147.12.2.168.052.049.16.145.24.212.167.144.591.56.802.787.655.707 1.283 1.51 1.666 2.129a15.478 15.478 0 0 1 .57.974c.06.093.422.842.521 1.076.13.302.322.782.338.848.008.03.035.107.06.174.169.454.47 1.597.55 2.099.012.068.026.146.033.17a11.22 11.22 0 0 1 .115.861c.008.05.028.303.046.559.05.67.05 1.37 0 2.037a17.526 17.526 0 0 1-.065.723 12.632 12.632 0 0 1-.337 1.806 18.472 18.472 0 0 1-.402 1.324c0 .018-.214.568-.25.641a15.29 15.29 0 0 1-.572 1.222 17.441 17.441 0 0 1-.835 1.38c-.23.33-.446.626-.527.724a27.92 27.92 0 0 0-.18.217 4.934 4.934 0 0 0-.16.202 3.56 3.56 0 0 1-.2.23 13.003 13.003 0 0 1-1.22 1.234c-.06.052-.15.132-.2.178-.048.046-.136.12-.192.163-.057.044-.193.155-.304.245-.223.184-.36.284-.917.67a10.517 10.517 0 0 1-.956.584c-.027.017-.1.058-.163.09a7.82 7.82 0 0 0-.255.14 3.77 3.77 0 0 1-.282.14c-.079.034-.198.09-.265.124a4.97 4.97 0 0 1-.27.125c-.08.034-.21.09-.284.126a4.154 4.154 0 0 1-.289.116 4.647 4.647 0 0 0-.297.111c-.127.052-.889.296-1.14.364a17.12 17.12 0 0 1-.993.23 12.209 12.209 0 0 1-1.244.19c-.042.006-.29.027-.552.047-.68.051-1.35.051-2.03 0a16.772 16.772 0 0 1-.733-.067 12.209 12.209 0 0 1-1.381-.237c-.285-.043-1.496-.395-1.818-.528a4.293 4.293 0 0 0-.294-.11 3.654 3.654 0 0 1-.296-.12 5.623 5.623 0 0 0-.257-.111 3.364 3.364 0 0 1-.267-.124 5.136 5.136 0 0 0-.264-.125 5.796 5.796 0 0 1-.556-.284 25.504 25.504 0 0 0-.514-.293 10.92 10.92 0 0 1-.874-.571 9.377 9.377 0 0 1-.654-.487l-.303-.245a3.019 3.019 0 0 1-.193-.163 7.987 7.987 0 0 0-.199-.178 11.792 11.792 0 0 1-.984-.97c-.07-.081-.181-.205-.25-.277a2.96 2.96 0 0 1-.186-.217 3.778 3.778 0 0 0-.141-.178 9.144 9.144 0 0 1-.463-.59 9.658 9.658 0 0 1-.51-.753c-.28-.454-.394-.646-.478-.805a4.153 4.153 0 0 0-.11-.197c-.03-.042-.34-.68-.435-.887-.08-.179-.388-.951-.388-.975a18.527 18.527 0 0 1-.402-1.325 15.221 15.221 0 0 1-.235-1.09 12.55 12.55 0 0 1-.12-.894 17.65 17.65 0 0 1-.047-.545 14.182 14.182 0 0 1 0-2.037 14.236 14.236 0 0 1 .162-1.42c.006-.024.02-.102.032-.17.081-.502.382-1.645.551-2.099a16.944 16.944 0 0 1 .423-1.088c.094-.211.452-.942.495-1.01a19.657 19.657 0 0 1 .79-1.315c.538-.808 1.606-2.025 2.283-2.604.06-.051.153-.134.206-.183a3.5 3.5 0 0 1 .199-.168 23 23 0 0 0 .308-.25c.114-.093.27-.213.347-.265.079-.054.21-.146.292-.206.308-.224.392-.28.587-.403.582-.364 1.445-.822 1.878-.997a8.36 8.36 0 0 0 .282-.122c.075-.034.2-.084.277-.112.078-.026.21-.076.295-.11.143-.06.322-.117.946-.309a18.94 18.94 0 0 1 1.54-.356 12.863 12.863 0 0 1 .906-.126c.09-.013.954-.075 1.15-.083.325-.012 1.002.006 1.442.038Z" fill="#fff"/><path d="M19.385 6.39a.504.504 0 0 0-.256.153c-.08.091-.103.138-.141.299l-.034.132v1.363l-.15.016a6.415 6.415 0 0 0-.589.079c-.002-.003-.08-.285-.172-.628a22.229 22.229 0 0 0-.203-.723c-.091-.266-.32-.459-.543-.46-.053 0-1.338.344-1.423.382a.485.485 0 0 0-.216.197c-.018.035-.043.11-.059.166-.046.17-.037.223.17.983.099.367.178.668.176.669a14.01 14.01 0 0 1-.178.067 2.971 2.971 0 0 0-.22.087c-.025.013-.1.044-.166.07-.09.035-.122.041-.13.03l-.334-.575a22.522 22.522 0 0 0-.356-.603 1.054 1.054 0 0 0-.302-.277.382.382 0 0 0-.21-.05.43.43 0 0 0-.161.012c-.074.03-1.23.692-1.28.733a.57.57 0 0 0-.15.28.622.622 0 0 0 .044.385c.02.043.19.344.38.669.187.324.341.594.341.599 0 .004-.07.06-.155.125-.086.064-.215.163-.285.22-.071.056-.134.102-.14.102-.004 0-.164-.155-.354-.346-.664-.663-.7-.698-.801-.755-.214-.12-.46-.127-.6-.016-.03.023-.305.294-.888.872-.105.104-.143.152-.173.216a.552.552 0 0 0 .034.5c.043.08.204.249.782.826l.345.343-.054.07c-.03.039-.086.108-.126.156a5.17 5.17 0 0 0-.16.204c-.05.064-.093.123-.098.13-.006.006-.301-.155-.657-.358a17.686 17.686 0 0 0-.717-.395.891.891 0 0 0-.393-.03.422.422 0 0 0-.253.157c-.065.086-.68 1.132-.716 1.216a.496.496 0 0 0 .023.41.947.947 0 0 0 .272.287c.047.032.347.207.669.39.32.182.587.333.59.336a3.52 3.52 0 0 1-.093.211 4.902 4.902 0 0 0-.138.329c-.024.07-.049.122-.059.122-.009 0-.336-.087-.727-.192l-.71-.193h-.174c-.16-.001-.179.001-.244.033a.56.56 0 0 0-.229.184c-.047.066-.063.114-.24.757-.213.775-.21.754-.134.922a.467.467 0 0 0 .172.21c.152.115.234.144 1.003.342l.669.175c.001.001-.012.079-.027.174a12.71 12.71 0 0 0-.051.35l-.023.182H6.85l-.14.034a.508.508 0 0 0-.231.097.472.472 0 0 0-.188.226l-.033.074.004.754.004.753.03.057c.077.15.212.244.426.298l.135.033h1.48l.022.18c.032.27.059.49.063.506 0 .008-.298.096-.737.214-.825.222-.868.24-1.01.376a.563.563 0 0 0-.167.335c-.007.079.017.173.361 1.405a.51.51 0 0 0 .211.25.901.901 0 0 0 .29.078c.096.01.152-.002.989-.222.347-.09.63-.163.632-.162.009.012.099.233.127.312.02.054.062.156.093.229.03.07.055.13.052.131-.002.003-.279.159-.614.35l-.666.377c-.218.126-.37.412-.323.617.009.042.03.098.046.122l.346.598c.174.304.331.568.35.588a.785.785 0 0 0 .253.154c.074.02.202.018.29-.006.143-.038.258-.097.846-.437.327-.19.598-.345.603-.345.005 0 .035.04.067.088.095.146.205.295.291.396l.083.097-.358.356c-.196.195-.45.451-.564.567-.199.205-.206.215-.254.33-.08.193-.077.35.013.486.053.081.967.979 1.065 1.047.148.101.335.1.537-.005.118-.06.179-.114.607-.541l.484-.48.086-.082.184.144c.34.264.396.308.39.316l-.36.625c-.197.339-.37.646-.387.683a.661.661 0 0 0-.003.498c.05.12.126.173.73.518.307.174.586.33.618.344.135.062.274.046.46-.051a.643.643 0 0 0 .248-.23c.024-.037.191-.317.37-.624l.326-.561c.006-.008.252.094.346.141.058.03.157.074.221.099a.366.366 0 0 1 .113.054c0 .005-.082.311-.182.678-.207.766-.218.823-.17 1.001a.51.51 0 0 0 .197.299l.08.06.693.187c.792.214.76.209.938.12a.62.62 0 0 0 .324-.36c.018-.052.11-.378.204-.724.095-.347.174-.632.176-.634.003-.003.068.008.146.022.123.022.286.045.53.074l.067.008v.728c0 .812 0 .816.086.976a.473.473 0 0 0 .18.205c.123.08.16.084.9.084s.77-.003.892-.084a.538.538 0 0 0 .243-.343c.029-.103.029-.128.034-.823l.005-.716.144-.016c.223-.025.446-.054.516-.067.036-.006.068-.009.073-.004.004.006.088.299.184.653.097.354.19.685.207.734a.624.624 0 0 0 .321.353c.179.088.147.093.938-.12.38-.103.707-.195.725-.206a.736.736 0 0 0 .184-.182.726.726 0 0 0 .062-.165c.044-.181.037-.232-.17-.993a24.558 24.558 0 0 1-.176-.668l.177-.067c.095-.034.194-.073.22-.086.026-.014.1-.045.167-.07.09-.035.122-.042.13-.03l.334.574c.362.625.345.6.462.728a.626.626 0 0 0 .184.145.391.391 0 0 0 .222.057c.122.006.129.004.209-.036.2-.103 1.156-.655 1.22-.705a.441.441 0 0 0 .16-.27.619.619 0 0 0-.056-.412 39.51 39.51 0 0 0-.71-1.236c-.01-.012.27-.238.557-.451.029-.021.007-.04.454.407.545.546.625.62.734.678.191.104.369.124.515.06.072-.032.131-.087.576-.527.272-.271.515-.523.54-.559.097-.148.092-.347-.017-.547-.05-.092-.169-.218-.776-.824l-.345-.343.054-.07c.03-.039.086-.108.126-.156a6.354 6.354 0 0 0 .258-.333c.005-.007.275.139.599.323.655.374.686.39.808.438a.654.654 0 0 0 .48-.027c.102-.051.151-.122.508-.73.395-.67.4-.683.367-.84a.655.655 0 0 0-.188-.343c-.108-.105-.086-.092-.802-.498l-.588-.335c-.002-.002.03-.076.072-.166.04-.09.102-.235.136-.325a.857.857 0 0 1 .077-.168c.009-.004.337.08.729.187l.711.192.167.001.167.003.102-.05c.114-.055.24-.175.262-.249.008-.023.093-.33.189-.679.207-.75.207-.75.13-.919a.555.555 0 0 0-.238-.262c-.113-.075-.206-.104-.937-.293-.505-.13-.67-.18-.665-.191.007-.02.032-.197.065-.465a4.73 4.73 0 0 1 .027-.195l.005-.029h1.51l.133-.032a1.33 1.33 0 0 0 .18-.058c.13-.071.242-.195.272-.301.008-.03.013-.322.013-.778v-.73l-.034-.072a.476.476 0 0 0-.186-.223.507.507 0 0 0-.231-.097l-.14-.035h-1.487l-.015-.109c-.008-.059-.024-.193-.034-.298a3.835 3.835 0 0 0-.03-.24c-.01-.036-.009-.053.002-.056.009-.004.335-.092.726-.195.638-.172.722-.198.829-.254.228-.12.354-.294.355-.491 0-.048-.36-1.372-.388-1.428a.69.69 0 0 0-.191-.2 1.001 1.001 0 0 0-.325-.08c-.06 0-.271.053-1.203.295a9.589 9.589 0 0 1-.38.096 4.878 4.878 0 0 1-.127-.312 7.548 7.548 0 0 0-.093-.228 1.081 1.081 0 0 1-.053-.132l.647-.369c.353-.201.659-.377.678-.393.162-.122.25-.25.282-.413.028-.15.023-.164-.351-.816a16.958 16.958 0 0 0-.38-.642.606.606 0 0 0-.254-.171.751.751 0 0 0-.4.03c-.065.024-.326.166-.723.396-.341.198-.624.36-.63.36-.004 0-.06-.08-.127-.175a4.213 4.213 0 0 0-.215-.29l-.098-.116.357-.356c.433-.432.734-.741.77-.793a.745.745 0 0 0 .104-.287.463.463 0 0 0-.073-.305c-.05-.076-.94-.96-1.051-1.044-.166-.125-.441-.094-.671.075-.024.019-.235.224-.47.456-.232.233-.46.457-.502.5l-.08.076-.183-.143c-.33-.255-.397-.31-.392-.317l.356-.613c.193-.332.368-.637.387-.676a.632.632 0 0 0 .044-.39.517.517 0 0 0-.14-.263c-.037-.037-.246-.165-.656-.397-.537-.308-.61-.345-.687-.359a.526.526 0 0 0-.336.062c-.177.086-.215.139-.643.874l-.328.56a2.484 2.484 0 0 1-.321-.133 3.311 3.311 0 0 0-.244-.105c-.094-.036-.115-.049-.112-.069.002-.013.087-.34.19-.728.122-.462.185-.725.185-.769a.78.78 0 0 0-.093-.33.539.539 0 0 0-.118-.132l-.077-.06-.694-.19c-.638-.173-.701-.188-.776-.181-.2.017-.405.183-.487.394-.016.043-.11.372-.21.73-.097.356-.179.649-.182.651a.909.909 0 0 1-.138-.02 8.32 8.32 0 0 0-.53-.074l-.074-.008v-.722c0-.81 0-.805-.091-.983a.853.853 0 0 0-.093-.142.551.551 0 0 0-.25-.132c-.1-.021-1.387-.019-1.474.004Zm1.385.53c.011.027.015.262.015.972v.934l.135.01c.075.003.222.019.328.033.106.015.262.036.347.046.126.017.64.104.778.132.043.008.02.076.288-.921.244-.914.244-.915.296-.912.014 0 .289.07.61.153l.585.154-.002.072c0 .052-.059.288-.21.83l-.207.76.077.154.076.157.3.12c.38.15.465.187.753.332.129.065.237.118.24.118a88.743 88.743 0 0 1 .93-1.6c.064-.086.032-.1.619.236.382.217.54.313.54.328 0 .057-.079.204-.436.805-.21.354-.39.658-.397.672-.02.037.039.36.067.38.166.12.34.25.482.362.167.131.232.185.487.403l.11.093.56-.553c.811-.801.805-.796.842-.806.037-.009-.012-.053.577.53l.333.33-.018.045c-.02.05-.133.165-.761.784a15.54 15.54 0 0 0-.446.448l-.02.17-.02.161.035.05c.02.025.064.082.102.125.127.154.286.372.453.624l.091.135c.005.005.09.022.19.036l.18.028.719-.41c.519-.297.732-.412.77-.415l.05-.007.283.484.313.532.03.05-.05.05c-.032.033-.281.181-.723.432-.371.212-.693.393-.714.405-.035.017-.05.043-.107.189l-.067.17.054.123c.06.138.253.622.325.815l.046.126.167.08.168.08.78-.211c.57-.155.801-.213.858-.213l.077-.002.157.585c.087.322.156.593.155.604-.008.043-.162.091-.883.28-.413.108-.768.2-.786.203-.03.005-.16.152-.253.281-.013.019-.01.049.009.16.036.2.064.416.092.72l.025.277c0 .004.065.059.145.122l.146.113h.851c.738 0 .856.003.888.02l.038.02v1.222l-.044.02c-.038.016-.182.019-.897.019h-.852l-.146.104-.15.109a3.714 3.714 0 0 0-.024.22c-.01.12-.031.282-.045.362a5.179 5.179 0 0 0-.032.217c-.005.04-.02.133-.034.207a.615.615 0 0 0-.015.153l.104.147.094.131.805.216c.444.118.825.223.848.233.024.01.047.027.05.038.004.011-.064.286-.15.61l-.158.59h-.052c-.05 0-1.612-.397-1.655-.421-.015-.008-.071.01-.192.06-.094.041-.173.075-.176.078-.003.003-.047.12-.1.259-.097.255-.153.39-.282.665l-.069.147.064.162c.052.131.07.166.106.189.022.016.35.203.728.418.378.215.7.406.717.424.026.03.027.037.012.062-.01.014-.15.256-.313.536-.218.378-.3.51-.317.51a.186.186 0 0 1-.064-.018l-.076-.032a33.65 33.65 0 0 1-.674-.385l-.681-.394c-.042-.024-.047-.024-.212.008-.161.03-.173.035-.204.074-.018.024-.113.149-.21.28-.1.13-.206.27-.24.31-.033.039-.098.122-.147.18l-.086.111.009.168.009.17.265.26c.556.548.889.88.914.915.06.076.066.065-.403.525-.508.497-.438.465-.622.284l-.606-.593a15.52 15.52 0 0 1-.565-.569l-.068-.085-.034.025c-.018.014-.097.079-.175.146-.144.122-.28.23-.488.382-.261.193-.327.24-.437.314l-.144.101-.028.024.065.118c.036.065.238.412.449.77.355.606.435.755.435.811 0 .016-.157.112-.534.326-.512.292-.536.304-.57.287-.042-.023-.018.017-.476-.774a28.663 28.663 0 0 0-.517-.882 2.007 2.007 0 0 0-.217.09 4.426 4.426 0 0 1-.243.108 12.203 12.203 0 0 1-1.049.405.84.84 0 0 0 .033.135c.132.455.429 1.61.43 1.675l.002.072-.591.154c-.326.085-.6.153-.61.15-.01 0-.028-.016-.04-.035-.02-.026-.2-.68-.422-1.535-.01-.03-.02-.055-.028-.055a1 1 0 0 1-.138-.09 6.234 6.234 0 0 0-.139-.098 1.251 1.251 0 0 0-.222.03c-.179.033-.607.08-1.064.112l-.118.01-.004.943c-.004.775-.006.946-.022.963-.015.02-.076.023-.638.023h-.621l-.017-.03c-.013-.023-.018-.211-.02-.848l-.004-.818-.034-.037-.11-.13a.365.365 0 0 0-.098-.096 8.405 8.405 0 0 1-.348-.046l-.289-.039a9.885 9.885 0 0 1-.43-.07c-.157-.031-.29-.055-.296-.055-.014 0-.035.07-.276.973-.117.437-.224.81-.237.828-.013.018-.03.034-.04.035-.011.003-.285-.066-.61-.151l-.59-.154v-.072c.002-.063.237-.954.476-1.802.004-.016-.018-.03-.094-.058-.25-.092-.635-.243-.695-.274a1.763 1.763 0 0 0-.147-.066 5.87 5.87 0 0 1-.322-.151 7.508 7.508 0 0 0-.248-.12 63.748 63.748 0 0 0-.908 1.573.24.24 0 0 1-.061.07l-.039.029-.54-.308c-.572-.326-.56-.316-.522-.391a.29.29 0 0 0 .024-.062c.004-.015.18-.32.392-.675l.4-.677c.018-.036-.039-.36-.067-.38a13.362 13.362 0 0 1-.969-.763l-.11-.095-.656.649a25.36 25.36 0 0 1-.705.683c-.027.019-.057.032-.067.03-.023-.006-.88-.854-.88-.87 0-.045.145-.2.653-.701.312-.308.568-.563.568-.567l.019-.169.02-.164-.048-.065-.147-.185a8.493 8.493 0 0 1-.396-.55 8.33 8.33 0 0 0-.09-.133 1.22 1.22 0 0 0-.188-.037l-.18-.028-.717.409c-.51.29-.733.41-.771.415l-.053.008-.283-.483-.31-.531-.029-.049.041-.047c.03-.034.226-.154.698-.422.361-.205.685-.388.72-.406l.065-.034.068-.171.067-.171-.054-.116a17.83 17.83 0 0 1-.325-.818l-.048-.125-.159-.082-.16-.081-.1.025c-.056.013-.422.11-.814.217-.478.129-.73.19-.765.188l-.051-.004-.158-.585a11.493 11.493 0 0 1-.153-.605c.001-.01.027-.032.058-.048a43.588 43.588 0 0 1 1.61-.434c.03-.005.16-.152.253-.281.013-.018.01-.049-.01-.16a8.333 8.333 0 0 1-.092-.72l-.024-.277c0-.005-.066-.059-.145-.122l-.145-.113h-.845c-.709 0-.852-.002-.889-.018l-.045-.02v-1.222l.039-.021c.032-.017.151-.02.895-.02h.86l.145-.104.15-.109c.003-.002.013-.102.025-.22.01-.12.03-.283.045-.362.013-.08.03-.198.038-.263s.024-.159.034-.207A.294.294 0 0 0 9 17.85l-.104-.147-.094-.131-.8-.214c-.439-.117-.823-.225-.852-.24-.033-.014-.056-.034-.056-.046 0-.011.071-.285.157-.605l.157-.585.077.006c.072.006 1.559.387 1.623.416.023.01.06 0 .199-.06.092-.039.172-.073.175-.076.002-.004.042-.105.087-.227a7.94 7.94 0 0 1 .283-.661l.083-.178-.064-.162a.896.896 0 0 0-.087-.18c-.013-.01-.338-.198-.722-.416-.385-.22-.716-.414-.737-.433-.025-.025-.034-.042-.027-.056l.313-.538c.215-.372.308-.52.325-.52.051 0 .204.08.853.457l.683.396.171-.032a.803.803 0 0 0 .185-.05c.008-.008.103-.134.211-.279.11-.144.25-.324.315-.4.19-.226.177-.197.167-.395l-.01-.17-.589-.58c-.54-.533-.64-.642-.626-.682.003-.007.2-.205.44-.44l.435-.425.04.017c.022.01.08.058.13.11l.527.514c.24.233.467.455.505.494l.068.07.172.014.174.014.125-.103c.068-.058.178-.142.24-.19.065-.046.183-.133.264-.194.188-.139.185-.136.357-.25l.146-.095-.022-.034a54.668 54.668 0 0 1-.928-1.59c-.032-.095-.05-.08.424-.35l.538-.306.1-.055.05.048c.03.032.2.31.445.733.39.675.512.88.524.895a.955.955 0 0 0 .173-.072c.091-.043.214-.1.275-.126.189-.084.823-.33.943-.365.063-.02.117-.037.12-.04a.43.43 0 0 0-.023-.09c-.014-.046-.118-.433-.233-.86-.156-.58-.209-.794-.209-.853v-.079l.602-.156.602-.158.03.038c.015.02.032.05.035.065l.208.776.235.872c.03.118.033.122.066.115.452-.09.866-.142 1.468-.185l.125-.01.004-.941c.002-.518.009-.952.015-.965.01-.02.053-.022.639-.022h.628l.017.035Z" fill="#fff"/><path d="M19.393 10.057a12.34 12.34 0 0 0-.816.08c-.004.002-.057.01-.116.019-.06.008-.164.025-.231.04a8.607 8.607 0 0 1-.257.045 2.556 2.556 0 0 0-.238.053 4.923 4.923 0 0 1-.244.064 6.842 6.842 0 0 0-.745.229c-.311.109-.406.144-.663.25-.132.053-.698.325-.757.364-.026.017-.11.063-.188.102-.078.04-.196.108-.263.151a4.08 4.08 0 0 1-.179.108 1.535 1.535 0 0 0-.167.11c-.059.044-.158.112-.218.151-.06.039-.186.13-.281.204a7.112 7.112 0 0 1-.232.174 9.026 9.026 0 0 0-.354.3 10.36 10.36 0 0 0-1.247 1.308c-.042.054-.105.136-.141.18-.072.092-.165.22-.21.29a6.09 6.09 0 0 1-.143.207 4.99 4.99 0 0 0-.33.539c-.18.312-.211.373-.372.71-.16.338-.236.512-.293.677-.017.048-.04.105-.051.128-.034.067-.207.596-.259.79-.025.098-.055.205-.064.238a8.78 8.78 0 0 0-.193 1.005c-.01.079-.028.197-.038.263-.022.135-.039.373-.058.842-.02.455.01 1.175.063 1.523l.04.282.032.224c.02.133.127.639.153.723a10.977 10.977 0 0 0 .369 1.15c.028.072.069.172.088.223.115.296.383.838.59 1.192l.128.22c.04.069.121.194.18.277.06.082.122.174.14.203.018.03.056.082.083.119l.104.139a10.29 10.29 0 0 0 1.784 1.844c.033.022.129.093.213.159.083.064.204.153.267.197l.225.156c.06.042.132.088.16.102.027.015.12.073.206.127.085.054.202.12.258.148.058.028.135.069.171.09.036.024.2.107.364.188.424.205.583.27 1.083.446.357.125.52.175.745.229.079.018.188.047.244.064.057.017.163.04.238.053.075.012.193.033.263.046.477.093 1.197.156 1.76.156a10.374 10.374 0 0 0 1.954-.19 8.63 8.63 0 0 0 1.246-.342c.541-.187.694-.248 1.135-.462.163-.08.327-.163.363-.187.036-.023.114-.063.171-.09.057-.028.174-.095.259-.15.086-.053.178-.11.205-.125a2.03 2.03 0 0 0 .174-.112l.263-.186a7.3 7.3 0 0 0 .25-.185 4.36 4.36 0 0 1 .174-.13 10.518 10.518 0 0 0 1.975-2.104c.018-.029.08-.12.14-.203.06-.083.14-.208.18-.276l.128-.221c.207-.354.476-.896.59-1.192l.089-.224a11.013 11.013 0 0 0 .369-1.15c.025-.083.132-.59.152-.722l.033-.224c.007-.061.025-.187.04-.282.052-.348.082-1.071.063-1.526-.02-.469-.037-.704-.058-.84-.01-.065-.029-.183-.039-.262a8.799 8.799 0 0 0-.193-1.006l-.064-.236a10.147 10.147 0 0 0-.258-.791 1.363 1.363 0 0 1-.052-.128 6.509 6.509 0 0 0-.293-.678 7.942 7.942 0 0 0-.37-.71 4.99 4.99 0 0 0-.331-.538 6.041 6.041 0 0 1-.143-.206 5.05 5.05 0 0 0-.21-.29l-.142-.18a10.567 10.567 0 0 0-1.593-1.603 3.186 3.186 0 0 1-.171-.13 8.006 8.006 0 0 0-.323-.234l-.296-.204a6.036 6.036 0 0 0-.545-.328 3.052 3.052 0 0 1-.2-.11c-.06-.039-.625-.31-.757-.364-.269-.11-.358-.142-.715-.266a8.446 8.446 0 0 0-.81-.244 4.535 4.535 0 0 0-.449-.099 5.548 5.548 0 0 1-.206-.038 1.599 1.599 0 0 0-.154-.028 1.537 1.537 0 0 1-.128-.02 10.439 10.439 0 0 0-.88-.085 10.34 10.34 0 0 0-1.176 0Zm1.265.513c.328.02.527.04.604.059.025.007.103.018.174.026.07.008.175.027.231.04a9.817 9.817 0 0 1 1.362.346c.11.03.166.052.546.208.089.036.19.078.225.09.058.024.156.07.478.223.057.028.136.07.176.097.04.026.129.076.198.112.152.077.402.231.518.317.047.035.114.079.15.097.035.018.107.068.16.112a8.8 8.8 0 0 0 .23.177 9.324 9.324 0 0 1 2.449 2.76c.149.256.476.909.557 1.115.136.343.294.787.327.914a7.584 7.584 0 0 1 .175.661c.048.214.06.274.106.573.01.064.022.13.026.148.038.162.097.984.097 1.354 0 .369-.059 1.192-.097 1.353a5.104 5.104 0 0 0-.026.147l-.036.23c-.02.133-.116.56-.144.65-.018.056-.036.122-.107.38-.035.132-.223.652-.332.926-.092.23-.368.771-.566 1.109-.59 1.013-1.473 2.017-2.354 2.677-.08.06-.196.148-.257.197a1.47 1.47 0 0 1-.173.12 1.67 1.67 0 0 0-.167.108c-.125.091-.332.218-.473.29a5.878 5.878 0 0 1-.735.384c-.18.086-.204.096-.418.183-.363.147-.46.186-.565.213-.06.017-.149.046-.2.063a1.724 1.724 0 0 1-.186.055 2.665 2.665 0 0 0-.173.048 6.712 6.712 0 0 1-.745.165c-.07.017-.216.041-.572.09-.212.031-.77.06-1.137.06-.458 0-1.106-.04-1.253-.079a1.747 1.747 0 0 0-.173-.026 2.446 2.446 0 0 1-.232-.04 2.336 2.336 0 0 0-.173-.032 6.704 6.704 0 0 1-.598-.138 2.652 2.652 0 0 0-.173-.048 1.807 1.807 0 0 1-.186-.055 4.149 4.149 0 0 0-.2-.063c-.104-.027-.201-.066-.565-.213a9.656 9.656 0 0 1-.732-.334 8.21 8.21 0 0 1-.893-.523 1.534 1.534 0 0 0-.167-.109 1.577 1.577 0 0 1-.174-.12c-.06-.048-.176-.136-.257-.196-.88-.66-1.763-1.664-2.354-2.677-.229-.39-.509-.949-.62-1.234l-.076-.21-.142-.405a4.05 4.05 0 0 1-.115-.375 9.745 9.745 0 0 1-.195-.837l-.037-.23a4.86 4.86 0 0 0-.025-.15c-.039-.163-.098-.985-.098-1.354 0-.37.06-1.192.098-1.354l.025-.145.036-.23a10.102 10.102 0 0 1 .206-.88c.03-.122.063-.22.247-.736.103-.288.13-.352.357-.808a8.39 8.39 0 0 1 .75-1.279 9.092 9.092 0 0 1 2.019-2.093 8.65 8.65 0 0 0 .229-.177c.054-.044.126-.094.16-.112.036-.019.103-.062.15-.097a5.63 5.63 0 0 1 .542-.333 7.83 7.83 0 0 1 1.072-.515l.277-.112c.074-.03.187-.07.25-.088a9.819 9.819 0 0 1 1.336-.34c.043-.01.159-.032.258-.046l.314-.046c.364-.054 1.233-.072 1.787-.038Z" fill="#fff"/><path d="M19.941 12.025a7.74 7.74 0 0 1-.099.247c-.036.083-.11.27-.167.414-.055.145-.145.372-.198.506-.528 1.325-.804 2.057-1.04 2.76a14.47 14.47 0 0 1-.12.341 5.146 5.146 0 0 0-.168.487 7.417 7.417 0 0 0-.155.565 6.386 6.386 0 0 0-.092.637c-.02.235-.02.88 0 1.012.009.05.027.184.041.296.036.277.085.495.204.92.103.363.233.72.313.859.09.158.223.444.262.565.03.096.034.126.034.31 0 .19-.002.21-.034.294a.83.83 0 0 1-.39.438.962.962 0 0 1-.587.076.941.941 0 0 1-.258-.098.487.487 0 0 0-.08-.052c-.094-.047-.281-.289-.337-.43a2.156 2.156 0 0 1-.102-.432l-.027-.23a3.786 3.786 0 0 1 0-.604l.026-.183a1.3 1.3 0 0 1 .037-.177c.014-.045.038-.125.052-.179.053-.185.12-.361.196-.518.085-.172.082-.163.113-.612.02-.276-.002-.61-.053-.862a2.19 2.19 0 0 0-.056-.233.272.272 0 0 1-.02-.07c0-.04-.17-.413-.225-.49a1.827 1.827 0 0 0-.508-.525 1.582 1.582 0 0 0-.58-.27 1.868 1.868 0 0 0-.543-.081 2.644 2.644 0 0 0-.78.092c-.208.06-.532.197-.688.292-.26.157-.506.374-.663.582l-.077.101a2.2 2.2 0 0 0-.101.185l-.079.155.037.004a10.91 10.91 0 0 1 .372.056c.117.017.232.05.358.1.17.068.278.161.342.3.072.154.067.379-.015.605-.02.058-.058.17-.081.25a2.92 2.92 0 0 1-.07.203c-.034.08-.174.68-.199.854a7.27 7.27 0 0 0-.072.855c0 .25.053.802.097 1.004.069.316.142.558.246.802.091.217.277.564.364.684a6.3 6.3 0 0 1 .108.156c.087.132.302.373.484.548.158.151.451.392.567.467.033.02.091.059.128.085.088.062.449.264.583.327.209.099.336.157.417.188l.167.066c.046.018.13.046.186.062.057.015.117.037.135.046.063.033.602.168.861.217.13.023.18.034.306.06l.028.005v1.787h2.84v-1.759l.062-.008a8.145 8.145 0 0 0 1.836-.492c.238-.097.708-.335.813-.412a5.038 5.038 0 0 0 .482-.336c.356-.274.771-.71.946-.994.03-.051.083-.13.115-.177a4.353 4.353 0 0 0 .374-.778c.029-.06.116-.392.16-.609.122-.606.127-1.24.015-1.938a1.511 1.511 0 0 0-.11-.427 3.567 3.567 0 0 1-.09-.243c-.01-.04-.029-.107-.043-.148a1.797 1.797 0 0 1-.06-.592.598.598 0 0 1 .06-.224.531.531 0 0 1 .2-.252c.082-.054.146-.077.316-.114.115-.027.17-.03.382-.03.188.002.247 0 .247-.014a1.67 1.67 0 0 0-.073-.23 2.305 2.305 0 0 0-.2-.391c-.079-.121-.378-.43-.53-.545a3.088 3.088 0 0 0-.622-.333 1.265 1.265 0 0 1-.13-.045 2.81 2.81 0 0 0-.55-.105 2.49 2.49 0 0 0-.87.1 2.057 2.057 0 0 0-.876.56c-.09.093-.11.117-.203.253-.068.1-.074.11-.132.21a3.816 3.816 0 0 0-.217.496 3.5 3.5 0 0 1-.035.125 3.3 3.3 0 0 0-.135.689c-.014.107-.013.117.018.186a7.51 7.51 0 0 1 .411 1.402c.118.696.048 1.286-.195 1.65-.14.209-.39.382-.653.452l-.099.025-.136-.057a2.012 2.012 0 0 1-.518-.276.773.773 0 0 1-.163-.197c-.084-.159-.086-.353-.006-.572.03-.08.088-.2.18-.369.11-.198.378-.925.481-1.3.185-.678.232-.953.268-1.574.04-.707-.113-1.621-.38-2.25a11.65 11.65 0 0 1-.34-.946 31.419 31.419 0 0 0-.41-1.172c-.099-.27-.184-.508-.189-.53a11.552 11.552 0 0 0-.149-.427c-.153-.42-.279-.78-.36-1.035-.063-.2-.08-.208-.132-.066Zm.044 1.238c.02.047.046.117.058.155.01.038.051.15.09.247.04.097.087.218.102.27.031.095.11.3.169.433.019.044.051.129.07.19.02.063.08.22.134.352a2.6 2.6 0 0 1 .09.244.443.443 0 0 0 .032.108c.122.323.358 1.305.406 1.682l.04.256c.017.105.037.264.044.355l.025.315c.031.379.008 1.192-.045 1.558-.055.385-.208 1.047-.276 1.189a1.07 1.07 0 0 0-.045.131.941.941 0 0 1-.058.158c-.019.04-.042.096-.051.125a3.323 3.323 0 0 1-.098.231 1.186 1.186 0 0 0-.128.541c-.015.275.03.52.122.682.067.121.18.265.267.342.135.12.375.26.537.312.05.015.103.035.118.043.047.024.363-.01.526-.055.16-.045.39-.157.493-.24.134-.107.311-.292.377-.395.16-.248.276-.512.343-.784.042-.173.09-.572.09-.753v-.123l-.154-.354a4.414 4.414 0 0 1-.323-.945c-.063-.272-.08-.789-.032-.992.092-.392.432-.84.785-1.04.042-.024.089-.053.104-.064.032-.025.256-.121.347-.15.036-.01.143-.036.237-.054a1.67 1.67 0 0 1 1.203.201c.233.147.3.202.43.352.072.08.13.151.132.157a.364.364 0 0 1-.095.046 1.32 1.32 0 0 0-.587.418 1.162 1.162 0 0 0-.153.324c-.05.214-.017.526.09.828.03.087.07.214.088.282.045.165.133.642.15.814.023.225.016.653-.012.93-.031.293-.053.41-.11.596a5.198 5.198 0 0 0-.062.216c-.047.198-.287.718-.451.98a5.48 5.48 0 0 1-.423.56c-.221.257-.388.41-.738.679-.33.253-.46.335-.818.515-.29.147-.432.209-.688.302-.099.037-.465.145-.7.206l-.167.044-1.619.004c-1.759.004-1.646.008-1.979-.07a4.168 4.168 0 0 1-.723-.233c-.384-.155-.72-.33-.921-.475a5.235 5.235 0 0 1-.732-.614 3.238 3.238 0 0 1-.462-.54 6.017 6.017 0 0 1-.278-.407 4.859 4.859 0 0 1-.287-.586 1.073 1.073 0 0 0-.047-.121 6.551 6.551 0 0 1-.217-.738 5.38 5.38 0 0 1-.091-.905c0-.486.114-1.126.27-1.52.09-.225.163-.476.172-.59a.64.64 0 0 0-.024-.249.722.722 0 0 0-.069-.198l-.068-.105c-.074-.112-.353-.35-.58-.497-.04-.025-.074-.051-.074-.058 0-.017.117-.126.228-.212.113-.085.438-.257.557-.293a2.383 2.383 0 0 1 .764-.117c.23.002.268.007.514.067.147.039.442.195.582.313.168.142.371.48.444.74.09.317.108.83.047 1.244-.015.1-.026.12-.15.287a2 2 0 0 0-.191.4c-.041.12-.114.43-.134.564-.047.325-.023.768.057 1.035.13.436.322.742.636 1.009.172.147.437.272.713.336.098.024.422.024.527 0 .042-.009.099-.02.124-.027a.61.61 0 0 0 .116-.044l.113-.053a1.27 1.27 0 0 0 .37-.334.976.976 0 0 0 .145-.318l.044-.138-.001-.263c-.001-.24-.004-.276-.036-.406-.076-.316-.155-.51-.374-.919-.038-.073-.056-.134-.103-.362a7.423 7.423 0 0 1-.12-.79 13.42 13.42 0 0 0-.027-.25 8.84 8.84 0 0 1 .457-3.7c.015-.037.055-.142.089-.236.032-.092.073-.197.09-.232.032-.063.047-.104.173-.45.033-.096.082-.226.107-.29l.078-.208c.018-.05.042-.106.053-.129.011-.02.037-.086.059-.145l.204-.567a.934.934 0 0 1 .046-.114c.003 0 .022.038.043.084Zm.708 13.471v.742h-1.774v-1.484h1.774v.742Z" fill="#fff"/><path d="M19.947 15.216a24.733 24.733 0 0 0-.189.708c-.06.24-.105.396-.275.932-.086.272-.113.34-.17.434-.165.268-.291.59-.35.89-.034.17-.034.71 0 .879.1.514.249.96.476 1.426.052.105.106.23.122.282.031.099.09.226.131.285a.294.294 0 0 0 .084.071c.055.034.059.034.1.015.102-.049.126-.088.352-.54.121-.24.242-.497.269-.568.067-.17.177-.522.189-.597.005-.032.025-.128.046-.214.091-.386.08-.94-.028-1.5a2.4 2.4 0 0 0-.23-.666c-.221-.466-.367-.99-.476-1.718a1.524 1.524 0 0 0-.03-.169c-.005-.004-.014.02-.021.05Zm.064 1.635c.235.539.29.71.348 1.066a1.198 1.198 0 0 1 .002.447c-.008.014-.027.005-.088-.042a.638.638 0 0 0-.26-.145c-.201-.049-.381.003-.565.162-.052.046-.055.046-.049.016.004-.018.022-.13.041-.249a3.83 3.83 0 0 1 .234-.9c.094-.252.233-.578.242-.568.003.003.045.099.095.213Zm-.385 2.615c.12.062.122.062.245.062a.379.379 0 0 0 .235-.054c.062-.029.141-.077.179-.106.065-.054.065-.054.077-.024.023.06.013.26-.02.394-.026.108-.055.17-.186.414-.086.158-.189.356-.23.44l-.074.154-.088-.167a3.982 3.982 0 0 1-.273-.69 5.391 5.391 0 0 1-.089-.513l-.008-.064.056.046c.03.025.109.074.176.108ZM15.624 18.406c0 .044.008.055.071.105.095.076.129.142.127.26a.72.72 0 0 1-.015.146c-.022.076-.13.242-.24.366l-.219.25-.245.276c-.158.175-.203.24-.313.465a1.542 1.542 0 0 0-.137.368 1.146 1.146 0 0 0-.044.385c0 .194.003.218.045.388.074.293.179.49.415.782.165.202.604.536.811.616.04.015.117.04.172.054a.337.337 0 0 0 .185.01c.106-.018.142-.036.188-.098a.32.32 0 0 0 .073-.222.426.426 0 0 0-.078-.246c-.037-.054-.131-.347-.2-.623a4.5 4.5 0 0 1-.106-1.649c.033-.267.094-.598.134-.73a.94.94 0 0 0-.039-.61c-.089-.19-.217-.284-.447-.322l-.127-.02c-.007 0-.01.022-.01.049Zm.218 1.202a6.934 6.934 0 0 0-.129.714 4.607 4.607 0 0 0-.008.66l.01.096-.062-.044a.367.367 0 0 0-.422-.015.478.478 0 0 0-.114.089l-.032.041v-.08c0-.248.058-.532.158-.763.08-.188.243-.415.448-.626a3.03 3.03 0 0 1 .17-.167.414.414 0 0 1-.02.095Zm-.012 2.057c.022.064.127.298.234.52.105.223.19.407.189.409a4.663 4.663 0 0 1-.316-.153c-.352-.176-.409-.22-.56-.428-.078-.107-.219-.344-.211-.354a.649.649 0 0 1 .1.037c.056.024.13.043.181.047.108.01.175-.02.262-.12a.657.657 0 0 1 .07-.071.446.446 0 0 1 .051.113ZM24.134 18.378c-.219.04-.345.134-.43.32a.935.935 0 0 0-.04.612c.04.129.1.453.135.736.026.188.027.252.022.604-.005.326-.011.42-.033.539a13.14 13.14 0 0 0-.051.282c-.031.175-.21.79-.245.84a.426.426 0 0 0-.078.246c0 .095.02.152.073.222.047.062.083.08.188.099a.337.337 0 0 0 .185-.01c.148-.04.233-.076.352-.15.281-.173.583-.448.762-.69.189-.254.329-.646.329-.917 0-.341-.049-.567-.181-.84-.124-.25-.128-.256-.442-.608-.22-.247-.436-.495-.48-.554a.576.576 0 0 1-.118-.325c0-.12.028-.181.121-.264.063-.056.072-.071.072-.114 0-.057.004-.056-.141-.028Zm.124 1.343c.298.338.432.565.51.873.034.131.06.336.06.473v.08l-.057-.054c-.16-.15-.35-.174-.508-.062l-.059.042.005-.289a5.758 5.758 0 0 0-.01-.454 6.409 6.409 0 0 0-.128-.72l-.025-.097.056.046c.029.027.1.099.156.162Zm-.059 1.902c.036.039.091.084.123.1.083.04.2.028.33-.033l.098-.046-.06.12c-.076.15-.218.347-.324.447-.068.063-.128.1-.39.232-.171.085-.313.153-.315.152a5.082 5.082 0 0 1 .142-.317c.081-.173.187-.407.234-.521a6.3 6.3 0 0 1 .091-.207c.003 0 .034.033.071.073ZM8.68 5.856c-1.09.844-1.133.878-1.12.892.008.01-.019.044-.088.108l-.1.093-.078-.046c-.22-.13-.312-.156-.532-.155-.167 0-.177.002-.26.042a.57.57 0 0 0-.251.253.345.345 0 0 0-.035.184c0 .093.005.123.034.185.055.12.226.273.308.274.01 0 .026.007.035.016.013.013-.068.101-.37.412-.277.283-.385.402-.38.416.007.015-.119.185-.396.542-.224.286-.406.524-.406.527 0 .003-.097.137-.215.298-.117.16-.213.3-.213.311 0 .012-.092.157-.202.323l-.21.317c-.009.017.182.151.219.155.015.002.045-.033.089-.1l.065-.1.186.117.188.12-.084.146a2.33 2.33 0 0 1-.1.165c-.014.015-.043.002-.18-.078l-.167-.096H4.29c-.177 0-.231.031-.345.205-.116.178-.098.409.039.52.108.087.257.117.346.071.084-.045.086-.045.068-.231a1.022 1.022 0 0 1-.01-.172.315.315 0 0 1 .1.047c.087.051.091.055.074.083a1.15 1.15 0 0 0-.054.13c-.03.083-.034.114-.027.172.014.133.103.246.247.318.067.033.09.038.191.038.108 0 .121-.003.19-.045.069-.039.202-.18.202-.212 0-.019.003-.03.022-.074.052-.127-.022-.33-.144-.394a3.931 3.931 0 0 1-.105-.065l-.067-.043.085-.149a2.59 2.59 0 0 1 .095-.16 1.71 1.71 0 0 1 .27.155c.142.092.265.168.27.17a1.2 1.2 0 0 0 .182-.268 57.701 57.701 0 0 0-.585-.383l-.574-.374.072-.11a.91.91 0 0 0 .073-.124c.004-.032.076-.126.09-.121.018.008 1.072.754 1.103.78.019.018.03.01.106-.09.047-.06.09-.118.097-.13.009-.016-.094-.096-.544-.42l-.564-.405a.482.482 0 0 1 .08-.13c.047-.066.09-.128.092-.136.003-.008.075-.1.158-.202.143-.175.158-.19.215-.204.08-.021.158-.007.25.045.156.088.16.231.012.404-.044.052-.108.1-.244.188-.017.01.001.032.103.116l.124.101.067-.058.067-.059.095.05c.053.03.138.065.189.082.085.027.1.028.179.015.106-.02.23-.08.291-.144.115-.122.275-.37.257-.4a.9.9 0 0 0-.126-.092l-.117-.077-.021.05a.236.236 0 0 0-.024.068.354.354 0 0 1-.074.142c-.091.093-.225.156-.294.14a.742.742 0 0 1-.143-.065.198.198 0 0 1 .03-.064c.03-.052.036-.08.04-.188a.736.736 0 0 0-.007-.183.587.587 0 0 0-.13-.213 1.23 1.23 0 0 0-.285-.156l-.035-.01.122-.156a.754.754 0 0 0 .113-.17c-.009-.013.644-.679.667-.68.007 0 .036.025.068.056.068.065.066.087-.007.121-.045.021-.108.082-.238.232-.103.118-.14.23-.141.425 0 .138.002.149.04.225a.69.69 0 0 0 .294.288c.096.05.11.052.234.056.154.006.201-.008.381-.103l.121-.066-.058-.114a1.497 1.497 0 0 0-.068-.125c-.005-.007-.035.001-.064.017a.534.534 0 0 1-.264.065c-.186 0-.302-.103-.302-.27 0-.14.113-.296.293-.404a.733.733 0 0 1 .09-.048c.01 0 .292.272.539.516l.08.079.115-.114.116-.116-.08-.075c-.21-.197-.915-.886-.915-.893 0-.006.06-.075.132-.154l.134-.143.091.1c.38.416.851.902.865.894.01-.005.067-.052.127-.106l.112-.096-.083-.088c-.256-.267-.87-.928-.869-.933 0-.004.041-.043.091-.087a.768.768 0 0 0 .113-.114c.012-.021.106-.101.208-.18l.188-.145.068.01c.081.011.175.061.186.098.004.014-.002.045-.015.07-.03.059-.217.189-.316.22-.041.014-.075.028-.075.035 0 .03.187.253.261.312.013.01.073.042.135.073.11.053.115.055.247.055.135 0 .136 0 .26-.062.069-.034.161-.092.205-.13a1.09 1.09 0 0 0 .224-.266l.019-.036.103.132c.074.096.109.132.123.125.05-.018.245-.184.238-.198-.005-.01-.196-.25-.423-.536a31.171 31.171 0 0 1-.415-.525 1 1 0 0 1 .113-.094.575.575 0 0 0 .112-.103 1.04 1.04 0 0 0-.175-.22c-.006 0-.179.13-.382.286Zm.29.6c.193.245.193.245.18.292a.597.597 0 0 1-.32.387.242.242 0 0 0-.06.026c-.053.029-.097.031-.183.012-.098-.023-.098-.032.002-.121.123-.11.178-.213.178-.333a.32.32 0 0 0-.027-.143.461.461 0 0 0-.19-.187c-.05-.022-.054-.015.088-.126.083-.064.113-.081.125-.07.008.009.101.125.207.262Zm-2.021.615c.042.008.108.03.144.05l.068.033-.097.088a.709.709 0 0 0-.097.099c0 .006-.03.042-.066.079l-.067.07-.046-.045a.191.191 0 0 0-.096-.056c-.146-.026-.203-.114-.155-.233.044-.107.161-.13.412-.085Zm-2.03 4.793a.25.25 0 0 1 .082.071c.015.029.014.037-.007.067a.139.139 0 0 1-.046.04c-.024.01-.087-.018-.137-.057-.029-.022-.03-.026-.015-.075.017-.053.036-.084.05-.084.004 0 .038.017.072.038ZM31.122 5.954c-.016.017-.06.065-.096.11l-.066.079.048.038c.082.067.67.585.67.591 0 .005-.187.225-.246.29-.015.016.001-.027.06-.156l.045-.104-.07-.07a.792.792 0 0 0-.282-.18.608.608 0 0 0-.339.002.5.5 0 0 0-.2.162c-.007.013-.017.023-.022.023-.017 0-.064.103-.084.178a.47.47 0 0 0 .056.374c.072.12.28.288.354.29.018 0-.002.028-.072.107-.052.06-.094.115-.09.124.004.009.058.061.12.115.088.078.117.095.124.08.007-.01.129-.155.274-.32.25-.288.266-.304.31-.304.024 0 .05.006.058.01a.201.201 0 0 0 .064.027c.05.015.14.097.172.16.017.032.017.088 0 .099-.006.004-.013.018-.013.032 0 .056-.144.145-.235.145-.046 0-.155-.063-.193-.11-.045-.06-.054-.055-.168.079l-.086.101.061.064c.197.207.46.251.688.119a.53.53 0 0 0 .143-.808.723.723 0 0 0-.256-.192c-.028-.008-.028-.01.024-.073l.055-.064.314.273c.173.151.315.28.316.288.001.008.04.055.087.105.047.05.084.096.083.1-.004.01-.807.782-.932.894l-.064.06.112.124.111.123.069-.066c.037-.035.262-.252.498-.482.238-.228.436-.416.44-.416.013 0 .898 1.031.907 1.056.006.016-.11.128-.133.125-.005 0-.093-.097-.196-.217-.196-.226-.282-.305-.398-.368-.063-.034-.084-.038-.193-.038-.112 0-.127.004-.187.038a.49.49 0 0 0-.257.334c-.019.078-.019.09 0 .18.019.085.03.107.102.193.14.167.229.22.375.221a.28.28 0 0 0 .157-.034.443.443 0 0 0 .19-.184l.027-.054-.127-.134a.755.755 0 0 0-.139-.126.226.226 0 0 0-.026.083c-.016.082-.038.107-.092.107-.051 0-.098-.034-.126-.093-.03-.06-.023-.116.023-.163.066-.067.148-.059.236.022.07.066.383.428.383.443 0 .007-.14.13-.313.276a6.206 6.206 0 0 0-.32.281c-.007.023.188.258.206.249l.519-.443c.276-.24.51-.438.519-.443.01-.006.038.016.078.063.052.063.058.076.04.086-.017.01-.009.027.055.12.041.06.075.108.073.11-.007.006-.452.32-.458.323-.014.008-.115.14-.152.2a.466.466 0 0 0-.047.298c.007.068.02.097.086.198.046.07.102.137.14.166a.335.335 0 0 1 .061.056c.002.008-.159.13-.172.13a.638.638 0 0 1-.08-.063.59.59 0 0 0-.254-.131 1.257 1.257 0 0 1-.097-.034c-.03-.013-.038.025-.038.185v.134l.075.028c.106.04.13.054.164.098.089.12.084.205-.014.254-.123.06-.188.024-.324-.188a.976.976 0 0 1-.128-.455c-.007-.096-.004-.12.02-.176.016-.034.025-.065.02-.07a1.498 1.498 0 0 0-.28-.027l-.075-.001.006.252c.007.25.007.256.053.392.066.191.206.419.312.507.174.143.322.17.518.095a.52.52 0 0 0 .26-.246.348.348 0 0 0 .022-.157l-.003-.097.524-.374c.29-.205.53-.375.535-.376.017-.005.15.194.14.207-.007.008.063.142.16.313.166.29.17.301.16.351a.384.384 0 0 1-.198.237.219.219 0 0 1-.202-.027c-.092-.063-.137-.143-.185-.335a1.547 1.547 0 0 0-.037-.135 2.736 2.736 0 0 0-.264.148l.017.054c.04.117.04.117-.028.163a.58.58 0 0 0-.253.355c-.031.168.016.313.17.527.05.068.098.13.109.14.015.011.037.002.115-.047.053-.034.113-.073.133-.09l.036-.025-.085-.066a.388.388 0 0 1-.169-.322c0-.078.006-.096.039-.143a.34.34 0 0 1 .073-.076c.035-.021.036-.021.091.038.057.06.174.126.273.155.168.047.364-.03.519-.204l.06-.066.095.17c.053.093.106.175.116.18.014.008.053-.01.129-.06a.466.466 0 0 0 .106-.08 34.935 34.935 0 0 0-.368-.64c-.265-.454-.364-.634-.355-.646.009-.012-.117-.192-.46-.658-.432-.585-.473-.646-.458-.67.016-.023-.03-.08-.559-.69a37.271 37.271 0 0 0-.862-.961c-.202-.209-.284-.304-.279-.318.007-.016-.19-.19-.746-.668-.415-.354-.787-.674-.828-.71l-.072-.064-.032.03Zm.063.931c.038.017.082.06.133.122l.074.096-.091.108-.091.108-.065-.01c-.136-.016-.26-.115-.29-.232-.013-.049-.012-.062.014-.11a.201.201 0 0 1 .198-.117c.034.004.087.02.118.035Zm3.504 3.237c.134.183.135.184.107.205-.014.012-.134.097-.264.19-.268.19-.262.188-.385.102a.28.28 0 0 1-.13-.176c-.016-.06.004-.119.06-.173.052-.05.457-.339.468-.335.007.003.071.087.144.187ZM3.52 13.355a.732.732 0 0 0-.313.186.593.593 0 0 0-.2.473c0 .185.057.322.19.46a.676.676 0 0 0 .627.189.82.82 0 0 0 .34-.18.85.85 0 0 0 .183-.329.67.67 0 0 0-.352-.734.908.908 0 0 0-.171-.069.793.793 0 0 0-.305.004ZM35.81 13.354a.748.748 0 0 0-.447.36.626.626 0 0 0 .01.607.59.59 0 0 0 .28.276c.223.109.423.107.632-.003.19-.1.303-.256.346-.476a.39.39 0 0 0 0-.21.627.627 0 0 0-.18-.361.911.911 0 0 0-.277-.18.913.913 0 0 0-.364-.013ZM37.263 15.592c-.316.32-.409.431-.472.565l-.051.108-.05-.095c-.138-.262-.373-.369-.67-.304a.666.666 0 0 0-.385.277c-.054.084-.076.231-.06.395.011.107.246 1.153.263 1.17.004.004 2.103-.466 2.11-.473a7.126 7.126 0 0 0-.103-.426 9.7 9.7 0 0 0-.433.093 7.255 7.255 0 0 1-.438.092.855.855 0 0 1-.049-.244c.001-.104.084-.238.244-.398.044-.044.166-.171.271-.284l.192-.206-.058-.254c-.032-.14-.06-.255-.062-.258a4.753 4.753 0 0 0-.25.242Zm-.916.73c.082.043.124.138.21.48.07.276.07.28.043.286-.123.03-.492.107-.495.105a6.968 6.968 0 0 1-.112-.467c-.047-.224-.032-.306.072-.377a.278.278 0 0 1 .282-.027ZM2.494 15.404l-.058.206c-.032.11-.056.204-.053.207.008.007 2.08.555 2.085.55.008-.008.12-.407.115-.411-.004-.004-2.075-.556-2.086-.556-.002 0-.003.001-.003.004ZM2.267 16.193l-.038.2a1.708 1.708 0 0 0-.034.2c.003.002.31.06.684.127.457.083.67.126.654.133-.014.006-.352.14-.75.296-.399.158-.727.29-.73.292a5.03 5.03 0 0 0-.076.426c.006.008 2.119.385 2.124.38.008-.008.07-.392.064-.398-.003-.003-.317-.06-.698-.128-.458-.081-.683-.126-.667-.133l.77-.303c.409-.162.747-.296.75-.299a5.37 5.37 0 0 0 .075-.412c-.003-.004-2.109-.385-2.124-.385-.003 0-.004.003-.004.004ZM36.565 17.798c-.38.033-.695.06-.697.063-.006.007.033.433.04.44 0 .002.268-.02.593-.05.697-.063.94-.076 1.018-.053.032.009.08.038.113.07.072.068.11.164.117.313.011.187-.038.288-.179.371-.065.04-.15.05-1.005.127-.317.03-.58.056-.582.058-.005.005.034.431.04.438.004.004 1.272-.11 1.35-.122.15-.023.355-.078.431-.117a.632.632 0 0 0 .27-.29c.058-.158.067-.235.06-.46-.01-.303-.063-.471-.2-.634a.513.513 0 0 0-.26-.168c-.153-.055-.302-.053-1.109.014ZM1.92 18.351l-.039.398c-.043.44-.048.696-.018.82.05.203.184.371.39.492.16.095.294.133.55.158.293.027.465.013.645-.058a.623.623 0 0 0 .26-.145.877.877 0 0 0 .214-.277c.026-.05.068-.226.085-.352.012-.094.073-.852.068-.857-.004-.003-2.1-.187-2.151-.188-.003 0-.004.004-.004.01Zm1.04.523c.384.032.7.06.702.062.005.007-.055.466-.072.548a.268.268 0 0 1-.074.137c-.112.12-.219.153-.499.153-.281 0-.556-.067-.683-.166-.093-.071-.128-.228-.107-.476a6.32 6.32 0 0 1 .03-.317c.002 0 .318.026.702.06ZM36.456 19.709a.493.493 0 0 0-.248.138.812.812 0 0 0-.157.253c-.027.082-.043.326-.051.782l-.008.431h.038l1.08.02c.576.012 1.047.019 1.049.017.002-.003.007-.102.012-.222l.01-.22-.41-.009-.41-.009v-.318c-.002-.368-.012-.43-.102-.586-.122-.211-.3-.303-.584-.3a.9.9 0 0 0-.219.023Zm.374.462c.06.03.11.09.129.154.008.028.017.162.02.31l.006.262-.223-.008c-.122-.005-.258-.01-.302-.01h-.081v-.122c0-.226.023-.4.062-.474a.228.228 0 0 1 .164-.133.315.315 0 0 1 .225.021ZM2.815 20.46c-.336.004-.702.01-.815.01l-.203.002.009.22c.005.122.01.222.013.224.005.006 2.157-.037 2.162-.043.003-.003.002-.1-.004-.216l-.01-.211-.271.002-.881.012ZM1.832 21.194l.016.237.008.117.066.02.24.068c.094.027.177.053.183.058a9.8 9.8 0 0 1 .063.844 3.9 3.9 0 0 1-.233.114 6.312 6.312 0 0 0-.228.11 6.37 6.37 0 0 0 .038.466c.004.004 2.075-.988 2.087-.999a6.353 6.353 0 0 0-.027-.466 625.472 625.472 0 0 0-2.197-.68c-.022-.01-.023-.002-.016.11Zm1.419.754.288.083-.38.165c-.21.09-.38.162-.38.157l-.02-.271-.02-.272c0-.008.05.005.512.138ZM35.964 21.588l-.019.205a1.822 1.822 0 0 0-.015.199c.002.002.304.034.672.072.366.037.677.07.69.076.018.007-.187.11-.716.361-.407.195-.74.357-.74.362l-.026.21a2.056 2.056 0 0 0-.02.208c.005.006 2.144.227 2.15.222a5.08 5.08 0 0 0 .05-.412 25.51 25.51 0 0 0-.671-.072c-.368-.037-.671-.07-.678-.076-.005-.004.31-.16.7-.347.391-.185.718-.342.727-.347.014-.009.063-.432.051-.444-.004-.004-2.123-.229-2.15-.229-.004 0-.005.006-.005.012ZM3.13 23.227c-.576.118-1.05.216-1.052.219-.005.005.084.391.092.4.002.002 1.246-.256 1.336-.278.024-.006.024-.006 0 .017l-.558.527-.569.538-.036.035.046.216c.026.118.048.216.05.22.004.003 2.104-.441 2.112-.448a5.749 5.749 0 0 0-.078-.4 78.553 78.553 0 0 0-1.35.286c-.049.01-.049.01-.026-.012l.57-.54.582-.55.036-.035-.039-.203-.039-.208c0-.007-.06.005-1.078.216ZM36.775 23.875c-.593.094-1.103.172-1.133.178l-.053.008-.052.224c-.03.125-.05.23-.044.236.009.008 1.866 1.256 1.902 1.277.016.01.126-.436.11-.45a8.99 8.99 0 0 0-.216-.139c-.113-.07-.206-.13-.21-.131-.004-.004.186-.808.194-.816.003-.004.122-.025.262-.046.14-.021.256-.041.258-.044.004-.002.107-.452.107-.463 0-.008-.036-.003-1.125.166Zm.093.45-.06.26c-.03.134-.06.248-.065.254a2.77 2.77 0 0 1-.344-.203 4.704 4.704 0 0 1-.33-.22c.006-.007.71-.1.782-.106.014-.001.02.006.017.015ZM35.28 25.172l-.097.266-.082.23.29.558c.157.308.283.562.278.564-.005.002-.203-.066-.438-.148-.237-.083-.432-.15-.433-.148-.01.01-.147.396-.142.4.008.008 2.03.74 2.034.736.008-.01.146-.407.142-.413-.003-.002-.143-.054-.311-.115a12.335 12.335 0 0 1-.31-.116l-.106-.216c-.1-.205-.103-.214-.075-.22.015-.003.274-.052.573-.105.3-.054.547-.102.55-.104.01-.01.197-.525.193-.53-.003-.001-.348.076-.767.174l-.764.177-.252-.512a8.1 8.1 0 0 0-.26-.513c-.005 0-.016.016-.023.035ZM3.86 25.991l-1.024.331a2 2 0 0 0 .06.212c.054.174.069.206.087.201l1.029-.33a77.56 77.56 0 0 0 1.011-.326 3.471 3.471 0 0 0-.134-.415c-.005 0-.467.147-1.029.327ZM4.142 26.695c-.538.227-.983.414-.985.418-.01.01.154.378.167.373.007-.004.294-.122.636-.264.342-.144.622-.258.623-.255.003.002-.193.278-.432.615l-.466.658-.032.047.083.195c.046.108.086.197.088.2.003.004 1.973-.832 1.982-.841a1.897 1.897 0 0 0-.167-.372c-.008.002-.3.127-.649.276l-.638.27c-.003 0 .208-.297.467-.66l.482-.675c.01-.015-.155-.4-.17-.398-.003 0-.45.187-.989.413ZM34.233 27.722a2.188 2.188 0 0 0-.114.22c0 .008.108.198.24.42.134.222.24.406.237.408-.003.003-.221.012-.486.02s-.483.017-.487.02c-.011.013-.244.447-.24.45.002.002.335-.018.741-.043l.736-.046.387.218.394.225c.006.003.137-.217.224-.38a5.877 5.877 0 0 0-.395-.226l-.403-.218-.346-.637c-.19-.35-.353-.636-.36-.636-.007 0-.065.092-.127.205ZM5.544 28.196a.512.512 0 0 0-.347.31.498.498 0 0 0-.058.218c-.011.146.007.249.094.559.06.214.07.26.064.328-.009.116-.026.143-.113.184-.072.033-.08.034-.15.02a.353.353 0 0 1-.24-.163.541.541 0 0 1-.117-.3c-.008-.088-.006-.102.027-.168a.8.8 0 0 1 .097-.142c.04-.044.06-.076.054-.087l-.125-.176-.114-.159-.035.025c-.07.052-.205.213-.255.305a.606.606 0 0 0-.072.358c.034.322.298.74.545.868.217.11.41.113.618.007.187-.096.33-.3.344-.486.006-.099-.017-.225-.11-.589-.07-.283-.08-.385-.042-.447a.189.189 0 0 1 .144-.081c.05 0 .16.073.207.14.07.099.126.225.134.299.009.082-.026.16-.1.232l-.05.046.116.187.117.186.04-.022a.796.796 0 0 0 .231-.255.58.58 0 0 0 .05-.341c-.03-.196-.101-.354-.25-.559a.729.729 0 0 0-.346-.279.562.562 0 0 0-.358-.018ZM6.576 29.48l-.15.116c-.002.002.083.119.188.26.106.14.19.255.19.257l-.704.524-.709.53c-.012.011.243.352.258.348.007-.002.325-.237.708-.523.383-.287.7-.522.707-.523.005-.002.095.106.198.24.104.134.194.242.202.24.006-.002.075-.05.152-.104.09-.063.137-.107.13-.115a236.94 236.94 0 0 0-1.01-1.345c-.011-.014-.045.006-.16.096ZM33.304 29.511a.858.858 0 0 0-.378.251 1.353 1.353 0 0 0-.348.573.626.626 0 0 0-.02.25.91.91 0 0 0 .212.578c.082.099.237.24.35.314.08.055.335.16.43.178.289.054.529.009.746-.138a1.3 1.3 0 0 0 .433-.518c.1-.196.136-.344.147-.604l.006-.166-.338-.222-.366-.24c-.024-.015-.04.003-.283.354-.14.203-.26.376-.264.385-.007.01.04.05.137.117.081.055.153.101.16.103.006.002.071-.086.146-.196l.134-.2.11.069.112.068v.064c0 .107-.039.285-.08.373a.588.588 0 0 1-.358.316c-.157.054-.313.034-.51-.066-.215-.106-.41-.281-.477-.431-.028-.062-.034-.09-.034-.197a.593.593 0 0 1 .108-.356.519.519 0 0 1 .265-.212.69.69 0 0 1 .258-.006c.025.009.035-.008.119-.198.05-.113.09-.207.087-.21-.02-.02-.164-.044-.284-.05a.58.58 0 0 0-.22.017ZM7.07 31.508c-.454.373-.827.685-.828.691-.001.006.06.087.136.18.092.11.144.166.153.158.05-.038 1.623-1.348 1.636-1.36.012-.01-.014-.05-.113-.166-.07-.082-.136-.159-.144-.166-.013-.014-.19.127-.84.663ZM32.09 31.153c-.24.029-.494.177-.685.405-.212.25-.293.486-.256.748.025.171.06.269.144.4.131.205.322.39.536.524a.8.8 0 0 0 .274.108c.145.037.183.042.264.036.152-.014.287-.048.38-.096.122-.062.331-.24.418-.351.072-.093.182-.31.209-.41.019-.074.018-.34-.004-.42a1.338 1.338 0 0 0-.302-.512 2.67 2.67 0 0 0-.34-.284 1.276 1.276 0 0 0-.393-.138.698.698 0 0 0-.245-.01Zm.272.473c.216.102.455.324.548.51.068.138.07.335.004.473a.526.526 0 0 1-.277.261c-.145.071-.218.083-.358.054-.26-.054-.563-.318-.67-.585a.431.431 0 0 1-.036-.198c0-.11.002-.118.056-.222a.6.6 0 0 1 .286-.292c.104-.051.106-.051.233-.047a.45.45 0 0 1 .214.046ZM8.179 31.456l-.134.128.227.223.228.224-.636.63c-.35.346-.637.631-.637.633 0 0 .07.07.158.153l.158.151.634-.621.635-.622.226.221.226.222.132-.134.13-.134-.484-.481-.608-.6-.122-.119-.133.126ZM9.188 33.008c-.52.626-.646.808-.681.972-.046.225.017.427.195.618.088.093.278.243.383.302a.673.673 0 0 0 .319.108c.191.02.304-.023.507-.198a.99.99 0 0 0 .124-.115c0-.005.036-.051.078-.101l.433-.526c.194-.24.361-.443.371-.455.014-.018-.002-.035-.14-.143l-.172-.133c-.009-.008-.157.163-.405.464-.47.573-.622.737-.705.761a.33.33 0 0 1-.26-.025c-.17-.08-.293-.247-.293-.402 0-.105.057-.188.527-.77.248-.306.454-.561.456-.567a1.046 1.046 0 0 0-.151-.13l-.171-.132c-.01-.008-.157.161-.415.471ZM29.805 33.044c-.144.12-.167.144-.153.16.026.035 1.296 1.597 1.312 1.614.012.014.148-.089.601-.453.323-.258.589-.474.59-.48a1.125 1.125 0 0 0-.11-.148l-.114-.135-.033.023c-.018.015-.207.164-.419.335-.298.24-.388.307-.4.293l-.538-.66a64.809 64.809 0 0 0-.545-.666c-.02-.022-.03-.015-.191.117ZM10.906 33.745a1.78 1.78 0 0 0-.102.157c-.002.007.116.089.262.182l.266.168-.487.748a15.16 15.16 0 0 0-.478.757c.02.017.345.22.359.225.009.002.232-.329.502-.741l.486-.745.262.176.263.176.023-.03c.022-.028.024-.027.004.018-.009.025-.183.397-.385.826-.202.43-.365.784-.362.786.007.008 1.477.688 1.48.684.005-.007.16-.325.16-.33 0-.003-.244-.116-.54-.251a9.017 9.017 0 0 1-.54-.26c0-.004.055-.121.122-.258l.12-.248.396.18.485.223c.049.022.09.04.091.038a4 4 0 0 0 .157-.335 41.714 41.714 0 0 0-.478-.222c-.26-.118-.477-.218-.482-.222a3.57 3.57 0 0 1 .173-.414c.004-.005.242.099.53.231.288.133.524.24.525.238.013-.016.16-.329.156-.332a62.328 62.328 0 0 0-1.438-.668 17.079 17.079 0 0 1-.713-.444l-.706-.448a.512.512 0 0 0-.111.135ZM29.02 33.632c-.122.029-.356.15-.469.243-.208.172-.325.34-.376.547-.026.101-.024.286.001.402a1.7 1.7 0 0 0 .354.674c.075.086.24.21.352.268a.947.947 0 0 0 .602.062c.156-.033.395-.162.549-.294a.864.864 0 0 0 .307-.496c.085-.339-.032-.687-.365-1.087a1.002 1.002 0 0 0-.382-.268l-.146-.06-.174-.004a1.17 1.17 0 0 0-.253.013Zm.387.44c.217.1.487.498.513.756a.684.684 0 0 1-.05.3.502.502 0 0 1-.203.205.53.53 0 0 1-.435.088c-.217-.052-.408-.232-.547-.514-.082-.167-.103-.272-.08-.401.04-.231.161-.368.405-.46a.589.589 0 0 1 .397.026ZM27.546 34.516a6.143 6.143 0 0 0-.184.089c-.003.001.132.289.298.639.166.35.3.636.3.637-.003.002-.227-.143-.5-.323l-.694-.46-.2-.13-.192.091c-.104.052-.193.095-.194.098-.004.002.903 1.925.912 1.936.004.003.367-.162.378-.173.002-.002-.129-.28-.292-.619a29.345 29.345 0 0 1-.293-.617c.003-.003.27.17.595.384l.682.444.092.059.201-.095c.11-.051.2-.097.198-.102a124.9 124.9 0 0 0-.921-1.944c-.004 0-.089.04-.186.086ZM25.715 35.304l-.203.075c0 .002.06.173.138.38.077.207.143.383.144.392.004.017-.762.304-.776.29a10.812 10.812 0 0 1-.15-.388 13.431 13.431 0 0 0-.147-.384 5.375 5.375 0 0 0-.416.143c-.004.004.736 2.006.745 2.015.004.005.393-.134.403-.145a11.51 11.51 0 0 0-.149-.423l-.158-.438c-.002-.011.113-.059.388-.158a4.21 4.21 0 0 1 .4-.133c.005.004.08.202.166.439.093.253.163.428.172.425l.21-.075c.161-.056.196-.073.19-.09-.006-.012-.17-.456-.367-.987-.196-.531-.362-.976-.366-.99-.005-.011-.013-.022-.018-.02-.004 0-.096.032-.206.072ZM15.084 35.713a1.03 1.03 0 0 0-.377.212c-.167.16-.233.27-.333.552-.089.252-.107.463-.06.675.031.132.053.184.132.304.07.108.103.142.214.227.237.18.589.276.855.234.243-.038.367-.096.53-.25.096-.092.198-.23.24-.324.182-.426.194-.845.028-1.134a1.257 1.257 0 0 0-.287-.302c-.25-.174-.713-.268-.942-.194Zm.477.397c.2.048.329.169.397.367.051.154.02.394-.087.644a2.79 2.79 0 0 1-.079.167.68.68 0 0 1-.245.193c-.08.04-.091.04-.238.04-.142 0-.16-.003-.225-.039-.187-.097-.295-.231-.323-.398-.042-.246.082-.666.249-.844.135-.144.316-.186.551-.13ZM23.42 35.961c-.019.003-.085.02-.15.037a.935.935 0 0 0-.508.323c-.14.176-.183.282-.216.539-.03.226.04.557.17.799.12.222.324.405.533.477.241.084.587.051.832-.079.104-.055.296-.24.34-.327.065-.134.13-.477.088-.477l-.22-.014a2.8 2.8 0 0 0-.21-.01c0 .003-.01.057-.017.12-.026.214-.081.306-.229.382a.482.482 0 0 1-.31.06c-.26-.045-.384-.2-.49-.613a.998.998 0 0 1-.041-.3c0-.143 0-.145.052-.25a.367.367 0 0 1 .134-.169c.195-.148.433-.148.61 0 .031.026.067.07.081.099l.026.051.207-.106.207-.105-.036-.05c-.124-.167-.255-.284-.378-.332a1.174 1.174 0 0 0-.476-.055ZM16.851 36.048l-.205 1.054a51.009 51.009 0 0 0-.2 1.055c.006.007.422.083.427.078.003-.002.044-.197.093-.434.047-.235.09-.43.092-.434a9.03 9.03 0 0 1 .435.08c.236.045.431.08.434.078.008-.008.082-.366.077-.372-.003-.002-.2-.04-.438-.081a14.106 14.106 0 0 1-.438-.082c-.006-.005.09-.469.097-.477.003-.002.23.038.505.092.276.053.503.095.505.094.007-.008.081-.355.076-.36a30.742 30.742 0 0 0-.696-.142l-.728-.146c-.02-.004-.036-.006-.036-.003ZM21.504 36.308c-.416.036-.76.066-.762.069-.005.005.175 2.127.18 2.134.007.005 1.63-.126 1.637-.133a4.56 4.56 0 0 0-.027-.372c-.002-.002-.268.02-.592.049-.325.027-.593.05-.594.047a9.159 9.159 0 0 1-.05-.556c.003-.004.244-.026.536-.051.292-.025.532-.047.534-.05a3.817 3.817 0 0 0-.04-.359 14.68 14.68 0 0 0-.535.041c-.292.025-.533.045-.536.042a5.387 5.387 0 0 1-.036-.45 62.12 62.12 0 0 1 1.144-.11c.005 0 .006-.042.002-.092l-.015-.184-.008-.092-.041.002-.797.065ZM18.997 36.512a1.65 1.65 0 0 0-.003.183c.002.002.145.011.318.02.172.007.315.015.317.018.003.001-.01.398-.028.882-.018.482-.03.879-.03.88.003.003.105.008.227.013.182.008.22.007.22-.008 0-.113.053-1.752.057-1.755.003-.003.134 0 .292.008l.315.014c.027 0 .028-.008.037-.185.005-.102.006-.187.004-.19-.004-.004-1.583-.059-1.701-.059-.01 0-.018.06-.025.179Z" fill="#fff"/></svg>