<svg width="24" height="25" fill="none" xmlns="http://www.w3.org/2000/svg"><g fill="#000"><path d="M18 8.045c0-1.71-.632-3.348-1.757-4.557C15.117 2.28 13.59 1.601 12 1.601c-1.591 0-3.117.679-4.243 1.887C6.632 4.697 6 6.336 6 8.045 6 11.603 12 20.6 12 20.6s6-8.998 6-12.556Zm-9.913 0c0-.831.23-1.644.66-2.335a3.988 3.988 0 0 1 1.755-1.548 3.663 3.663 0 0 1 2.261-.24c.76.163 1.457.563 2.004 1.151.547.588.92 1.337 1.07 2.152.152.815.074 1.66-.222 2.428a4.153 4.153 0 0 1-1.441 1.886c-.643.462-1.4.709-2.174.709-1.038 0-2.033-.443-2.767-1.231a4.366 4.366 0 0 1-1.146-2.972Z"/><path d="M15.077 16.604c-.458.75-.903 1.443-1.296 2.036 1.662.226 2.825.76 2.825 1.386 0 .826-2.06 1.499-4.606 1.499s-4.606-.666-4.606-1.5c0-.63 1.17-1.162 2.828-1.385a69.506 69.506 0 0 1-1.296-2.04C4.905 17.058 2 18.41 2 20.013c0 1.983 4.477 3.589 10 3.589s10-1.606 10-3.589c0-1.602-2.905-2.955-6.923-3.408Z"/></g></svg>