<svg width="30" height="31" fill="none" xmlns="http://www.w3.org/2000/svg"><path d="M24.938 26.691c-2.688 0-5.308-.599-7.86-1.797a23.862 23.862 0 0 1-11.53-11.531C4.35 10.81 3.75 8.19 3.75 5.503c0-.374.125-.687.375-.937s.563-.375.938-.375h5.062a1.2 1.2 0 0 1 .781.282 1.1 1.1 0 0 1 .406.718l.813 4.375a2.24 2.24 0 0 1-.016.798 1.28 1.28 0 0 1-.359.64l-3 3.062a20.762 20.762 0 0 0 3.281 4.22 22.869 22.869 0 0 0 4.344 3.405l2.938-2.937c.187-.188.432-.328.735-.421.302-.094.599-.12.89-.08l4.312.876c.292.062.531.203.719.422.187.22.281.475.281.765v5.063c0 .375-.125.687-.375.937s-.563.375-.938.375Z" fill="#000"/></svg>