<svg width="24" height="25" fill="none" xmlns="http://www.w3.org/2000/svg"><path d="M16.36 14.941c.08-.66.14-1.32.14-2 0-.68-.06-1.34-.14-2h3.38c.16.64.26 1.31.26 2s-.1 1.36-.26 2m-5.15 5.56c.6-1.11 1.06-2.31 1.38-3.56h2.95a8.03 8.03 0 0 1-4.33 3.56Zm-.25-5.56H9.66c-.1-.66-.16-1.32-.16-2 0-.68.06-1.35.16-2h4.68c.09.65.16 1.32.16 2 0 .68-.07 1.34-.16 2ZM12 20.901c-.83-1.2-1.5-2.53-1.91-3.96h3.82c-.41 1.43-1.08 2.76-1.91 3.96ZM8 8.941H5.08a7.923 7.923 0 0 1 4.32-3.56c-.6 1.11-1.05 2.31-1.4 3.56Zm-2.92 8H8c.35 1.25.8 2.45 1.4 3.56a8.008 8.008 0 0 1-4.32-3.56Zm-.82-2c-.16-.64-.26-1.31-.26-2s.1-1.36.26-2h3.38c-.08.66-.14 1.32-.14 2 0 .68.06 1.34.14 2M12 4.971c.83 1.2 1.5 2.54 1.91 3.97h-3.82c.41-1.43 1.08-2.77 1.91-3.97Zm6.92 3.97h-2.95a15.65 15.65 0 0 0-1.38-3.56c1.84.63 3.37 1.9 4.33 3.56Zm-6.92-6c-5.53 0-10 4.5-10 10a10 10 0 1 0 10-10Z" fill="#fff"/></svg>