<svg width="30" height="31" fill="none" xmlns="http://www.w3.org/2000/svg"><path d="M23.75 4.691a2.5 2.5 0 0 1 2.5 2.5v17.5a2.5 2.5 0 0 1-2.5 2.5H6.25a2.5 2.5 0 0 1-2.5-2.5v-17.5a2.5 2.5 0 0 1 2.5-2.5h17.5Zm-.625 19.375v-6.625a4.075 4.075 0 0 0-4.075-4.075c-1.063 0-2.3.65-2.9 1.625v-1.387h-3.487v10.462h3.487v-6.162c0-.963.775-1.75 1.738-1.75a1.75 1.75 0 0 1 1.75 1.75v6.162h3.487ZM8.6 11.641a2.1 2.1 0 0 0 2.1-2.1A2.107 2.107 0 0 0 8.6 7.43 2.112 2.112 0 0 0 6.488 9.54c0 1.163.95 2.1 2.112 2.1Zm1.738 12.425V13.604H6.875v10.462h3.463Z" fill="#000"/></svg>