<svg width="30" height="31" fill="none" xmlns="http://www.w3.org/2000/svg"><path d="M3.83 9.829A12.495 12.495 0 0 1 15 2.94c3.369 0 6.199 1.24 8.363 3.257l-3.584 3.585c-1.296-1.24-2.944-1.87-4.779-1.87-3.256 0-6.012 2.2-6.994 5.153-.25.75-.392 1.55-.392 2.375s.142 1.625.392 2.375C8.99 20.771 11.744 22.97 15 22.97c1.681 0 3.113-.444 4.233-1.194a5.75 5.75 0 0 0 2.494-3.772H15v-4.835h11.773c.147.817.227 1.67.227 2.556 0 3.808-1.363 7.013-3.727 9.188-2.068 1.91-4.898 3.028-8.273 3.028a12.493 12.493 0 0 1-12.5-12.5c0-2.017.482-3.925 1.33-5.612Z" fill="#000"/></svg>