<svg width="80" height="57" fill="none" xmlns="http://www.w3.org/2000/svg"><g clip-path="url(#a)"><mask id="b" style="mask-type:luminance" maskUnits="userSpaceOnUse" x="0" y="0" width="80" height="57"><path d="M80 0H0v56.4h80V0Z" fill="#fff"/></mask><g mask="url(#b)"><path d="M41.963 56.132c20.453 0 37.033-10.306 37.033-23.019 0-12.712-16.58-23.018-37.033-23.018C21.51 10.095 4.93 20.4 4.93 33.113c0 12.713 16.58 23.019 37.033 23.019Z" fill="#fff" stroke="#132249" stroke-width=".536" stroke-miterlimit="10"/><path d="M42.118 53.47c19.155 0 34.684-9.079 34.684-20.278 0-11.2-15.529-20.279-34.684-20.279-19.156 0-34.684 9.08-34.684 20.279 0 11.2 15.528 20.278 34.684 20.278Z" fill="#132249"/><path d="M16.744 40.565c.1-.57.15-1.248.15-2.03 0-1.766-.316-3.977-.951-6.631-.296-1.253-.555-2.102-.777-2.546a2.685 2.685 0 0 0-1.016-1.11c.534-.572.976-.857 1.325-.857.666 0 1.3 1.073 1.904 3.22.793 2.808 1.19 5.428 1.19 7.86 3.32-4.436 4.98-7.477 4.98-9.121 0-.233-.06-.458-.182-.675.444-.3.9-.452 1.364-.452.423 0 .635.204.635.611 0 .703-.455 1.856-1.364 3.458-.91 1.597-2.168 3.459-3.776 5.584-.84 1.105-1.438 1.796-1.792 2.07-.35.27-.913.476-1.69.62Zm8.368-7.884a1.935 1.935 0 0 1-.206-.825c0-.91.735-1.742 2.205-2.498 1.475-.756 3.093-1.135 4.854-1.135.984 0 1.777.188 2.38.564.608.375.912.867.912 1.475 0 1.126-.801 2.184-2.404 3.173.936.253 1.669.637 2.198 1.15.534.513.8 1.094.8 1.745 0 1.28-.695 2.369-2.085 3.267-1.391.9-3.075 1.349-5.053 1.349-1.454 0-2.181-.457-2.181-1.372 0-.217.08-.725.238-1.523l1.118-5.624c.09-.45.135-.77.135-.96a.778.778 0 0 0-.19-.507c.698-.265 1.187-.397 1.467-.397.328 0 .492.188.492.563 0 .096-.087.56-.262 1.396l-1.039 5.212c-.116.602-.174.996-.174 1.181 0 .667.634 1 1.903 1 1.042 0 1.933-.299 2.673-.896.746-.603 1.118-1.325 1.118-2.166 0-.656-.206-1.169-.618-1.539-.413-.37-1.1-.655-2.062-.856-.344.137-.72.206-1.127.206-.137 0-.31-.024-.515-.071.153-.566.343-.947.57-1.143.233-.195.606-.293 1.12-.293.131 0 .308.008.53.024 1.127-.825 1.69-1.642 1.69-2.451 0-.957-.73-1.436-2.19-1.436-2.363 0-4.462 1.13-6.297 3.387Zm22.146 4.307c.1.238.15.426.15.563 0 .688-.59 1.36-1.769 2.015-1.174.655-2.38.983-3.616.983-1.354 0-2.425-.394-3.213-1.181-.782-.788-1.174-1.867-1.174-3.237 0-2.162.709-4.021 2.126-5.576 1.417-1.554 3.112-2.332 5.084-2.332.804 0 1.48.143 2.03.429.55.285.826.634.826 1.047 0 .37-.238.777-.714 1.221-.64-1.28-1.547-1.92-2.72-1.92-1.286 0-2.407.67-3.364 2.008-.957 1.332-1.436 2.89-1.436 4.671 0 1.137.286 2.039.857 2.705.576.66 1.354.991 2.332.991 1.671 0 3.205-.795 4.6-2.387Zm1.72-4.275a1.307 1.307 0 0 1-.325-.889c0-.877.743-1.697 2.23-2.458a10.385 10.385 0 0 1 4.79-1.143c2.623 0 3.934.836 3.934 2.507 0 .809-.283 1.499-.849 2.07-.56.566-1.54 1.155-2.942 1.769 1.264 2.882 2.353 4.323 3.268 4.323.48 0 .996-.339 1.546-1.016.027.133.04.225.04.278 0 .444-.262.907-.785 1.388-.524.476-1.029.714-1.515.714-1.237 0-2.557-1.687-3.958-5.06-.28.079-.534.118-.761.118a.752.752 0 0 1-.31-.063c.196-1 .693-1.5 1.491-1.5.159 0 .355.033.587.096 1.735-.582 2.602-1.547 2.602-2.895 0-.497-.249-.904-.746-1.222-.492-.322-1.12-.483-1.887-.483-1.301 0-2.552.325-3.752.975-1.2.645-2.086 1.476-2.657 2.49Zm2.856 8.312c-.54.27-1.028.405-1.467.405-.275 0-.413-.111-.413-.333 0-.117.061-.447.183-.992l1.523-7.678c.09-.444.135-.764.135-.96a.778.778 0 0 0-.19-.507c.702-.265 1.192-.397 1.467-.397.333 0 .5.19.5.571 0 .09-.088.553-.263 1.388l-1.403 7.052c-.101.492-.151.838-.151 1.039 0 .11.026.248.08.412Zm19.933-4.037c.1.238.15.426.15.563 0 .688-.59 1.36-1.769 2.015-1.173.655-2.379.983-3.616.983-1.354 0-2.425-.394-3.213-1.181-.782-.788-1.174-1.867-1.174-3.237 0-2.162.709-4.021 2.126-5.576 1.417-1.554 3.112-2.332 5.084-2.332.804 0 1.48.143 2.03.429.55.285.826.634.826 1.047 0 .37-.238.777-.714 1.221-.64-1.28-1.547-1.92-2.72-1.92-1.286 0-2.407.67-3.364 2.008-.957 1.332-1.435 2.89-1.435 4.671 0 1.137.285 2.039.856 2.705.577.66 1.354.991 2.332.991 1.671 0 3.205-.795 4.6-2.387ZM2.27 11.294c.39-.262.81-.477 1.25-.64a2.68 2.68 0 0 1 .955-.18c.247.002.488.073.696.206.196.133.36.309.477.514.12.202.199.426.232.659.035.255.003.514-.093.753a2.632 2.632 0 0 1-.535.821 5.48 5.48 0 0 1-1.093.882l-.548.357 1.198 1.828c.268-.179.536-.357.809-.536l.178.282a63.817 63.817 0 0 0-2.306 1.55l-.193-.275.76-.536-3.045-4.462c-.275.189-.55.378-.823.571L0 12.826a74.227 74.227 0 0 1 2.27-1.532Zm1.148 3.1.493-.32c.262-.166.51-.353.74-.561.164-.148.293-.33.376-.536a.98.98 0 0 0 .03-.566 2.31 2.31 0 0 0-.293-.67 2.198 2.198 0 0 0-.387-.49.856.856 0 0 0-.47-.214 1.367 1.367 0 0 0-.633.103 4.618 4.618 0 0 0-.871.463l-.58.38 1.595 2.412ZM11.588 12.934a3.284 3.284 0 0 1-.295.199c-.094.053-.178.096-.224.125-.118.063-.24.113-.368.151a.68.68 0 0 1-.264.025.409.409 0 0 1-.193-.082.654.654 0 0 1-.145-.166l-.021.01a1.568 1.568 0 0 1-.11.37c-.046.108-.106.21-.178.304a1.504 1.504 0 0 1-.514.418 1.63 1.63 0 0 1-.464.178 1.07 1.07 0 0 1-.416.014.797.797 0 0 1-.346-.144.892.892 0 0 1-.26-.291c-.195-.334-.163-.696.106-1.082.27-.386.75-.782 1.45-1.171l-.154-.302c-.046-.089-.09-.178-.137-.262a.672.672 0 0 0-.409-.387.857.857 0 0 0-.567.135 1.883 1.883 0 0 0-.379.266 1.07 1.07 0 0 0-.223.279.64.64 0 0 1 .246.094c.062.04.113.094.15.157a.382.382 0 0 1 .032.318.498.498 0 0 1-.244.273.69.69 0 0 1-.179.07.44.44 0 0 1-.178.009.423.423 0 0 1-.291-.21.598.598 0 0 1-.073-.342.953.953 0 0 1 .135-.407c.096-.163.216-.31.357-.435.187-.167.393-.31.614-.427.179-.1.368-.18.564-.237.158-.047.325-.06.488-.038a.815.815 0 0 1 .41.193c.142.128.257.283.34.455.026.05.067.13.124.245.058.114.12.237.179.374.059.138.137.277.209.418.071.141.134.264.19.37.054.105.104.2.149.27a.536.536 0 0 0 .13.153.21.21 0 0 0 .145.043.525.525 0 0 0 .196-.066c.088-.048.173-.1.255-.158l.163.291Zm-2.097-.85a4.981 4.981 0 0 0-.688.452c-.136.103-.253.23-.344.373a.536.536 0 0 0-.08.33.85.85 0 0 0 .112.327.7.7 0 0 0 .37.357.536.536 0 0 0 .433-.059c.094-.053.179-.12.252-.2a1.04 1.04 0 0 0 .205-.314 1.071 1.071 0 0 0-.077-.907c-.057-.126-.121-.239-.183-.358ZM13.423 9.425a1.592 1.592 0 0 0-.28-.378.824.824 0 0 0-.316-.193.808.808 0 0 0-.357-.022 1.639 1.639 0 0 0-.703.31.871.871 0 0 0-.204.203.49.49 0 0 0-.086.23.46.46 0 0 0 .048.243.452.452 0 0 0 .157.19.506.506 0 0 0 .245.069c.123.004.246-.002.368-.02l.535-.07c.166-.023.334-.04.5-.055.157-.014.316-.008.471.018.142.024.277.077.398.155.125.09.222.214.279.357.074.161.1.34.073.516-.03.17-.097.33-.196.471-.109.154-.24.29-.391.402-.16.122-.331.227-.513.312-.098.045-.203.09-.32.13a7.02 7.02 0 0 1-.342.115 4.415 4.415 0 0 1-.623.136l-.566-1.072.286-.139c.087.16.195.306.321.436.095.098.21.173.338.22.12.04.25.048.374.024.15-.027.293-.075.429-.142.11-.05.214-.11.312-.179a.943.943 0 0 0 .218-.21.52.52 0 0 0 .1-.247.492.492 0 0 0-.055-.28.426.426 0 0 0-.143-.179.492.492 0 0 0-.225-.075 1.514 1.514 0 0 0-.334 0c-.132.015-.287.034-.47.057-.181.024-.356.043-.535.06a1.94 1.94 0 0 1-.48-.011 1.023 1.023 0 0 1-.402-.145.822.822 0 0 1-.294-.345.892.892 0 0 1-.098-.5c.018-.164.075-.322.167-.46.1-.152.226-.286.372-.396.158-.123.33-.227.512-.31a3.978 3.978 0 0 1 .628-.23c.11-.03.216-.058.318-.081l.282-.06c.16.34.323.677.484 1.016l-.282.129ZM17.015 7.938a1.572 1.572 0 0 0-.257-.394.759.759 0 0 0-.66-.253 1.498 1.498 0 0 0-.417.108 1.702 1.702 0 0 0-.301.154.934.934 0 0 0-.206.19.491.491 0 0 0-.098.224.47.47 0 0 0 .038.255c.029.08.08.15.146.202a.512.512 0 0 0 .24.082c.118.01.238.01.356 0 .145 0 .32-.023.536-.04.168-.012.334-.02.5-.024.157-.005.314.011.467.046.14.032.271.093.386.178.119.092.209.216.259.357.065.165.08.345.043.518a1.126 1.126 0 0 1-.22.459 1.785 1.785 0 0 1-.41.378 2.798 2.798 0 0 1-.536.28 4.502 4.502 0 0 1-.68.206 5.239 5.239 0 0 1-.338.064 3.598 3.598 0 0 1-.289.034l-.489-1.094.291-.122c.079.164.178.316.296.454a.863.863 0 0 0 .323.239.757.757 0 0 0 .37.048c.15-.019.297-.059.436-.118.111-.042.218-.096.32-.16a.963.963 0 0 0 .228-.197.499.499 0 0 0 .08-.517.427.427 0 0 0-.132-.193.473.473 0 0 0-.22-.088 1.474 1.474 0 0 0-.332-.014c-.132 0-.287.016-.47.029-.181.012-.356.021-.535.027a2.01 2.01 0 0 1-.475-.038 1.07 1.07 0 0 1-.392-.178.832.832 0 0 1-.273-.357.893.893 0 0 1-.07-.506c.027-.162.092-.316.19-.448.109-.146.24-.273.392-.375.164-.112.341-.205.527-.278.096-.04.2-.073.308-.105a5.227 5.227 0 0 1 .648-.149l.288-.039c.143.347.285.693.426 1.04l-.294.115ZM20.17 8.977l.637-.21c.034.107.068.212.104.317-.677.222-1.352.453-2.023.695l-.109-.318.632-.225-.955-2.731c-.221.077-.44.155-.662.235l-.112-.314c.485-.178.972-.346 1.462-.51l1.026 3.061ZM18.362 4.94a.696.696 0 0 1-.227.04.605.605 0 0 1-.205-.036.46.46 0 0 1-.275-.287.42.42 0 0 1-.023-.193.51.51 0 0 1 .201-.35.66.66 0 0 1 .204-.11.682.682 0 0 1 .227-.04c.07 0 .142.012.208.037.064.024.12.061.168.11a.48.48 0 0 1 .06.574.567.567 0 0 1-.338.255ZM20.962 7.235a2.008 2.008 0 0 1-.095-.75c.015-.25.084-.493.202-.714.124-.228.295-.428.502-.585.239-.181.511-.313.801-.39.281-.086.577-.115.87-.085a1.652 1.652 0 0 1 1.226.712 2.132 2.132 0 0 1 .352 1.42 1.816 1.816 0 0 1-.722 1.26 2.19 2.19 0 0 1-.76.37c-.267.08-.547.109-.825.083a1.77 1.77 0 0 1-.689-.212 1.742 1.742 0 0 1-.525-.46 2.057 2.057 0 0 1-.337-.649Zm.857-.28c.069.244.163.48.282.705.081.154.192.291.326.403.111.088.245.14.386.152.313.012.622-.076.882-.252a.751.751 0 0 0 .255-.335 1.36 1.36 0 0 0 .07-.527 3.696 3.696 0 0 0-.13-.762 3.571 3.571 0 0 0-.261-.714 1.276 1.276 0 0 0-.321-.412.714.714 0 0 0-.397-.154 1.415 1.415 0 0 0-.48.057c-.159.041-.309.11-.443.205a.752.752 0 0 0-.26.345 1.29 1.29 0 0 0-.063.536c.023.258.074.513.154.76v-.007ZM27.152 7.051l.587-.125.068.329c-.67.139-1.337.289-2.005.45l-.078-.325.648-.154-.65-2.819-.679.16-.078-.326c.5-.12 1-.235 1.5-.344.042.198.087.396.13.592h.018c.066-.241.2-.46.387-.628.222-.183.49-.303.775-.348.417-.082.748-.043.987.113a1.107 1.107 0 0 1 .455.774l.387 2.17.634-.11.055.33a57.16 57.16 0 0 0-1.997.368c-.022-.11-.043-.22-.066-.328l.589-.116c-.147-.758-.292-1.518-.436-2.278a.623.623 0 0 0-.26-.446.671.671 0 0 0-.502-.061c-.15.03-.29.09-.414.178a.919.919 0 0 0-.29.347c-.076.163-.12.34-.13.52-.013.233.008.468.063.695.105.456.202.92.302 1.382ZM34.742.02c.154-.015.31-.01.462.015.125.023.246.066.357.127a.702.702 0 0 1 .238.21.535.535 0 0 1 .079.461.461.461 0 0 1-.258.284.507.507 0 0 1-.194.045.59.59 0 0 1-.345-.084.395.395 0 0 1-.177-.302.528.528 0 0 1 .179-.43 1.157 1.157 0 0 0-.357-.01c-.114.009-.226.032-.334.069a.5.5 0 0 0-.248.209 1.12 1.12 0 0 0-.134.439c-.022.252-.017.506.014.757l.09.87c.339-.037.676-.069 1.015-.097l.03.332c-.336.03-.674.063-1.012.096l.304 2.88c.234-.025.47-.049.705-.07l.03.334c-.714.065-1.428.143-2.142.232l-.04-.332.658-.079-.33-2.874c-.23.025-.46.054-.69.082-.012-.11-.026-.221-.04-.332l.69-.084c-.014-.137-.03-.276-.046-.414a3.077 3.077 0 0 1 .02-.95c.044-.254.14-.497.282-.713.13-.194.304-.353.508-.465.212-.116.445-.187.686-.207ZM35.68 4.354a2.03 2.03 0 0 1 .073-.752c.069-.237.188-.457.348-.644.17-.194.38-.35.614-.459a2.458 2.458 0 0 1 1.721-.094c.236.08.452.21.632.382.168.164.3.362.384.582a2.122 2.122 0 0 1 .029 1.462 1.818 1.818 0 0 1-.96 1.06c-.259.115-.536.18-.818.19a2.123 2.123 0 0 1-.816-.1 1.704 1.704 0 0 1-1.026-.921 2.062 2.062 0 0 1-.18-.706Zm.893-.084c.013.254.053.506.117.752.045.168.123.327.229.465.086.11.204.19.337.233.15.042.304.059.46.048.154-.006.306-.039.449-.098a.724.724 0 0 0 .321-.272c.093-.151.154-.32.179-.496.042-.255.056-.515.04-.773a3.422 3.422 0 0 0-.096-.753 1.28 1.28 0 0 0-.22-.473.714.714 0 0 0-.356-.24 1.385 1.385 0 0 0-.477-.048 1.32 1.32 0 0 0-.473.102.735.735 0 0 0-.328.277 1.25 1.25 0 0 0-.179.501 3.46 3.46 0 0 0-.005.775h.002ZM42.414 5.89a54.182 54.182 0 0 0-2.154 0v-.335h.662l-.01-2.894h-.693v-.335c.51-.007 1.02-.007 1.531 0v.648h.018c.05-.107.115-.206.191-.297.082-.088.174-.167.275-.233a1.25 1.25 0 0 1 .318-.149c.11-.033.224-.05.339-.048a.703.703 0 0 1 .455.16.49.49 0 0 1 .168.411.466.466 0 0 1-.15.357.509.509 0 0 1-.357.116.473.473 0 0 1-.357-.13.41.41 0 0 1-.114-.307.578.578 0 0 1 .044-.207 1.008 1.008 0 0 0-.337.179c-.108.089-.2.196-.273.316a1.607 1.607 0 0 0-.179.444c-.046.184-.07.373-.07.562l-.01 1.409.714.009-.01.325ZM49.157.246c.43.041.855.126 1.268.254.286.085.555.218.797.393.177.127.312.302.391.505.065.19.082.395.05.594a1.386 1.386 0 0 1-.536.903 1.75 1.75 0 0 1-.519.275 2.613 2.613 0 0 1-.69.129v.018c.179.056.346.145.492.262.12.097.218.219.286.357.067.143.112.295.134.452.024.177.04.356.046.535 0 .202.013.384.018.55.002.146.019.291.05.434a.676.676 0 0 0 .15.301c.087.085.2.138.321.15.025 0 .063.01.113.013.054.006.108.009.162.009l-.052.32h-.344l-.179-.018-.15-.022a1.88 1.88 0 0 1-.583-.164.682.682 0 0 1-.3-.284 1.051 1.051 0 0 1-.11-.428 9.44 9.44 0 0 1-.015-.593c0-.332-.01-.61-.027-.839a1.674 1.674 0 0 0-.121-.557.678.678 0 0 0-.297-.327 1.51 1.51 0 0 0-.562-.153 66.704 66.704 0 0 0-.86-.093l-.27 2.65c.309.031.618.065.925.1l-.038.333a68.89 68.89 0 0 0-2.652-.252l.025-.334c.294.022.589.047.882.072l.474-5.386a85.446 85.446 0 0 0-.953-.077c0-.11.016-.223.025-.333a76.78 76.78 0 0 1 2.65.251Zm-1.023 2.65.613.064c.278.036.559.043.839.021.199-.013.393-.07.567-.166a.871.871 0 0 0 .346-.368c.087-.183.143-.38.166-.582a1.53 1.53 0 0 0 0-.505.64.64 0 0 0-.217-.368 1.358 1.358 0 0 0-.507-.257 4.998 4.998 0 0 0-.875-.164c-.228-.025-.457-.05-.685-.071l-.247 2.395ZM55.793 6.36c-.15.34-.412.618-.741.79a1.7 1.7 0 0 1-1.1.1 2.07 2.07 0 0 1-.758-.288 1.814 1.814 0 0 1-.513-.503 1.785 1.785 0 0 1-.266-.652 2.09 2.09 0 0 1 .252-1.448c.125-.21.293-.393.493-.535.204-.144.435-.244.68-.295.271-.057.551-.057.823 0 .248.045.484.139.696.275a1.554 1.554 0 0 1 .69 1.082c.032.238.023.48-.028.714a63.164 63.164 0 0 0-2.686-.548l-.022.09v.028a3.39 3.39 0 0 0-.068.805c.006.178.05.353.127.514a.713.713 0 0 0 .282.294c.128.068.265.116.407.143.136.029.274.039.413.029a1.04 1.04 0 0 0 .376-.098c.125-.062.238-.145.334-.245.113-.122.208-.259.284-.407.058.018.114.04.17.066.053.027.105.057.155.09Zm-.6-1.272c.037-.187.05-.377.037-.566a.892.892 0 0 0-.105-.357.548.548 0 0 0-.223-.215 1.25 1.25 0 0 0-.675-.126.714.714 0 0 0-.32.103.948.948 0 0 0-.27.295c-.096.16-.168.333-.215.514.59.11 1.18.228 1.77.352ZM59.442 5.994c.033-.154.042-.312.027-.47a.783.783 0 0 0-.118-.356.77.77 0 0 0-.257-.245 1.478 1.478 0 0 0-.395-.159 1.684 1.684 0 0 0-.332-.053.866.866 0 0 0-.28.027.47.47 0 0 0-.21.121.478.478 0 0 0-.122.229.47.47 0 0 0 0 .248c.03.08.079.15.143.207.09.084.19.16.294.226l.445.28c.141.09.278.18.412.277.129.089.245.194.347.313.093.108.162.236.203.373a.764.764 0 0 1-.01.446.892.892 0 0 1-.272.445c-.13.112-.282.194-.448.239-.179.049-.364.07-.55.06a2.728 2.728 0 0 1-.585-.085 3.5 3.5 0 0 1-.323-.102 4.926 4.926 0 0 1-.639-.277c-.097-.05-.179-.1-.249-.144l.241-1.187.304.073a2.105 2.105 0 0 0-.034.535.891.891 0 0 0 .116.384.75.75 0 0 0 .266.257c.13.073.27.127.414.163.117.031.236.052.357.06.1.009.202 0 .3-.023a.494.494 0 0 0 .366-.359.44.44 0 0 0 .009-.233.509.509 0 0 0-.123-.2 1.536 1.536 0 0 0-.257-.21l-.391-.253a10.935 10.935 0 0 1-.438-.292 1.852 1.852 0 0 1-.357-.313 1.016 1.016 0 0 1-.21-.368.821.821 0 0 1 0-.451.893.893 0 0 1 .239-.448c.118-.114.261-.2.418-.248.173-.054.354-.077.535-.07a3.03 3.03 0 0 1 .892.184 5.19 5.19 0 0 1 .604.264l.252.134c-.093.357-.179.728-.277 1.09l-.307-.089ZM63.704 8.658c-.192.318-.486.56-.835.689-.365.11-.756.097-1.112-.038a2.09 2.09 0 0 1-.709-.384 1.752 1.752 0 0 1-.637-1.25 2.074 2.074 0 0 1 .428-1.406c.151-.193.34-.352.557-.467.222-.117.465-.188.714-.21.278-.02.558.016.821.108.242.075.466.196.66.357a1.515 1.515 0 0 1 .554 1.164 2.11 2.11 0 0 1-.114.714 68.666 68.666 0 0 0-2.626-.882l-.034.087v.027a3.42 3.42 0 0 0-.166.79c-.016.18.006.363.065.535a.714.714 0 0 0 .246.328c.12.085.251.15.39.195.133.043.27.07.41.078a1.042 1.042 0 0 0 .744-.251c.128-.106.24-.23.332-.368.056.025.11.054.162.087.057.025.106.061.15.097Zm-.444-1.34c.058-.18.094-.368.107-.558a.852.852 0 0 0-.063-.377.554.554 0 0 0-.196-.24 1.197 1.197 0 0 0-.303-.147 1.159 1.159 0 0 0-.357-.064.715.715 0 0 0-.336.077.965.965 0 0 0-.309.257c-.114.147-.206.309-.275.482.58.182 1.157.372 1.732.57ZM67.656 11.457a3.178 3.178 0 0 1-.338-.102l-.237-.095a1.952 1.952 0 0 1-.346-.178.682.682 0 0 1-.179-.19.398.398 0 0 1-.057-.201.68.68 0 0 1 .038-.216h-.022a1.555 1.555 0 0 1-.357.152 1.306 1.306 0 0 1-.344.053 1.48 1.48 0 0 1-.334-.03 1.92 1.92 0 0 1-.314-.093 1.58 1.58 0 0 1-.429-.24 1.073 1.073 0 0 1-.273-.32.839.839 0 0 1-.103-.357.922.922 0 0 1 .062-.386c.136-.357.432-.568.893-.607.46-.04 1.07.08 1.799.371.052-.114.096-.217.138-.31.04-.093.078-.179.115-.273a.676.676 0 0 0 .042-.56.823.823 0 0 0-.457-.356c-.142-.06-.29-.1-.441-.122a1.035 1.035 0 0 0-.357 0 .65.65 0 0 1 .08.249.47.47 0 0 1-.027.216.383.383 0 0 1-.223.226.485.485 0 0 1-.357-.014.66.66 0 0 1-.159-.09.372.372 0 0 1-.114-.128.385.385 0 0 1-.05-.164.441.441 0 0 1 .03-.195.598.598 0 0 1 .216-.273.905.905 0 0 1 .397-.155c.185-.03.373-.03.558 0 .246.038.486.106.714.202.189.074.369.169.536.284.136.093.25.215.334.357a.83.83 0 0 1 .109.439c-.011.19-.058.377-.138.55-.021.051-.059.135-.11.251l-.18.384-.19.425-.163.393a4.158 4.158 0 0 0-.112.285.536.536 0 0 0-.036.198.213.213 0 0 0 .058.14.515.515 0 0 0 .178.108c.092.039.186.07.282.097-.046.085-.087.18-.132.275Zm-.66-2.158a5.02 5.02 0 0 0-.768-.241 1.428 1.428 0 0 0-.5-.029.536.536 0 0 0-.303.148.91.91 0 0 0-.179.291.714.714 0 0 0-.04.507.522.522 0 0 0 .308.298c.1.037.204.059.31.065a.985.985 0 0 0 .727-.243c.126-.117.224-.261.286-.422l.158-.374ZM70.06 12.578a64.481 64.481 0 0 0-1.994-.939l.138-.305.616.282 1.214-2.628-.643-.293.136-.305c.476.214.949.434 1.419.659l-.279.59h.016a1.429 1.429 0 0 1 1.034-.271c.117.017.23.053.335.106.156.068.283.19.357.342a.484.484 0 0 1-.017.445.458.458 0 0 1-.29.255.536.536 0 0 1-.383-.052.485.485 0 0 1-.268-.27.402.402 0 0 1 .023-.328.579.579 0 0 1 .13-.167 1.026 1.026 0 0 0-.389.016c-.138.032-.269.09-.387.167-.135.09-.255.199-.357.324-.12.146-.222.306-.302.478l-.612 1.276.651.314c-.055.104-.098.204-.148.304ZM75.047 13.952a1.678 1.678 0 0 1-.97.535c-.378.04-.76-.046-1.084-.246a2.17 2.17 0 0 1-.643-.521 1.882 1.882 0 0 1-.357-.645 1.823 1.823 0 0 1-.07-.714c.055-.504.302-.968.691-1.294.192-.16.416-.279.657-.346.254-.069.52-.087.78-.052a2.3 2.3 0 0 1 .836.284c.184.101.354.228.505.375.128.124.237.267.323.423.07.13.113.274.125.421a.636.636 0 0 1-.084.368.451.451 0 0 1-.159.168.445.445 0 0 1-.178.059.622.622 0 0 1-.356-.086.499.499 0 0 1-.251-.295.416.416 0 0 1 .035-.335.52.52 0 0 1 .17-.179.713.713 0 0 1 .28-.109.916.916 0 0 0-.25-.317 2.025 2.025 0 0 0-.32-.225 1.682 1.682 0 0 0-.401-.163.75.75 0 0 0-.428.018 1.233 1.233 0 0 0-.452.305c-.19.208-.35.441-.477.693-.13.23-.23.477-.296.734-.044.171-.05.35-.018.524.029.14.097.268.197.37a1.5 1.5 0 0 0 .357.264c.119.068.247.118.38.15a1.06 1.06 0 0 0 .789-.109c.151-.084.289-.19.409-.316.05.036.1.076.146.118.041.045.08.093.114.143ZM76.349 15.709c.178.11.357.221.523.334l-.178.28a66.77 66.77 0 0 0-1.803-1.121l.178-.287.59.357 2.827-4.608a62.64 62.64 0 0 0-.636-.385l.157-.282c.47.282.938.569 1.402.862l-1.64 2.599.015.01c.222-.108.468-.155.714-.135.293.037.571.147.81.32.376.246.597.515.663.797a1.082 1.082 0 0 1-.213.877l-1.249 1.815c.178.127.368.254.55.382l-.191.275a65.212 65.212 0 0 0-1.742-1.198c.06-.092.12-.178.178-.278.179.112.346.228.518.343l1.28-1.91a.643.643 0 0 0 .133-.522.739.739 0 0 0-.339-.412 1.18 1.18 0 0 0-.42-.178.948.948 0 0 0-.447.02c-.166.052-.32.137-.45.25a2.14 2.14 0 0 0-.432.515l-.798 1.28Z" fill="#fff"/></g></g><defs><clipPath id="a"><path fill="#fff" d="M0 0h80v57H0z"/></clipPath></defs></svg>