<svg width="32" height="25" fill="none" xmlns="http://www.w3.org/2000/svg"><g clip-path="url(#a)"><path d="M31.331 4.69c-.368-1.476-1.452-2.638-2.829-3.032C26.007.94 16 .94 16 .94s-10.007 0-12.502.717C2.12 2.052 1.037 3.214.668 4.689 0 7.363 0 12.941 0 12.941s0 5.579.669 8.253c.368 1.475 1.452 2.637 2.829 3.031 2.495.716 12.502.716 12.502.716s10.007 0 12.502-.716c1.377-.394 2.461-1.556 2.83-3.031C32 18.52 32 12.94 32 12.94s0-5.578-.669-8.252Z" fill="#000"/><path d="m12.727 18.006 8.363-5.065-8.363-5.065v10.13Z" fill="#fff"/></g><defs><clipPath id="a"><path fill="#fff" transform="translate(0 .941)" d="M0 0h32v24H0z"/></clipPath></defs></svg>